<svg xmlns="http://www.w3.org/2000/svg" viewBox="0 0 144 144"><path d="M34.469 51.079c-1.401-.821-3.21-.327-4.017 1.1l-1.575 2.785c-.807 1.427-.321 3.268 1.079 4.089 1.403.821 3.211.326 4.016-1.101l1.578-2.785c.809-1.428.323-3.267-1.081-4.088zM47.932 60.153c-1.4-.823-3.208-.327-4.016 1.1L42.34 64.04c-.807 1.425-.321 3.266 1.081 4.088 1.401.821 3.209.327 4.016-1.1l1.577-2.785c.808-1.428.321-3.267-1.082-4.09zM94.058 49.91c1.403.82 3.21.321 4.015-1.105l1.572-2.789c.807-1.428.319-3.267-1.084-4.087-1.403-.821-3.21-.323-4.017 1.106l-1.572 2.786c-.807 1.429-.318 3.267 1.086 4.089zM112.033 50.987c-1.401-.821-3.209-.323-4.015 1.105l-1.572 2.787c-.805 1.428-.316 3.267 1.084 4.088 1.403.82 3.21.323 4.017-1.105l1.572-2.788c.807-1.427.318-3.267-1.086-4.087zM82.177 31.13c6.37-1.071 10.683-7.193 9.633-13.679-1.053-6.484-7.067-10.864-13.437-9.795-6.366 1.069-10.681 7.186-9.631 13.67 1.051 6.486 7.07 10.872 13.435 9.804z"/><path d="M104.933 46.535c-1.775-.937-3.959-.231-4.88 1.574l-5.484 7.814-5.162-13.083c-1.385-3.185-4.207-5.71-7.797-7.372-4.994-2.31-11.429-2.73-16.706-1.206L48.925 38.63c-1.577.432-2.931 1.467-3.775 2.892L34.826 58.944c-1.034 1.743.04 4.067 1.753 5.12 1.71 1.053 3.937.493 4.971-1.249l10.021-15.613-.017-.021 11.903-2.095-6.628 20.477-1.867 5.498c-1.448 4.264-1.269 8.926.505 13.063l6.68 22.934-6.62 25.628c-.636 2.463.796 4.988 3.21 5.659 2.335.646 4.763-.674 5.526-3.014l7.298-22.319c.909-2.743 1.296-5.41 1.118-8.299l-.076-1.377-2.525-22.001c.05-.035.06-.04.112-.075l14.807 7.289-9.267 19.427c-1.018 2.326-.004 5.054 2.273 6.11 2.203 1.022 4.808.115 5.932-2.067L95.66 90.067c1.734-3.247.676-7.307-2.411-9.252l-15.757-9.928 6.998-17.004 5.6 11.445c1.384 3.02 5.479 3.338 7.298.569l9.426-14.353c.92-1.808-.107-4.072-1.881-5.009z"/></svg>