<svg xmlns="http://www.w3.org/2000/svg" viewBox="0 0 144 144"><path d="M105.063 34.924c12.706 1.552 20.23-11.409 13.874-21.199-2.702-4.162-7.577-6.526-12.537-6.069-11.551 1.063-17.145 14.689-8.466 23.719 1.872 1.949 4.438 3.22 7.129 3.549zM123.099 77.538l-4.81-5.623c.911-2.769 2.431-7.444 3.559-10.922.896-2.76.419-5.762-1.286-8.114-1.712-2.364-7.196-7.99-11.682-12.25-1.55-1.471-3.306-2.68-5.2-3.594-3.621-1.747-7.764-2.072-11.742-1.484-.932.139-2.374.405-4.11.748L70.063 15.528l2.308-1.953c.563-.478.632-1.327.152-1.888l-.214-.248c-.479-.561-1.332-.629-1.895-.152l-2.308 1.955-4.074-4.764c-.601-.704-3.039-.966-3.039-.966s-.128 2.437.472 3.139l4.075 4.766-2.195 1.858c-.563.476-.632 1.324-.152 1.885l.213.249c.479.561 1.332.628 1.896.152l2.195-1.858L84.063 37.07c-4.628.967-10.091 2.174-14.09 3.084-4.17.951-6.638 5.223-5.377 9.289l5.91 13.528-56.893-11.799.618-2.952c.151-.721-.318-1.434-1.041-1.583l-.323-.068c-.724-.15-1.439.316-1.591 1.038l-.618 2.952-6.155-1.276c-.908-.189-2.996 1.091-2.996 1.091s1.399 2.003 2.308 2.19L9.97 53.84l-.588 2.809c-.151.721.318 1.433 1.042 1.583l.321.067c.725.148 1.44-.316 1.591-1.037l.588-2.809 59.223 12.283.016.035c.163.023-9.754 21.558-9.754 21.558L36.08 100.301c-2.092 1.288-2.983 3.771-2.338 6.014.133.46.331.911.598 1.339 1.561 2.511 4.869 3.285 7.391 1.731l28.368-10.36c.511-.318.974-.7 1.372-1.149l10.973-14.923 10.623 8.515-18.627 15.064c-1.9 1.555-2.454 4.134-1.514 6.27.192.439.45.86.771 1.25 1.883 2.282 5.266 2.612 7.557.74l24.787-17.083c4.525-3.479 1.218-9.271.768-9.669L96.612 75.434s3.993-8.557 7.199-15.273l7.309 8.544c-.515 1.922-.916 3.507-.875 3.938.116 1.24.842 2.37 1.922 2.997 1.481.861 3.268.604 4.496-.455l3.87 4.526c.6.702 1.668.789 2.375.19.705-.597.791-1.659.191-2.363zM78.555 55.667c-.158.212-.336.426-.507.638l-3.083-7.644 6.505-.891c-.57 2.834-1.225 5.62-2.915 7.897zm33.62 9.099l-6.772-7.918c.508-1.051.966-1.988 1.337-2.728l6.548 4.978c.119.767-.444 3.127-1.113 5.668z"/><path d="M112.386 127.841c-3.346-.164-6.643-.738-9.933-1.355-7.77-1.457-15.427-3.545-22.817-6.347-5.835-2.211-11.526-4.837-16.935-7.942-1.365-.785-2.791-1.47-4.105-2.337-.644-.424-1.22-.928-1.807-1.417-.56-.469-1.13-.924-1.776-1.286-2.185-1.229-1.197 3.154-.71 3.895 2.058 3.139 5.708 4.692 8.722 6.73 2.144 1.449 4.334 2.832 6.566 4.145 4.462 2.626 9.084 4.981 13.813 7.099 7.698 3.443 15.644 6.545 23.875 8.475 4.464 1.053 10.422 2.559 13.175-2.399.898-1.62 1.354-3.661-.1-5.092-2.035-2.003-5.299-2.038-7.968-2.169zM60.653 128.354c-3.14-1.161-6.107-2.699-9.056-4.276-6.966-3.723-13.632-8.012-19.829-12.903-4.891-3.859-9.52-8.073-13.735-12.66-1.063-1.157-2.213-2.238-3.204-3.461-.485-.598-.882-1.249-1.293-1.893-.393-.613-.797-1.219-1.303-1.761-1.71-1.825-2.096 2.647-1.858 3.501 1.008 3.611 4.017 6.188 6.271 9.036 1.604 2.026 3.274 4.001 5.003 5.923 3.458 3.844 7.149 7.479 11.015 10.917 6.294 5.597 12.928 10.939 20.189 15.252 3.936 2.345 9.159 5.568 13.288 1.67 1.348-1.276 2.403-3.085 1.45-4.884-1.33-2.52-4.433-3.535-6.938-4.461z"/></svg>