<svg xmlns="http://www.w3.org/2000/svg" viewBox="0 0 144 144"><path d="M77.938 53.208c-2.543 6.362.729 13.517 7.314 15.978 6.581 2.462 13.978-.708 16.521-7.071 2.543-6.364-.723-13.519-7.308-15.978-6.584-2.459-13.985.707-16.527 7.071z"/><path d="M72.809 101.589c3.644 1.744 6.14 3.95 7.287 5.09 3.237-6.459 6.264-12.539 6.264-12.539l5.188 8.535c4.043-2.313 8.295-3.495 12.714-3.495.043 0 .081.01.123.01-3.224-5.639-6.575-11.447-8.182-14.218-1.828-3.15-4.492-5.752-7.729-7.557L72.485 67.279l.613-17.606L87.535 32.36c1.515-1.812 1.221-4.467-.653-5.926-.298-.235-.62-.423-.957-.568-1.764-.765-3.552-.262-5.174 1.203L63.375 43.267c-1.117 1.04-1.859 2.398-2.121 3.876l-3.637 20.516-9.38 35.984c4.518-2.965 9.247-4.481 14.127-4.481 3.576-.001 7.093.817 10.445 2.427z"/><path d="M133.646 111.43s-8.136 11.629-17.421-.119c0 0-11.91-11.496-25.784 1.542 0 0-7.418 9.5-15.52-.621 0 0-2.072-2.307-5.542-3.97-4.58-2.198-11.616-3.214-19.642 3.657-.241.206-.472.359-.713.58 0 0-6.778 10.182-15.631.354 0 0-11.643-13.391-25.824-.686 0 0-2.357 3.515-6.067 4.632v6.603c3.148-.453 8.261-1.951 11.912-6.857 0 0 6.442-7.43 13.804.236 0 0 4.959 7.227 13.941 6.726 0 0 8.93.081 14.051-7.133 0 0 5.858-7.681 13.748-.059 0 0 6.403 8.187 15.096 7.014 0 0 6.696.414 13.141-7.131 0 0 5.587-7.774 13.747-.061 0 0 5.349 7.727 14.838 6.914 0 0 8.222-.259 13.468-7.031 0 0 1.695-1.805 4.263-2.712v-6.922c-3.052.508-6.394 1.98-9.865 5.044z"/></svg>