<svg xmlns="http://www.w3.org/2000/svg" viewBox="0 0 144 144"><path d="M120.696 32.558l-4.586.394c-.136-.946-.401-1.877-.889-2.739l-2.769-4.885c-.452-.803-.72-1.674-.795-2.583l-.554-6.733c-.228-2.778-1.955-5.241-4.505-6.429L93.68 3.568c-.104-.048-.21-.071-.316-.071-.262 0-.515.14-.648.382-.136.243-.07.505.074.725L81.556 17.688c-1.08-2.167-2.821-4.034-5.178-5.197-5.732-2.823-12.689-.521-15.548 5.136s-.539 12.531 5.189 15.354c.595.292 1.208.498 1.823.683l-1.788 2.083c-1.582-.13-2.839-.224-3.494-.251-6.323-.268-14.229 1.672-20.753 2.705-2.243.355-3.962 2.111-4.263 4.335-.407 3.021 1.96 5.71 5.047 5.735l12.55.425 1.883 19.576-2.917 31.24-3.628 33.823c-.428 3.17 1.731 6.046 4.629 6.164l.072.003c2.36.097 4.441-1.698 4.933-4.252l7.745-33.272c.025-.178.052-.356.08-.533l1.38-16.908 3.907 15.558 3.071 33.513c.191 2.916 2.454 5.129 5.089 4.975 2.667-.156 4.718-2.677 4.586-5.635l-.217-30.307c-.076-2.104-.274-4.199-.599-6.279l-5.641-27.905L81.816 52.8l14.96 11.904-.136.109c-.305.243-.362.678-.135.994.145.197.37.304.602.304.136 0 .273-.036.394-.11l12.091-7.508c2.39-1.486 3.803-4.137 3.688-6.918l-.272-6.749c-.006-.13.023-.255.025-.383l2.125-.4c2.309-.255 3.993-2.281 3.794-4.566-.152-1.754-1.37-3.158-2.969-3.663.099-.462.161-.929.187-1.398l4.65-.398c.409-.034.711-.389.675-.791-.03-.405-.335-.696-.799-.669zm-46.052 3.948c-2.284-.21-4.435-.404-6.326-.568l1.597-1.861c4.695.517 9.425-1.811 11.657-6.225 1.343-2.658 1.505-5.573.745-8.223L94.299 5.671l8.521 5.28c1.708 1.058 2.824 2.873 2.989 4.857l.598 7.281c.091 1.104.429 2.204.978 3.178l2.767 4.886c.401.707.622 1.471.729 2.245l-36.237 3.108zm7.483 14.191l.282-1.922 11.858-.805 13.502-2.542.281 6.974c.079 1.988-.81 3.926-2.374 5.179l-7.429 5.944-16.12-12.828zm14.982 14.681l.002-.001 12.089-7.506-12.091 7.507zm13.501-29.243l-16.262 2.257s-5.266-.52-11.546-1.118l28.106-2.41c-.042.43-.173.85-.298 1.271z"/></svg>