<svg xmlns="http://www.w3.org/2000/svg" viewBox="0 0 144 144"><path d="M85.66 7.845c-5.407-2.966-12.16-.927-15.088 4.543-2.929 5.469-.928 12.309 4.479 15.273 5.406 2.966 12.164.933 15.093-4.537 2.93-5.472.922-12.313-4.484-15.279z"/><path d="M72.271 30.747L63.33 12.7c-1.057-2.053-3.673-2.67-5.517-1.301L43.594 22.947c-1.528 1.061-1.917 3.171-.868 4.718 1.047 1.544 3.133 1.939 4.661.88l10.766-6.29 4.661 17.927-.162 28.911s-2.303 10.224-2.288 13.758c.019 3.415 5.352 18.892 6.205 22.237l.015 31.195c.168 2.454 2.313 4.336 4.793 4.206 1.856-.098 3.372-1.294 3.949-2.919.194-.548.28-1.144.239-1.759l4.119-30.701c-.01-.165.14-28.581.14-28.581l1.777-19.271c.256-2.778.602-10.881-.251-15.353-1.037-5.431-3.685-10.747-9.079-11.158zM45.072 16.836l-1.378-2.413c-.411-.72-1.32-.966-2.029-.55l-5.429 3.174c-.711.416-.954 1.336-.543 2.055l1.376 2.415c.413.72 1.32.965 2.032.549l5.429-3.174c.709-.415.953-1.335.542-2.056z"/><path d="M52.302 30.699c-.411-.72-1.32-.967-2.031-.549l-5.428 3.172c-.711.418-.956 1.336-.544 2.057l1.378 2.414c.411.72 1.32.966 2.032.55l5.428-3.174c.711-.416.955-1.336.544-2.057l-1.379-2.413z"/></svg>