<svg xmlns="http://www.w3.org/2000/svg" viewBox="0 0 144 144"><path d="M78.563 69.855l-.433 6.102c.984-.139 2.005.286 2.581 1.205.795 1.268.446 2.961-.78 3.783-.544.364-1.166.461-1.762.386l.087 6.11c1.666.05 3.364-.397 4.868-1.406 3.946-2.646 5.071-8.096 2.511-12.174-1.614-2.573-4.309-3.978-7.072-4.006zM60.63 26.655c6.187 5.008 15.143 2.05 17.37-5.738 1.236-4.32-.274-9.196-3.712-11.967-6.183-4.986-15.105-2.033-17.348 5.734-1.248 4.316.257 9.195 3.69 11.971z"/><path d="M88.504 39.497l-4.033 5.76s-8.029-10.009-8.188-10.118c-2.057-2.169-4.957-3.542-8.201-3.542-6.225 0-11.274 4.997-11.274 11.16 0 2.378 1.291 25.747 1.291 25.747s-2.231 9.455-1.408 14.831c.566 3.694 6.541 19.895 7.03 21.706l.11 31.346c.211 2.459 2.354 4.307 4.791 4.128 1.824-.134 3.291-1.366 3.827-3.008.181-.554.255-1.153.203-1.771l2.667-27.599c.211-2.171.3-4.342.269-6.524-.106-7.506-.347-25.451-.347-25.451l1.867-26.258 5.218 5.281c1.447 1.464 3.829 1.187 4.926-.571l6.664-10.694c-2.172-.871-4.089-2.346-5.412-4.423zM105.15 28.242c-2.561-4.079-7.835-5.241-11.781-2.596-3.948 2.645-5.072 8.096-2.513 12.175 2.561 4.078 7.835 5.239 11.783 2.594 3.947-2.644 5.071-8.095 2.511-12.173zm-5.705 7.086c-1.228.822-2.867.461-3.663-.806-.795-1.27-.446-2.963.78-3.785 1.227-.824 2.866-.461 3.663.806.796 1.267.447 2.961-.78 3.785z"/></svg>