<svg xmlns="http://www.w3.org/2000/svg" viewBox="0 0 144 144"><path d="M102.365 9.818C98.074 5.5 90.99 5.38 86.535 9.538c-4.45 4.16-4.586 11.031-.297 15.348 4.292 4.318 11.381 4.444 15.831.286 4.453-4.162 4.588-11.035.296-15.354z"/><path d="M81.752 33.934c-4.859 7.419-6.394 26.773-6.394 26.773s-4.421 8.135-6.046 11.242c-1.572 3.004-6.562 22.006-6.562 22.006l-14.193 26.924c-.987 2.229.104 4.859 2.434 5.874 1.746.762 3.69.402 4.974-.759.431-.395.788-.876 1.036-1.436l16.165-25.784c.067-.152 14.818-24.509 14.818-24.509l6.346-13.667c.914 1.454 2.894 1.667 3.751 1.374 2.206-.747 3.374-2.757 3.631-5.533.02-.216.521-10.803-.823-18.609-1.343-7.804-14.754-10.588-19.137-3.896z"/><path d="M98.654 73.38c-1.847-1.043-4.228-.441-5.31 1.354L78.4 99.585c-1.081 1.796-.455 4.101 1.397 5.148.615.348 1.287.514 1.953.514 1.335 0 2.635-.669 3.356-1.869l6.813-11.329v44.029H61.657l-20.83-8.648c-.517-.221-.912-.623-1.11-1.145-.196-.521-.166-1.081.084-1.576l2.838-5.565.114.056c.924.454 2.065.09 2.53-.808l11.229-21.525c.467-.897.093-2.001-.829-2.457l-4.54-2.227c-.926-.45-2.069-.088-2.536.807L37.38 114.519c-.447.855-.105 1.891.732 2.378l-2.869 5.632c-.862 1.688-.971 3.68-.304 5.451.672 1.774 2.081 3.224 3.868 3.976l11.583 4.123H38.975c-.976 0-1.765.765-1.765 1.711s.79 1.71 1.765 1.71h54.71c.976 0 1.766-.765 1.766-1.711V86.181l4.602-7.652c1.08-1.798.455-4.102-1.399-5.149z"/></svg>