<svg xmlns="http://www.w3.org/2000/svg" viewBox="0 0 144 144"><path d="M112.488 24.817c-.301-.373-.647-.688-1.023-.941-1.618-1.086-3.821-1.054-5.432.218L94.465 34.212c-2.705.841-5.409 1.681-8.113 2.522-3.33 1.034-6.687 1.976-10.03 2.954-3.193.934-6.6 1.782-9.432 3.588-1.272.809-2.458 1.743-3.574 2.749-2.363 2.13-4.42 4.572-6.219 7.185-.074.107-.147.214-.22.321-1.917 2.833-3.834 5.664-5.75 8.495-.047.069-.241.271-.241.359l-5.966-9.538c-.724-1.923-2.587-3.045-4.546-2.995l2.036-17.968c3.848-.473 6.309-4.69 6.309-4.69 3.619-5.106 2.5-9.867 2.5-9.867-.329-5.038-3.772-7.673-3.772-7.673-4.337-3.792-8.923-.314-8.923-.314-4.223 2.833-4.776 7.853-4.776 7.853-.71 4.514.586 7.434.586 7.434 1.798 5.342 4.783 6.782 6.325 7.182L38.526 50.29c-2.207 1.026-3.324 3.538-2.453 5.849l1.461 2.745-.471 4.085s.052.784.789.868c.801.091 1.017-.683 1.017-.683l.165-1.454 5.97 11.218c.695 1.849 2.314 3.2 4.266 3.563.09.016.176.028.266.042 1.865.256 3.747-.428 5.006-1.836l6.135-5.567 3.608-3.342c1.082 1.616 1.95 3.108 2.322 4.197.791 2.315-.841 14.329-.927 14.532l-2.458 17.403-17.844-.761c-2.81-.164-5.078 1.239-5.506 3.619-.428 2.381 1.226 4.639 3.954 5.001l22.546 5.176c.188.027.374.048.559.061 2.325.165 5.236-1.601 6.138-4.579l4.604-18.075 2.341 20.626-15.407 22.65c-1.157 1.497-1.011 3.615.221 5.126.227.277.487.534.788.763 1.924 1.482 4.592 1.245 5.962-.53l20.203-23.546c1.427-1.927 1.467-3.699 1.467-5.298 0 0-3.809-38.801-3.895-39.385-.476-3.242-1.761-6.475-1.812-9.168-.011-.54-.005-1.088.008-1.645.075-2.994 1.387-8.868 1.632-13.882l9.025-4.283c1.645-.855 2.396-1.247 3.711-2.69l9.851-9.863c1.978-1.568 2.302-4.442.72-6.41zm-76.743-1.009s-1.073-2.422-.487-6.165c0 0 .466-4.063 3.962-6.505 0 0 3.853-2.79 7.396.259 0 0 2.778 2.002 3.125 6.362 0 0 .688 4.06-2.072 8.179 0 0-2.296 4.011-5.851 3.963 0-.001-4.003.055-6.073-6.093zM91.896 17.146c.071-.009.14-.019.21-.034 0 0 2.74-.146 2.244-3.147l8.58-2.931c.911-.454 1.109-1.661.39-2.379l-4.736-4.703c-.723-.716-1.934-.52-2.39.386 0 0-3.396 8.178-3.399 8.186-.002.003-.45-.061-.477-.063-.364-.027-.735-.016-1.095.052-.711.137-1.336.563-1.653 1.222-.431.904-.28 1.861.396 2.59.499.539 1.179.898 1.93.821z"/><path d="M68.084 38.757c6.695-1.1 11.226-7.387 10.117-14.042-1.109-6.653-7.435-11.145-14.129-10.043-6.692 1.098-11.222 7.38-10.113 14.033 1.106 6.657 7.436 11.154 14.125 10.052z"/></svg>