<svg xmlns="http://www.w3.org/2000/svg" viewBox="0 0 144 144"><path d="M116.655 56.792c-1.163-.525-18.114-5.766-18.114-5.766l-14.43-9.445-10.13-4.144c-2.528-1.035-5.17-1.763-7.872-2.175-2.695-.411-5.698-.858-5.698-.858l-18.958-4.971s-13.437-5.037-15.294-5.551c0 0-2.293-.836-3.348 1.342-1.132 2.334 1.451 3.722 1.451 3.722 4.053 1.841 12.576 5.692 12.576 5.692l20.897 10.42-.098 13.722 4.722 11.52c-16.246 4.427-27.571 11.471-26.601 16.463.889 4.574 11.371 4.173 25.821 1.87l.625 20.796s.55 11.72.337 24.63c-.037 2.256.787 4.375 2.841 5.143.219.081.444.148.682.196 2.45.506 4.851-1.063 5.357-3.505.137-12.254.278-25.32.278-25.32L73.083 86.6c.409-.079.809-.153 1.221-.231.052-.011.103-.021.155-.03l.847 22.937-.049 21.534c.054 2.256 1.756 4.087 3.935 4.372.229.03.466.045.707.039 2.502-.06 4.485-2.127 4.426-4.617-.221-9.146.113-22.32.113-22.32l2.128-24.44c14.642-3.277 25.045-6.876 24.146-11.5-.914-4.709-12.758-7.042-28.17-5.678L80.626 60.2s1.153-4.055 1.633-8.21c3.496 1.179 13.147 5.504 13.147 5.504l19.281 4.543s3.042.961 3.677-1.488c.749-2.891-1.709-3.757-1.709-3.757zM68.902 31.238c5.463 3.656 12.877 2.224 16.553-3.233 3.675-5.423 2.233-12.803-3.233-16.461-5.46-3.669-12.872-2.229-16.547 3.211-3.687 5.435-2.233 12.817 3.227 16.483z"/></svg>