<svg xmlns="http://www.w3.org/2000/svg" viewBox="0 0 144 144"><path d="M44.966 36.727c5.573-1.01 9.286-6.388 8.271-12.009-1-5.624-6.351-9.354-11.934-8.333-5.59 1.005-9.293 6.395-8.291 12.016 1.017 5.618 6.357 9.355 11.954 8.326zM115.265 31.817c5.643-2.183 8.452-8.556 6.285-14.234-2.171-5.679-8.5-8.517-14.143-6.332-5.646 2.185-8.459 8.56-6.288 14.24 2.167 5.676 8.501 8.511 14.146 6.326zM135.44 56.145c-.004-1.016-.395-2.029-1.169-2.798l-7.862-10.301c-2.605-3.414-6.219-5.91-10.321-7.128l-.212-.063c-4.779-1.417-9.909-1.012-14.411 1.138l-12.34 6.044-14.701-5.362s-3.395-1.256-4.831 2.055c-.905 2.087-.003 3.554.859 4.403l-9.339 5.627-6.529-6.049c-2.939-2.722-6.598-4.53-10.533-5.207-5.899-1.014-11.948.592-16.583 4.403l-6.135 5.046s-11.534-4.845-11.71-4.919c-1.98-.838-3.768-.325-4.691 1.354-.924 1.677-.323 3.79 1.345 4.72l12.828 7.465c1.978 1.15 4.473.846 6.122-.747l5.593-5.405c1.451 6.12 6.009 20.623 6.009 20.623-1.479 4.906-5.057 9.213 1.15 16.457l3.122 3.327 3.351 10.646-19.389 11.725.015.026c-.787.608-1.337 1.511-1.395 2.586-.105 1.955 1.386 3.626 3.33 3.731.762.041 1.481-.164 2.079-.547.007-.005.012-.012.019-.016l18.384-7.444 5.397 21.858.034-.003c.238 1.089.883 2.08 1.937 2.647 1.916 1.036 4.304.313 5.333-1.617.357-.67.472-1.396.432-2.103v-.299l-2.449-26.187.171-.069c2.322-.24 4.289-4.433 4.02-6.884-.293-2.699-9.053-17.332-9.172-17.692l1.994-13.659s-.7-5.178-1.745-11.068l5.296 2.807c1.9 1.005 4.204.774 5.858-.6 4.469-3.708 12.872-10.677 12.937-10.72.097-.065.149-.166.238-.239l8.975 3.932c1.38.588 2.925.651 4.347.18l6.735-2.104 2.844 22.741-9.984 24.201c-.438 1.133-.663 2.342-.654 3.561l.234 32.11c.105 1.212.664 2.376 1.724 3.143 1.927 1.393 4.613.952 6-.99.542-.761.676-1.241.807-2.51.002-.01-.003-.019-.003-.028l3.208-28.905 17.832 25.137c.737.814 1.776 1.341 2.959 1.303 2.148-.066 3.835-1.873 3.771-4.036-.025-.848-.381-1.417-.793-2.253-.005-.007-.014-.012-.019-.019 0 0-12.746-26.377-13.008-26.814l7.313-16.874-1.191-10.71c.734.092 1.49.048 2.205-.306l11.878-7.403c1.873-.931 2.783-2.947 2.484-4.918zm-16.211 4.319l1.627-10.169c1.76 2.032 3.72 4.292 5.401 6.231-2.55 1.43-5.324 2.986-7.028 3.938z"/><path d="M60.633 132.044c.012.089-.012.182-.005.273 0 1.043.003-.282.005-.273z"/></svg>