<svg xmlns="http://www.w3.org/2000/svg" viewBox="0 0 144 144"><path d="M74.725 38.732c6.86-1.151 11.504-7.727 10.368-14.688-1.137-6.96-7.62-11.658-14.483-10.506-6.857 1.15-11.505 7.721-10.366 14.68 1.134 6.961 7.621 11.667 14.481 10.514zM125.126 47.938c-2.969 0-5.378 2.438-5.378 5.451 0 3.015 2.409 5.451 5.378 5.451 2.968 0 5.377-2.437 5.377-5.451 0-3.013-2.409-5.451-5.377-5.451z"/><path d="M100.521 101.009c-.751-1.731-2.368-3.528-3.779-4.907L81.564 77.2s1.396-18.135 1.776-22.612c2.225-1.315 4.933-2.501 5.997-3.175 2.258-1.431 6.638-2.556 5.244-7.302-.925-3.152-4.725-2.987-7.267-2.987H63.367c-2.742-.03-5.312 1.046-7.244 2.877C50.124 37.369 45.7 30.87 44.28 28.703 42.679 26.261 25.928 6.965 24.801 6.298c-3.065-1.797-4.373-.173-5.644 1.192-2.19 3.629 1.792 6.703 1.792 6.703s10.825 11.111 13.312 13.514c2.494 2.4 7.22 6.06 9.327 7.595 1.422 1.03 7.425 6.66 11.197 10.229-.361.505-.695 1.036-.967 1.61l-7.409 15.67c-1.21 2.729-.865 6.746 1.824 7.973 2.691 1.229 6.48-1.135 8.089-4.846 0 0 1.581-3.934 2.33-6.321l.709 20.082c-.107.198-8.667 34.904-8.667 34.904l.002.001c-.146.063-26.908 14.663-26.908 14.663-.975.702-1.678 1.771-1.796 3.071-.214 2.365 1.503 4.459 3.834 4.676.914.086 1.599-.237 2.526-.566.007-.005.015-.013.021-.019l28.353-11.478c1.256-.51 2.292-1.457 2.922-2.671l14.701-28.385 13.712 13.148 17.277 30.905c1.009 1.954 3.306 2.896 5.492 2.412.401-.088.799-.222 1.187-.411 2.493-1.205 3.543-4.058 2.346-6.37l-13.842-32.57z"/></svg>