<svg xmlns="http://www.w3.org/2000/svg" viewBox="0 0 144 144"><path d="M58.263 37.987c4.917-4.242 5.535-11.771 1.356-16.795-4.172-5.033-11.544-5.655-16.47-1.391-4.931 4.254-5.531 11.785-1.367 16.814 4.176 5.023 11.554 5.652 16.481 1.372zM88.068 15.092c-.138.176-12.999 14.838-12.999 14.838-.068.087-.084.196-.146.287-3.315 2.144-15.497 9.973-17.62 11.338-5.613 3.071-8.858 9.88-7.503 16.536 3.505 17.231 5.122 20.477 5.116 20.486l-4.325 26.143-20.018 16.299c-1.6 1.653-2.893 3.308-1.494 5.968.182.351 1.586 2.912 5.103 1.297l25.502-14.906c1.267-.836 2.04-2.214 2.355-3.698l3.503-15.721 4.649 16.548-12.695 24.996c-1.083 1.91-1.586 4.534.544 6.129 2.622 1.965 5.65.017 6.309-.929l17.469-25.555c.901-1.611 1.11-2.839.856-4.725l-7.828-31.94c-.021-.073-.053-.137-.08-.209.152-5.303-.443-13.075-1.556-20.54-.154-1.05-.381-2.087-.657-3.109l-.831-3.075 14.346-3.199c1.403-.289 2.419-1.326 2.885-2.601.048-.095.077-.195.118-.294.043-.156.091-.301.115-.466.106-.35.247-.687.266-1.072l.625-19.421 3.638-4.784c1.25-1.592.999-3.915-.56-5.192-1.557-1.276-3.838-1.021-5.087.571zm-7.18 25.828c-2.11.317-4.879.73-7.608 1.137l7.308-5.585c.07-.052.103-.133.17-.187.235-.16.448-.351.654-.559-.2 1.978-.384 3.799-.524 5.194zM109.54 1.505c-5.502 0-9.96 4.551-9.96 10.164 0 5.609 4.458 10.164 9.96 10.164 5.505 0 9.964-4.555 9.964-10.164 0-5.612-4.459-10.164-9.964-10.164z"/></svg>