<svg xmlns="http://www.w3.org/2000/svg" viewBox="0 0 144 144"><path d="M106.73 43.558c-3.973-.368-9.157.751-13.636 1.413 0 0-9.311-9.305-12.496-11.27-5.301-3.266-12.971-1.515-16.129-.226-.843.344-4.878 1.988-5.818 2.468L42.213 44.07s-3.306-8.431-5.73-16.174c-.671-2.149-1.671-3.649-4.104-3.696-2.644-.051-4.827 2.035-4.879 4.659.942 4.319 3.404 15.094 5.688 21.504.885 2.488 1.387 4.079 4.936 6.29 3.242 2.021 12.891-2.265 19.581-5.137 2.526 2.356 9.939 17.376 9.939 17.376l-3.557 27.872s-24.434-1.179-24.412-1.231c-2.494.193-4.419 2.169-4.605 4.57-.021.253-.021.511 0 .775.216 2.734 2.152 3.956 5.382 4.566 2.227.421 17.189 3.563 25.845 4.954 3.886.624 7.667-1.538 9.084-5.183l3.914-18.786 2.557 24.171-15.125 22.937s-2.177 3.271.94 5.839c3.71 3.06 6.961-1.088 6.961-1.088s14.101-15.424 18.055-20.392c1.312-1.649 2.155-3.574 2.481-5.65.703-4.478 1.392-19.875 1.784-30.023.237-6.126-.343-12.252-1.71-18.232l-.75-3.268s-.922-2.535-2.339-6.043c.215.01.448.028.605.001 3.854-.616 11.793-2.186 14.293-3.138 1.896-.723 3.882-2.028 2.951-5.735-.267-1.062-2.173-2.148-3.268-2.25zM100.786 23.822c5.37 0 9.72-4.324 9.72-9.655 0-5.332-4.35-9.652-9.72-9.652-5.372 0-9.722 4.321-9.722 9.652 0 5.331 4.35 9.655 9.722 9.655z"/><path d="M58.065 32.845c7.025.263 12.955-5.188 13.211-12.185.267-6.991-5.229-12.873-12.275-13.129-7.045-.267-12.962 5.202-13.234 12.192-.254 6.989 5.241 12.876 12.298 13.122z"/></svg>