<svg xmlns="http://www.w3.org/2000/svg" viewBox="0 0 144 144"><path d="M105.732 101.216H21.185c-7.001 0-12.696 5.686-12.696 12.675v15.489c0 1.72 1.397 3.114 3.119 3.114s3.119-1.395 3.119-3.114v-15.489c0-3.556 2.897-6.447 6.458-6.447h84.548c3.562 0 6.458 2.892 6.458 6.447v15.489c0 1.72 1.397 3.114 3.119 3.114s3.119-1.395 3.119-3.114v-15.489c0-6.99-5.696-12.675-12.697-12.675zM18.428 94.374c6.854 1.629 13.735-2.594 15.365-9.437 1.634-6.845-2.602-13.715-9.455-15.344-6.854-1.629-13.737 2.597-15.371 9.444-1.632 6.843 2.607 13.706 9.461 15.337z"/><path d="M141.637 110.822l.056-.077-13.213-21.734c-1.442-2.37-3.757-4.082-6.447-4.766l-29.226-7.419L73.9 75.245l-21.755-3.149.958-13.807-.099-1.463c-3.723.502-7.5.021-10.953-1.37l-.231 2.334s-4.81 18.426-4.411 26.131c.21 4.065 2.961 6.961 5.568 8.809 2.377 1.685 5.242 2.536 8.157 2.536h68.426s14.832 21.42 15.061 21.633c1.912 1.769 4.896 1.654 6.668-.254 1.528-1.647 1.57-4.047.348-5.823zM59.876 50.802c8.417-5.383 10.869-16.562 5.475-24.965-5.393-8.403-16.587-10.853-25.006-5.468-8.416 5.383-10.869 16.561-5.475 24.965 5.394 8.405 16.588 10.852 25.006 5.468zm-13.291-20.71c3.04-1.944 7.082-1.061 9.029 1.973 1.947 3.035 1.062 7.072-1.978 9.014-3.04 1.944-7.082 1.061-9.029-1.973-1.946-3.035-1.062-7.07 1.978-9.014z"/></svg>