<svg xmlns="http://www.w3.org/2000/svg" viewBox="0 0 144 144"><path d="M122.359 21.145c-4.717-5.532-13.055-6.213-18.625-1.529-5.575 4.676-6.254 12.954-1.544 18.481 4.721 5.519 13.062 6.211 18.632 1.508 5.561-4.663 6.258-12.938 1.537-18.46zM108.283 68.472c-.147-2.243-.295-4.486-.442-6.729-.18-2.746-.287-5.499-.485-8.241-.311-4.271-2.372-7.865-5.295-10.755-4.491-4.438-10.423-6.431-16.075-8.939-4.963-2.205-9.928-4.411-14.893-6.616-1.13-.502-2.25-1.038-3.395-1.508-.901-.369-1.634-.47-2.696-.408L40.97 26.589c-2.133.054-3.794 1.618-4.185 3.614-.483.008-.963-.017-1.456.05-6.673.899-11.347 6.995-10.439 13.614.909 6.62 7.054 11.256 13.727 10.357 6.673-.901 11.347-6.997 10.439-13.617-.256-1.86-.957-3.537-1.935-5.004 6.644.175 16.57.445 17.09.46 3.028 1.558 14.44 9.222 14.433 9.178 0 0-17.542 12.973-17.556 12.985-2.418 1.787-4.858 3.473-6.458 6.084-1.413 2.305-1.945 4.912-2.661 7.488-1.795 6.469-3.744 12.875-5.692 19.298-.245.811-.492 1.621-.738 2.432-.054.188-.12.778-.275.913l-26.415 23.074c-.973 1.084-1.524 2.525-1.312 4.076.384 2.82 3 4.8 5.844 4.416 1.119-.147 1.685-.637 2.887-1.376l28.441-18.104c1.968-1.363 3.509-2.865 4.433-5.025.027-.05 8.358-20.386 8.358-20.386L82.717 96.11l.28.293L72.29 126.23c-.318 1.416-.097 2.94.847 4.195 1.716 2.282 4.971 2.752 7.271 1.05.904-.666 1.844-2.56 1.85-2.594l16.016-29.519c1.243-2.793 2.841-6.188.089-9.433-3.837-4.521-15.889-16.779-15.889-16.779l12.208-7.53c.063.077 4.399 9.522 4.702 10.484 2.829 4.774 12.337 16.625 12.449 16.821 1.211 2.134 3.936 2.891 6.087 1.688 2.15-1.201 2.913-3.906 1.702-6.039-.001.002-11.339-20.095-11.339-20.102z"/></svg>