<svg xmlns="http://www.w3.org/2000/svg" viewBox="0 0 144 144"><path d="M77.958 30.411c5.986-1.466 9.655-7.497 8.173-13.464-1.472-5.972-7.532-9.622-13.532-8.145-6 1.468-9.66 7.504-8.185 13.477 1.483 5.963 7.54 9.614 13.544 8.132zM123.602 29.941c-.449-1.414-1.088-2.579-2.246-3.354-3.329-2.151-7.93-.534-9.118-.182-5.282 2.09-4.896 5.558-4.896 5.558s-.257.215-.375.318c-.197-.169-.575-.086-.575-.086s-2.443.754-3.144.978c-.697.226-.348 1.214-.348 1.214l.006.021-12.729 2.429c-.187-.036-.377-.069-.566-.105-.511-.093-1.023-.188-1.535-.282-.752-.141-1.504-.279-2.257-.417-.908-.168-1.818-.337-2.729-.505-.985-.182-1.971-.364-2.957-.546-.979-.181-1.957-.361-2.936-.543-.889-.163-1.778-.328-2.669-.492-1.672-.31-5.537-1.051-7.248-1.078-.722 0-1.426.039-2.144.139-.572.079-1.141.198-1.695.368-1.181.359-2.301.91-3.308 1.619s-1.897 1.578-2.631 2.566c-.727.981-1.297 2.076-1.681 3.232-1.105 3.324-3.77 20.675-6.382 29.81-1.104 3.861-1.489 7.838-1.147 11.836.549 6.416 1.38 16.136 1.689 19.717.074.854.148 1.707.222 2.56L28.07 128.593c-1.653 2.118-2.11 4.172-.813 6.286.107.193.229.373.363.54 1.711 2.169 4.682 2.638 6.634 1.042l26.781-23.717c.745-.614 2.26-1.717 3.004-4.387.745-2.672.044-16.694.044-16.694l15.782 17.329 5.394 25.794c.443 2.297 2.522 3.853 4.806 3.718.196-.013.396-.039.595-.075 2.499-.477 4.14-2.881 3.659-5.368l-3.793-27.305c-.502-3.888-1.296-5.433-1.994-6.377l-15.661-23.86 1.359-6.384c3.221-1.241 7.882-3.031 11.279-4.334l.011.032s.172.422.313.816c.219.385 1.011-.097 1.011-.097s2.573-.86 3.06-1.058c.465-.285.327-.559.327-.559l.154-.054c.12.45 4.207.04 6.519-.442 3.414-.755 5.321-1.985 6.239-3.194 2.601-3.497.465-7.895-.126-9.256-.588-1.361-1.342-2.456-2.573-3.111-3.527-1.806-7.942.265-9.09.732-5.045 2.609-4.309 6.021-4.309 6.021s-.236.24-.342.354c-.213-.149-.581-.028-.581-.028s-2.355.995-3.027 1.288c-.672.294-.224 1.242-.224 1.242l.171.474-6.821 1.812 2.984-14.025c4.998.13 9.863.254 9.999.254 1.698.003 2.36-.118 4.016-.638.003.028 7.205-2.323 11.497-3.716l.077.312s.13.436.232.843c.176.406 1.014.007 1.014.007s2.647-.598 3.149-.747c.494-.238.384-.524.384-.524l.16-.038c.07.46 4.179.46 6.526.214 3.475-.408 5.495-1.442 6.534-2.553 2.938-3.221 1.257-7.809.809-9.221z"/></svg>