<svg xmlns="http://www.w3.org/2000/svg" viewBox="0 0 144 144"><path d="M77.062 51.605c7.022-1.633 11.412-8.73 9.803-15.856-1.611-7.124-8.607-11.566-15.63-9.932-7.016 1.63-11.407 8.724-9.797 15.846 1.607 7.129 8.608 11.576 15.624 9.942z"/><path d="M140.575 43.741c-3.968-11.761-10.348-6.61-17.254-4.212-4.228 1.469-9.698 6.575-9.801 11.006l-26.637 9.26c-2.433-1.65-5.117-2.884-7.967-3.59-3.695-.917-7.548-.967-11.267-.151L61.2 57.471l-7.862-1.412c-3.268-.588-6.594.679-8.673 3.305L34.441 72.267c-.895 1.869-.552 4.015.694 5.5l-2.044.71c-2.757-3.438-10.166-4.07-14.394-2.602C11.792 78.272.354 79.021 4.324 90.782c3.62 10.729 13.742 5.878 20.648 3.479 4.577-1.589 9.653-6.645 9.725-11.075l23.648-8.213v22.758c2.376-1.573 4.715-3.216 6.967-4.979l.788-.625c1.279-1.073 2.569-1.773 4.014-2.17.759-.202 1.542-.309 2.335-.309.922 0 1.831.142 2.697.413 1.378.433 2.664 1.18 3.835 2.214l.42.332c2.418 1.894 4.851 3.598 7.31 5.22V75.325l6.423 2.481c2.956.719 6.057-.338 7.984-2.722l10.563-13.06c.998-1.786.803-3.916-.312-5.474l3.725-1.295c2.734 3.457 9.799 4.293 14.376 2.703 6.905-2.396 14.726-3.49 11.105-14.217zM45.262 74.249l5.4-7.205 6.38 3.115-11.78 4.09zm49.904-8.058l-3.53-2.778 7.727-2.682-.002-.007.669-.233-4.864 5.7z"/><path d="M109.479 111.914c-3.414-.612-6.563-.895-9.864-2.134-3.454-1.297-6.729-3.04-9.923-4.891-4.44-2.57-8.722-5.471-12.769-8.643-.271-.212-.544-.424-.812-.644-.657-.581-1.415-1.053-2.251-1.315-.848-.267-1.757-.291-2.616-.06-.831.225-1.593.656-2.257 1.206-.068.054-.133.111-.198.169-.268.22-.54.432-.812.644-4.047 3.172-8.328 6.072-12.768 8.643-3.194 1.851-6.468 3.594-9.923 4.891-3.301 1.239-6.452 1.521-9.864 2.134-1.657.341-2.34 1.824-1.957 3.413.864 3.581 8.818 5.696 11.697 6.869 5.107 2.081 10.401 3.75 15.849 4.605.185.029.374.045.56.063.388.04.776.076 1.165.112.528.048 1.058.095 1.587.138.609.051 1.218.1 1.828.143.63.048 1.26.089 1.89.126.589.034 1.179.065 1.768.087.493 0 .985.022 1.479.022.487 0 .977-.005 1.464-.009.9-.004 1.803.009 2.703-.027.473-.02.944-.046 1.415-.073.686-.04 1.369-.087 2.054-.138.653-.049 1.308-.101 1.962-.157.546-.045 1.092-.094 1.638-.144.36-.035.722-.07 1.081-.108.093-.011.191-.034.283-.034 5.448-.855 10.743-2.524 15.851-4.605 2.877-1.173 10.832-3.288 11.696-6.869.382-1.59-.299-3.073-1.956-3.414z"/></svg>