<svg xmlns="http://www.w3.org/2000/svg" viewBox="0 0 144 144"><path d="M106.661 88.353c.188-.527.275-1.1.241-1.693 0 0 1.858-24.207 1.617-30.329-.242-6.125-1.974-10.174-2.216-10.759l-.028-.076c-.003-.011-.01-.017-.016-.024-.542-1.273-1.333-2.539-2.415-3.783-5.121-5.882-14.05-6.505-19.933-1.386 0 0-19.43 18.527-27.399 26.3-2.165 2.111-3.924 4.565-5.225 7.294-3.212 6.751-9.395 19.765-9.395 19.765L13.7 110.044c-1.326.882-2.215 2.433-2.215 4.212 0 2.755 2.111 4.987 4.715 4.987.4 0 .785-.054 1.155-.156.606-.166 31.062-14.301 31.062-14.301 1.056-.516 1.997-1.239 2.769-2.127l21.167-24.367 22.543-16.315 3.401 25.169c.026.479.139.932.308 1.354-16.032 1.581-28.363 10.978-28.363 22.366 0 12.496 14.83 22.627 33.124 22.627s33.123-10.131 33.123-22.627c0-11.737-13.082-21.384-29.828-22.513zM120.574 46.175c6.678-2.026 10.447-9.08 8.42-15.755-2.028-6.673-9.086-10.43-15.764-8.405-6.675 2.028-10.447 9.075-8.416 15.746 2.028 6.675 9.084 10.441 15.76 8.414z"/></svg>