<svg xmlns="http://www.w3.org/2000/svg" viewBox="0 0 144 144"><path d="M127.854 48.894c-3.121 0-5.651 2.493-5.651 5.574 0 3.083 2.53 5.575 5.651 5.575 3.12 0 5.653-2.493 5.653-5.575 0-3.081-2.533-5.574-5.653-5.574zM78.029 41.534c1.07-.047 3.551-.243 3.979-.291.14-.015.263-.038.387-.065.926-.2 1.309-.689 1.352-.741l.053-.107c.189-.645 1.134-3.896 1.016-4.681-.132-.884-.692-1.303-.716-1.32l-.112-.083-5.208.504-.047-.51c-.093-1.088-.259-2.198.132-3.256.26-.707.813-1.272 1.592-1.364.46-.055 6.895-.857 7.051-.89.18-.036.36-.072.508-.185.229-.176.406-.485.402-.775-.004-.271-.14-.577-.345-.745-.205-.165-.473-.214-.763-.262-.258-.036-1.955-.001-2.835.071-.82-4.336-4.359-12.63-16.094-10.551-12.165 2.158-8.362 17.699-7.313 20.09 3.029 6.911 15.549 5.409 16.961 5.161zm4.153-6.388l1.586-.175c.114.119.292.371.354.773.028.193-.066.72-.202 1.332l-1.955.128.217-2.058zm-.286 2.755l1.866-.12c-.19.781-.422 1.625-.616 2.282-.108.111-.476.424-1.211.493-.07.007-.206.015-.32.026l.281-2.681zm-2.456-2.448l2.029-.228-.213 2.026-1.886.119c.012-1.012.051-1.709.07-1.917zm-.069 2.607l1.817-.113-.28 2.686c-.473.036-1.178.078-1.816.118.012.008.279-2.6.279-2.691zm-10.172-5.473c.528-.08 1.072.081 1.518.359.281.178.519.42.687.707.138.235.229.497.265.768.145 1.16-.676 2.22-1.866 2.376-1.179.147-2.258-.668-2.412-1.833-.156-1.152.662-2.199 1.808-2.377z"/><path d="M102.624 98.532c-.544-1.378-2.131-2.066-3.529-1.528-.648.248-1.124.731-1.417 1.303-.493-.545-.999-1.069-1.488-1.534l-15.029-18.21s1.383-17.468 1.757-21.779c2.203-1.268 4.886-2.409 5.939-3.058 2.238-1.379 6.571-2.462 5.192-7.035-.914-3.035-4.68-2.876-7.194-2.876H63.141c-3.078-.034-5.941 1.295-7.905 3.519l-4.689-5.849c-1.159-1.865-.21-3.078 1.143-4.791.507-.638.503-1.542-.01-2.174 0 0-23.511-29.083-23.688-29.3-1.353-1.671-2.269-3.199-7.644 1.072-5.123 4.068-4.097 5.451-2.746 7.121.179.218 23.756 29.248 23.756 29.248.511.634 1.401.835 2.145.489 1.994-.926 3.4-1.572 4.989-.045l5.256 6.418c-.017.034-.046.057-.062.092l-7.336 15.09c-1.198 2.63-.857 6.498 1.807 7.683 2.664 1.182 6.416-1.097 8.009-4.669 0 0 1.566-3.789 2.306-6.089l.705 19.344c-.104.19-8.583 33.619-8.583 33.619l.001.002c-.145.062-.306.084-.447.155l-.006-.012-.116.063c-.042.021-.081.042-.12.064l-25.974 13.824.018.03c-.962.674-1.659 1.705-1.775 2.956-.213 2.279 1.485 4.297 3.795 4.505.658.061 1.274-.077 1.853-.295.025.084.012.169.044.251.546 1.377 2.136 2.063 3.531 1.523l31.556-12.181c1.396-.538 2.093-2.106 1.547-3.483-.507-1.274-1.897-1.91-3.208-1.582l12.724-25.768 13.577 12.666 17.107 29.77c1.001 1.883 3.275 2.789 5.44 2.322.398-.084.791-.214 1.173-.396 2.432-1.144 3.454-3.819 2.354-6.03 1.177-.64 1.758-2.028 1.258-3.296l-12.302-31.149z"/></svg>