<svg xmlns="http://www.w3.org/2000/svg" viewBox="0 0 144 144"><path d="M86.481 31.342c6.351-.745 10.897-6.442 10.134-12.722-.752-6.282-6.523-10.77-12.888-10.016-6.363.745-10.902 6.449-10.149 12.733.766 6.274 6.534 10.765 12.903 10.005zM42.113 51.093l-1.275 1.025c-1.911 1.388-2.322 4.045-.916 5.933.268.357.58.661.923.911 1.475 1.069 3.538 1.119 5.088-.005l3.713-2.597 4.115 2.877c.604.422 1.449.28 1.876-.316.428-.597.284-1.429-.32-1.853l-3.343-2.337 7.153-5.005 9.863-1.673-2.419 26.044L55.61 96.365l-14.581 26.033c-.989 2.216-.937 4.115.678 5.683.138.146.285.277.441.396 1.992 1.527 4.719 1.288 6.089-.536l30.52-45.242 13.785 7.593 3.098 19.206c.146 2.602 1.458 4.149 3.622 4.55.188.035.381.055.576.067 2.444.131 4.539-1.721 4.671-4.139l.264-23.033c-.015-1.315-.572-2.567-1.542-3.469L88.975 69.682c.248-1.754 3.43-19.224 3.671-21.823.233-2.529.307-5.17-.337-7.648-.396-1.526-1.403-2.864-2.592-3.885-2.212-1.901-6.849-3.113-9.765-3.023-1.484.046-3.021.191-4.455.602l-9.147 2.904-33.292-23.28 1.255-1.751c.384-.532.254-1.281-.287-1.658-.541-.378-1.298-.252-1.681.282l-1.256 1.751-4.099-2.867c-.604-.423-2.544-.15-2.544-.15s.383 1.896.988 2.319l4.1 2.866-1.323 1.844c-.384.536-.254 1.283.287 1.66.541.378 1.298.252 1.681-.284l1.323-1.844 31.644 22.126-2.187.695c-.002 0 .169-.055.22-.071-.08.025-.562.179-2.2.698-2.194.534-3.546 1.38-5.369 2.704l-9.33 7.501-33.182-23.203 1.255-1.751c.383-.534.253-1.281-.288-1.658-.541-.379-1.298-.251-1.682.283l-1.255 1.751-4.1-2.866c-.604-.424-2.544-.15-2.544-.15s.384 1.896.988 2.319l4.099 2.866-1.323 1.845c-.383.534-.253 1.281.288 1.66.542.378 1.298.251 1.681-.285l1.324-1.844 32.572 22.776z"/><path d="M61.179 38.447c.019-.006.017-.005 0 0zM140.973 111.332c-.688-.278-1.49-.295-2.192-.05-1.139.398-1.737 1.678-2.607 2.442-.934.818-2.15 1.605-3.445 1.605H62.66c-1.616 0-2.924 1.29-2.924 2.886s1.308 2.886 2.924 2.886h.875c.829 0 66.529-.007 67.463-.011 1.967-.011 3.975.177 5.894-.361 1.617-.452 3.01-1.59 3.943-2.948.621-.902 1.236-1.942 1.525-3.002.358-1.315-.002-2.885-1.387-3.447zM89.969 127.713c-.689-.278-1.49-.297-2.192-.05-1.14.398-1.737 1.678-2.608 2.442-.935.82-2.149 1.604-3.445 1.604H11.656c-1.616 0-2.924 1.292-2.924 2.888s1.308 2.888 2.924 2.888h.875c.829 0 66.529-.009 67.462-.015 1.968-.009 3.976.179 5.894-.359 1.617-.452 3.009-1.592 3.942-2.948.623-.902 1.238-1.942 1.526-3.002.359-1.316-.001-2.887-1.386-3.448z"/></svg>