<svg xmlns="http://www.w3.org/2000/svg" viewBox="0 0 144 144"><path d="M138.35 91.826l-22.835-22.334c-3.659-3.518-9.383-4.032-13.653-1.232L78.79 84.048l-16.061-.286-12.967-9.26 10.023-24.339c.459-2.194-.088-4.708-1.645-6.366-1.559-1.656-3.838-2.498-6.143-2.266l-22.286 4.6c-5.116-4.29-12.8-4.694-18.405-.576-7.343 5.381-7.936 16.164-.359 22.241 4.115 3.3 10.025 4.101 14.916 2.013 6.592-2.815 9.673-9.181 8.715-15.177l12.368-1.993-.42.584.062-.133-10.047 13.202-8.555 10.896c-3.75 4.611-3.055 11.264 1.574 15.055 10.447 8.559 23.695 13.254 37.39 13.254h1.522c7.939 0 15.661-2.512 21.984-7.154l17.802-13.959 21.142 16.854c1.301.908 5.86 3.244 9.224-.006 2.581-2.497 2.51-6.768-.274-9.406z"/></svg>