<svg xmlns="http://www.w3.org/2000/svg" viewBox="0 0 144 144"><path d="M113.403 80.892c-14.942 0-27.098 12.245-27.098 27.31 0 15.055 12.155 27.305 27.098 27.305 14.947 0 27.11-12.25 27.11-27.305.001-15.065-12.162-27.31-27.11-27.31zm0 49.584c-12.194 0-22.111-9.984-22.111-22.274 0-12.291 9.917-22.281 22.111-22.281 12.198 0 22.114 9.99 22.114 22.281.001 12.289-9.915 22.274-22.114 22.274zM31.601 80.892c-14.942 0-27.101 12.243-27.101 27.31 0 15.055 12.159 27.305 27.101 27.305 14.947 0 27.108-12.25 27.108-27.305-.001-15.067-12.162-27.31-27.108-27.31zm0 49.584c-12.197 0-22.113-9.984-22.113-22.274 0-12.292 9.916-22.281 22.113-22.281 12.195 0 22.112 9.989 22.112 22.281 0 12.289-9.918 22.274-22.112 22.274z"/><path d="M71.221 69.712l17.684-11.454 1.902 7.944c.289 1.379 1.12 2.585 2.297 3.348l14.581 8.864c.775.501 1.636.734 2.487.729 1.484-.012 2.93-.755 3.785-2.104 1.358-2.126.747-4.958-1.365-6.324l-11.355-9.412-1.17-16.476c-.012-.057-.037-.109-.051-.166-.128-1.583-.678-3.216-1.81-4.877-4.222-6.194-12.884-7.946-19.358-3.902L53.079 55.009c-4.675 2.918-6.191 8.668-3.794 13.347.399 1.136 1.021 2.208 1.901 3.132l17.486 18.406-5.198 25.845c-.739 2.991 1.072 6.022 4.042 6.768.495.126.996.177 1.484.165 2.429-.064 4.62-1.742 5.231-4.234l8.483-28.903c.563-2.275-.075-4.682-1.686-6.373l-9.807-13.45zM105.881 37.393c6.821.223 12.535-5.167 12.755-12.042.221-6.875-5.133-12.62-11.954-12.842-6.821-.224-12.534 5.163-12.755 12.037-.221 6.876 5.134 12.626 11.954 12.847z"/></svg>