<svg xmlns="http://www.w3.org/2000/svg" viewBox="0 0 144 144"><path d="M68.136 32.665c6.325.242 11.663-4.819 11.896-11.314.239-6.493-4.709-11.954-11.054-12.191-6.341-.249-11.668 4.83-11.911 11.321-.232 6.487 4.716 11.953 11.069 12.184zM111.919 26.507c-1.65-1.324-4.04-1.025-5.334.667L96.41 40.976 83.167 36.01l-.726-.232c-3.972-1.274-8.14-1.003-12.228-.672-6.034.489-10.813 3.67-14.693 8.264-2.153 2.549-4.349 5.131-6.147 7.96-.194.304-16.775 2.255-17.005 2.26-2.099.045-3.765 1.825-3.719 3.972.044 2.15 1.782 3.854 3.88 3.808l16.611-.413c1.891-.047 3.696-.825 5.048-2.18l8.404-8.536 6.733 25.209-7.466 29.74s-22.109 22.351-22.083 22.371c-.533.975-.703 2.15-.297 3.283.737 2.061 2.964 3.119 4.978 2.364.789-.296 1.428-.826 1.88-1.513l24.558-21.25c1.108-.959 1.952-2.194 2.452-3.589 2.209-6.167 8.47-23.636 8.526-23.659l5.501 19.828s-4.767 29.737-4.736 29.751c-.255 1.087-.105 2.265.584 3.243 1.254 1.777 3.68 2.178 5.417.894.682-.504 1.155-1.192 1.41-1.976l8.788-30.056c.393-1.344.458-2.768.186-4.144l-6.332-32.162-7.498-20.723 11.51 1.941c2.472.417 4.933-.676 6.3-2.825 3.393-5.33 9.468-14.868 9.569-15.002 1.293-1.691 1.001-4.136-.653-5.459z"/></svg>