<svg xmlns="http://www.w3.org/2000/svg" viewBox="0 0 144 144"><path d="M143.515 36.948c-.389-18.538-10.555-34.275-22.254-33.405-11.274.841-19.791 16.877-19.429 34.216.361 17.332 8.475 31.641 19.74 32.011 11.683.384 22.334-14.276 21.943-32.822zm-23.31 26.864c-9.031-.206-15.587-11.935-15.885-26.221-.301-14.288 6.569-27.431 15.614-28.012 9.313-.604 17.352 12.277 17.671 27.354.316 15.078-8.093 27.099-17.4 26.879z"/><path d="M118.787 17.766c-6.46.333-11.406 9.672-11.192 19.868.217 10.21 4.931 18.531 11.386 18.608 6.592.071 12.505-8.462 12.278-19.069-.223-10.608-5.876-19.747-12.472-19.407zm-.532 32.43c-4.525 0-7.85-5.828-7.994-12.999-.152-7.178 3.33-13.706 7.854-13.895 4.592-.199 8.504 6.188 8.657 13.559.157 7.373-3.934 13.341-8.517 13.335z"/><path d="M117.752 30.999c-2.015.059-3.584 2.988-3.516 6.238.07 3.242 1.561 5.855 3.581 5.833 2.023-.018 3.823-2.698 3.755-5.984-.072-3.281-1.79-6.146-3.82-6.087zM81.48 33.861c-.399-.98-1.17-1.804-2.256-2.182-1.947-.681-4.05.301-4.822 2.174-.666-.001-1.324-.003-2.001-.005l-1.915-1.83-6.173-.821s-1.245.033-1.249.915c-.013.645.323.953.731 1.058 0 0 .764.178 0 .516-.29.121-.932.121-.932.817 0 .668.455 1.051 1.72 1.051h9.064l-4.732 11.088-13.839-4.781c-2.974-1.062-13.443-2.094-18.787-1.153s-8.125 1.959-10.805 7.464l-4.755 11.665c-.948 2.11-1.068 5.225 1.696 7.029l10.586 7.303-1.956 8.291-2.744 24.133c-.036.07-8.399 25.521-8.399 25.521-1.05 2.358.03 5.115 2.414 6.156 2.384 1.04 5.168-.031 6.219-2.39l10.583-23.187c.563-1.163.969-2.392 1.212-3.657l3.837-17.412 5.295 17.009-.718 26.026c-.104 2.576 1.922 4.75 4.525 4.853 2.603.103 4.798-1.903 4.901-4.481l3.067-25.342c.096-1.355.013-2.719-.247-4.052l-5.41-30.068.353-22.254 13.624 3.238c2.003.531 4.081-.556 4.767-2.496l7.242-17.513c.117-.328.117-.659.142-.99h8.969l1.836-.851-1.836-.856c-.485.001-4.188.013-9.207.014zM29.84 61.952l3.336-5.788.308 9.83-3.644-4.042z"/><path d="M48.234 38.1c6.234-1.113 10.386-7.029 9.252-13.209-1.123-6.186-7.1-10.297-13.349-9.172-6.249 1.113-10.392 7.036-9.268 13.22 1.137 6.176 7.112 10.289 13.365 9.161z"/></svg>