<svg xmlns="http://www.w3.org/2000/svg" viewBox="0 0 144 144"><path d="M72.848 88.366c.816-.505 1.651-.952 2.501-1.362-5.901-4.588-16.969-13.849-16.969-13.849L79.19 64.6l.846 20.674c3.89-1.021 7.919-1.112 11.774-.363.273-4.608.565-9.871.834-15.397.521-10.661 3.567-18.582-.226-25.721-3.587-6.751-12.841-10.388-21.932-5.258-10.32 5.823-17.102 10.285-23.532 14.177-3.857 2.333-9.229 5.795-11.56 9.096-4.898 6.932-5.415 14.379-.137 19.928 3.268 3.436 24.055 14.707 28.245 16.964 2-4.089 5.135-7.711 9.346-10.334zM96.085 34.333c7.582-.782 13.096-7.403 12.28-14.789-.805-7.39-7.621-12.736-15.219-11.946-7.602.777-13.1 7.411-12.3 14.795.815 7.383 7.63 12.742 15.239 11.94z"/><path d="M105.054 98.085c-6.473-9.818-19.909-12.682-30.013-6.389-10.102 6.29-13.046 19.351-6.572 29.172 6.472 9.82 19.91 12.68 30.013 6.389 10.102-6.291 13.046-19.354 6.572-29.172zm-14.061 17.811c-3.648 2.272-8.5 1.239-10.837-2.307-2.337-3.545-1.275-8.26 2.374-10.531 3.648-2.272 8.5-1.24 10.837 2.305 2.337 3.546 1.276 8.263-2.374 10.533zM65.044 123c-.123-.188-.222-.387-.34-.579.105 5.846.193 10.68.213 11.347.082 2.926.826 5.63 4.311 6.541.239.061.475.109.716.136 2.903.355 5.707-1.563 6.468-4.56l.223-3.354c-4.603-1.905-8.686-5.128-11.591-9.531z"/></svg>