<svg xmlns="http://www.w3.org/2000/svg" viewBox="0 0 144 144"><path d="M83.066 26.75c5.765-1.832 8.946-7.962 7.085-13.684-1.854-5.729-8.044-8.874-13.82-7.028-5.779 1.835-8.949 7.974-7.099 13.698 1.864 5.718 8.051 8.872 13.834 7.014zM127.858 131.306h-7.861l-.883-67.951c.001-.007 0-.015.001-.023.011-.082.011-.167.012-.251 0-.057.006-.114.004-.169-.005-.059-.021-.117-.028-.176-.013-.08-.022-.163-.045-.24-.001-.008-.001-.017-.004-.025l-9.67-33.244c-.322-1.112-1.497-1.75-2.619-1.434-1.123.322-1.771 1.483-1.447 2.596l6.048 20.792c-.375-.045-.761-.047-1.151.035l-3.76.624-4.155-6.98c1.084-.732 1.715-2.031 1.499-3.4-.299-1.896-2.095-3.194-4.006-2.901l-1.171.127-4.021-6.752c-.594-.995-1.889-1.327-2.898-.739-1.007.586-1.34 1.874-.746 2.871l3.046 5.114-6.061.649-2.676-4.904c-.943-1.517-1.962-2.46-2.979-3.003-.848-.595-1.957-1.051-3.424-1.327C71.96 29.29 65.3 33.771 63.982 40.607c-4.086 21.186-3.125 24.118-3.087 24.775.012.194.041.372.061.558-.083.37-.132.771-.137 1.215l1.296 24.092-15.405 18.325c-1.166 1.776-1.066 4.52.223 6.125.229.285.484.492.748.67H42.59c-.972-1.086-2.033-2.2-3.197-3.296-3.567-3.469-5.855-4.289-7.527-4.877-1.778-.794-4.284-1.201-7.462-1.201-6.967 0-12.855 7.195-12.855 15.716 0 .609.039 1.208.098 1.795l-.142-.141s.776 14.133 14.208 14.133h102.146c2.005 0 3.63-1.61 3.63-3.594-.001-1.988-1.626-3.596-3.631-3.596zM98.134 46.117l3.848 6.462-6.495 1.074-3.296-6.042 5.943-1.494zm-55.411 85.127h-18.32c-3.606 0-6.539-3.83-6.539-8.535 0-4.95 3.116-9.457 6.539-9.457 3.088 0 4.421.449 4.853.646l.462.176c1.313.464 2.666.95 5.284 3.499 3.14 2.956 5.582 6.158 7.194 8.273l.394.52c.753.905 1.281 2.064 1.281 2.825-.001 1.233-.819 2.053-1.148 2.053zm4.827-8.759l-.314-.41c-.113-.146-.239-.311-.359-.47H57.34c1.459 0 2.646-1.171 2.646-2.619 0-1.446-1.186-2.619-2.646-2.619h-6.915c.35-.236.677-.558.954-.979L72.092 97.28c.941-1.029 1.467-2.361 1.484-3.747l.308-14.709 7.351 13.918-7.05 24.725c-.643 1.908-.102 4.007 1.196 5.231H47.717c-.057-.071-.12-.155-.167-.213zm2.371 8.821c.167-.681.266-1.388.266-2.115 0-.431-.039-.846-.102-1.251h33.753c1.46 0 2.645-1.174 2.645-2.62 0-1.449-1.185-2.621-2.645-2.621h-3.562c.508-.48.924-1.107 1.181-1.87l11.341-26.115c.563-1.415.531-2.995-.088-4.385l-13.17-26.25c-.028-.065-.065-.119-.096-.181.139-2.711.512-7.274 2.08-13.983l8.464 11.186c.89 1.431 2.479 2.25 4.134 2.192.268-.008.535-.04.804-.096l11.297-3.496 2.479 4.161c.081.136.183.251.287.36l6.02 67.083H49.921zm63.265-67.648c-.042-.498-.267-.934-.594-1.268-.046-.226-.12-.45-.245-.66l-1.974-3.314 1.295-.402c.567-.117 1.06-.377 1.479-.714l1.792 6.155.297 23.039-2.05-22.836z"/></svg>