<svg xmlns="http://www.w3.org/2000/svg" viewBox="0 0 144 144"><path d="M70.899 29.376c6.52-.887 11.106-6.935 10.213-13.507-.883-6.572-6.899-11.177-13.439-10.279-6.539.885-11.111 6.944-10.233 13.516.893 6.568 6.912 11.177 13.459 10.27zM124.379 130.232h-14.935c1.209-1.765 1.926-3.838 1.926-6.039 0-4.704-3.616-8.501-5.064-9.813l-.603-.601c-2.138-2.122-4.953-4.917-8.417-7.899l-4.814-20.207 11.617-36.249c.406-1.268-.287-2.625-1.548-3.034-1.257-.406-2.609.288-3.016 1.555L87.701 84.838c-.017.052-.02.104-.032.156-.021.085-.044.169-.055.256-.013.08-.013.16-.016.238-.004.076-.007.15-.004.229.007.09.021.181.037.268.009.052.009.102.021.153l3.551 14.903c-.375-.274-.737-.554-1.123-.827-5.593-4.118-9.457-5.598-12.374-6.458l2.15-8.015c.46-2.85-.874-5.688-3.351-7.143l-21.364-8.379c2.895-5.958 6.371-12.771 8.82-18.183l4.516 6.195c.762.821 1.773 1.348 2.865 1.502.275.041.557.055.838.044l18.687 1.381c2.238-.073 3.996-1.955 3.923-4.206-.074-2.249-1.946-4.014-4.183-3.943L74.07 49.948 66.493 35.33c-.003-.005-.01-.007-.014-.013-1.019-2.23-2.868-3.998-5.72-4.952-2.555-.855-5.186-.846-7.587-.141-6.776 2.823-9.007 10.021-9.007 10.021l-.005-.002c-1.193 4.301-5.745 15.205-9.704 24.39-2.512 5.833-1.354 12.536 4.103 15.744.803.473 1.639.821 2.491 1.079.051.031.099.069.154.101l26.341 6.366-.619 3.848c-1.448-.085-2.992-.131-4.654-.131-5.835 0-11.228 2.285-15.337 5.96l-6.189-7.663 3.515.757c.168.038.336.056.502.056 1.107 0 2.101-.775 2.343-1.905.278-1.302-.546-2.583-1.841-2.862l-17.746-3.818c-1.296-.279-2.567.55-2.845 1.851-.278 1.302.546 2.583 1.841 2.862l6.754 1.452 10.39 12.863c-2.753 3.733-4.412 8.271-4.412 13.119 0 6.34 3.036 12.022 7.815 15.923H26.621c-2.271 0-4.111 1.851-4.111 4.133s1.841 4.133 4.111 4.133h97.758c2.27 0 4.11-1.851 4.11-4.133s-1.841-4.136-4.11-4.136zm-25.146-1.599H62.271c-8.893 0-16.121-6.428-16.121-14.323 0-8.382 7.53-15.735 16.121-15.735 1.312 0 2.486.03 3.547.08l-2.256 14.041c-.389 2.41 1.24 4.68 3.637 5.071.237.039.476.059.711.059 2.117 0 3.983-1.543 4.335-3.711l3.664-13.659c2.487.748 5.486 1.966 10.143 5.392 6.503 4.625 11.496 9.59 14.801 12.87l.715.708c1.711 1.552 2.899 3.513 2.899 4.769 0 2.324-2.493 4.438-5.234 4.438z"/></svg>