<svg xmlns="http://www.w3.org/2000/svg" viewBox="0 0 144 144"><path d="M119.3 117.649c-1.813-.256-2.438 1.436-2.41 2.571.021 1.131-.303 2.049-.303 2.049-1.075 2.018-3.354.653-3.96.019-.53-.558-11.98-17.69-22.347-33.249.935-1.848.579-4.132-1.088-5.496l-12.149-16.42c-3.889-6.168-7.081-11.222-10.97-17.389-1.873-2.971-3.332-6.318-5.882-8.802-4.347-4.23-10.629-5.266-15.051-1.12-3.735 3.503-6.206 8.765-8.648 13.196-2.699 4.896-5.208 9.891-7.891 14.794-1.455 2.66-2.897 5.328-4.269 8.033-3.174 6.262-2.344 13.729 3.482 17.635.856.575 1.76 1.018 2.686 1.358.055.038.106.084.164.121l13.104 3.058-1.751 3.348-3.572 6.823-7.282 13.912c-1.254 2.39-.334 5.341 2.052 6.596.236.123.479.229.727.312 2.227.744 4.731-.217 5.859-2.364l8.629-13.02 4.234-6.385 4.217-6.36 2.862.625-.943 4.201-1.688 7.516-3.443 15.326c-.594 2.632 1.057 5.245 3.686 5.838.259.06.521.097.781.112 2.344.144 4.515-1.432 5.05-3.798l4.976-14.812 2.441-7.264 2.92-8.689c.701-3.11-.583-6.329-3.23-8.101l-21.646-11.97c3.604-6.374 6.889-10.47 9.964-16.271 0 0 8.265 8.786 9.065 9.709.201.235.426.452.668.648L83.51 90.524c.87.711 1.928.989 2.969.961 7.954 12.384 16.662 25.811 16.85 26.143.617 1.104 5.042 9.859 10.188 11.108 5.148 1.25 8.375-1.996 8.888-5.87.502-3.875-1.291-4.962-3.105-5.217zM66.539 37.961c7.279-.538 12.764-6.892 12.219-14.2-.537-7.304-6.89-12.79-14.19-12.243-7.299.534-12.769 6.906-12.238 14.209.546 7.302 6.9 12.791 14.209 12.234z"/></svg>