<svg xmlns="http://www.w3.org/2000/svg" viewBox="0 0 144 144"><g fill-rule="evenodd" clip-rule="evenodd"><path d="M78.339 31.688c1.011.536 2.033 1.049 3.066 1.542 1.349.643 2.681 1.323 4.07 1.88.819.329 1.659.603 2.5.875.98.318 1.938.908 3.014.514.954-.35 1.652-1.153 2.018-2.064.133-.325.178-.718.209-1.141.561.221 1.221.449 2.031.622.637 1.307 1.541 2.153 2.215 2.583.811.507 1.739.821 2.394.832.21 0 .394-.03.532-.096.636-.279.843-1.285 1.204-4.39.091-.738.168-1.438.24-1.692.152-.57-.027-.918-.22-1.116-.431-.452-1.136-.332-1.362-.288-2.535.936-5.669-.068-7.099-.641-.02-.833.002-1.667.188-2.428.01-.034.019-.065.028-.097.074-.271.173-.526.288-.781.156-.306.277-.657.563-.87 1.05-.779 2.997-1.056 4.524-.532.661.226 1.04-.348 1.245-.84.118-3.729-1.623-14.843-15.398-14.031-15.972.938-11.796 17.792-9.916 19.747.981 1.018 2.42 1.756 3.666 2.412zm21.487 4.467c-.368-.024-1.319-.252-2.261-1.039-.302-.254-.615-.614-.899-1.038.307.035.563.094.893.103.838.016 1.76-.104 2.696-.316-.116.906-.267 1.91-.429 2.29zm.752-5.273c.025-.004.053-.014.091-.011-.09.331-.162.969-.254 1.755-1.589.433-3.088.427-4.355.226-.176-.512-.309-1.068-.344-1.75 1.522.288 3.265.364 4.862-.22zm-6.058-.064c-.006.666.118 1.215.248 1.747-.604-.168-1.092-.353-1.49-.522-.018-.53-.044-1.081-.083-1.655.388.144.82.292 1.325.43zm-11.01-4.491c.157.057.32.106.495.111.034.002.069-.016.104-.018.971.231 1.712 1.035 1.732 2.066.014 1.204-.958 2.197-2.205 2.221-1.232.016-2.25-.943-2.271-2.154-.024-1.196.944-2.176 2.145-2.226zM111.377 131.278l-4.563-30.066c-.341-1.212-1.1-2.294-2.168-3.093L83.707 79.517l.837-3.815.295-1.203-.029-.012.48-2.192 12.17 6.123c1.729 1.529 4.396 1.396 5.952-.293.354-.382.622-.818.804-1.271.616-1.545.229-3.38-1.104-4.563l-15.77-9.919 1.396-5.806c.663-.198 1.299-.463 1.857-.877 3.604-2.678 3.318-8.998-.64-14.116-2.118-2.737-4.855-4.54-7.498-5.248-2.809-1.346-6.854-1.917-11.264-1.307-7.726 1.069-13.507 5.277-12.912 9.399.004.03.024.055.029.084-4.385 2.995-7.477 5.195-7.477 5.195l.036-.024c-.568.46-1.038.982-1.335 1.778l-1.251 9.336c-5.526.385-11.937 4.059-12.354 6.901-.438 2.953 5.077 8.554 10.476 10.243.408 1.123 1.251 2.084 2.482 2.521.501.18 1.002.258 1.503.255 1.711-.021 3.301-1.059 3.917-2.724l.066-.273c1.59-.461 2.652-.968 2.64-.98 3.174-1.421 5.698-3.457 5.956-5.199.306-2.071-1.54-4.067-2.883-5.432-.749-.761-1.578-1.439-2.444-2.069l1.477-6.181 5.588-3.663c.727.708 1.565 1.356 2.48 1.952l-1.938 14.771.047.026-1.305 6.206-16.746 26.45-24.827-.545c-2.511-.205-4.702 1.685-4.904 4.213-.201 2.532 1.667 4.747 4.173 4.95l28.281 3.135c.173.012.343.02.514.02 2.124 0 4.125-.959 5.312-2.577L74.279 90.51l20.416 15.48 7.689 27.361c.533 1.898 2.423 3.161 4.49 3.161.38 0 .766-.043 1.149-.131 2.486-.571 3.985-2.857 3.354-5.103z"/></g></svg>