<svg xmlns="http://www.w3.org/2000/svg" viewBox="0 0 144 144"><path d="M114.066 32.074c-2.683-4.038-8.208-5.188-12.341-2.569-4.134 2.618-5.312 8.013-2.63 12.051 2.68 4.036 8.204 5.186 12.34 2.568 4.135-2.62 5.311-8.015 2.631-12.05zm-5.976 7.012c-1.286.813-3.004.455-3.836-.799-.834-1.255-.468-2.932.818-3.747 1.285-.813 3.002-.455 3.835.8.835 1.255.468 2.932-.817 3.746zM57.025 27.531c5.568 2.947 12.528.926 15.543-4.507 3.018-5.439.952-12.236-4.618-15.185-5.57-2.945-12.522-.919-15.54 4.516-3.015 5.435-.954 12.231 4.615 15.176zM94.92 34.385c.037-.183.12-.347.168-.525l-6.725.249c-.133.01-25.241-2.512-26.122-2.652-5.138-.805-10.734 1.948-12.072 6.892-2.317 8.563 2.195 27.596 2.195 27.596s-1.783 12.869-1.766 16.379c.017 3.394 5.364 19.655 6.24 22.979l-.493 31.021c.172 2.439 2.383 4.309 4.935 4.18 1.912-.097 3.473-1.285 4.068-2.901.2-.546.29-1.135.247-1.748l3.331-27.259c.263-2.146.397-4.292.407-6.45.036-7.431.135-25.194.135-25.194l2.221-23.272c-.097-2.908.028-12.069.028-12.069l16.106.552c.058.005.112.021.171.023.286.01.542-.087.813-.131.054-.003.099.021.153.017.014 0 .024-.003.038-.007l6.63-.702c-.96-2.191-1.23-4.603-.708-6.978z"/></svg>