<svg xmlns="http://www.w3.org/2000/svg" viewBox="0 0 144 144"><path d="M55.974 27.281c4.943 3.981 12.19 3.22 16.188-1.695 4.001-4.917 3.239-12.129-1.704-16.108-4.942-3.979-12.187-3.214-16.187 1.703-3.997 4.913-3.238 12.124 1.703 16.1zM120.561 121.398c-2.718-.218-5.593 2.717-6.935 4.297-.404.477-1.144.438-1.502-.075L78.951 78.065c1.197-1.297 1.458-3.24.43-4.768l-8.797-13.626c-.655-1.646-1.31-3.292-1.965-4.939-1.376-3.459-2.751-6.918-4.128-10.377-.796-2-1.576-4.013-2.312-6.037-.636-1.746-1.26-3.535-2.43-5.014-1.256-1.588-3.005-2.471-4.943-2.982-6.87-1.814-13.922 2.256-15.742 9.09l-6.142 32.124c-.106.846-.147 1.684-.132 2.496-.106 2.27.941 6.368 1.21 7.534l9.436 21.221.097 30.773c-.028 2.5 2.03 4.584 4.595 4.653 1.921.055 3.581-1.033 4.309-2.632.244-.54.382-1.135.39-1.763l2.083-29.398c.019-.168.029-.338.032-.509l-3.62-31.061 5.961-17.108 5.042 8.479 10.529 13.422c1.013 1.509 2.896 2.087 4.542 1.523.044-.015.084-.047.129-.063l34.831 50.219c.794 1.146 2.197 1.745 3.582 1.546 7.422-1.067 8.151-4.686 8.151-4.686.552-4.076-3.528-4.784-3.528-4.784z"/></svg>