<svg xmlns="http://www.w3.org/2000/svg" viewBox="0 0 144 144"><path d="M79.933 31.25c6.452.43 12.028-4.47 12.454-10.943.429-6.473-4.448-12.07-10.903-12.5-6.454-.428-12.03 4.472-12.459 10.947-.429 6.471 4.454 12.067 10.908 12.496z"/><path d="M117.553 51.633c-.243-.001-19.113-1.812-19.113-1.812-2.699-2.724-6.74-7.449-9.255-10.438-1.836-2.184-4.099-3.951-6.688-5.137-1.252-.572-2.593-1.084-3.973-1.309-1.482-.243-2.926-.004-4.409.064-1.024.048-2.048.137-3.069.271-2.089.271-21.162 4.247-21.162 4.247S37.721 24.945 36.033 23.201c3.032-1.546 5.13-4.67 5.13-8.317 0-5.173-4.182-9.367-9.338-9.367-5.156 0-9.337 4.194-9.337 9.367 0 4.14 2.692 7.609 6.403 8.849-1.104 1.719-1.01 3.999.466 5.537 0 0 14.449 17.122 14.545 17.209.457.51 1.519 1.142 3.023 1.336.22.028 15.244 1.107 15.244 1.107l1.545 11.887c.523 2.488.477 5.063-.133 7.531l-.324 1.304c-.213.862-.494 1.705-.841 2.522l-4.797 14.215s-26.403-4.688-26.757-4.706c-2.845-.157-5.174 2.281-5.192 5.139-.018 2.465 1.725 4.442 4.033 5.08l26.957 7.917c2.29.722 7.201 2.711 10.267.447 1.171-.863 1.968-1.98 2.425-3.185l.048-.141c.016-.046.034-.093.048-.143l1.412-4.185.786-3.464 2.664 15.691-24.538 26.229c-.391.449-.72.967-.964 1.546-1.216 2.897.139 6.234 3.027 7.454 2.21.932 4.659.337 6.255-1.268 0 0 27.865-25.228 27.931-25.299 2.361-2.61 2.6-4.096 2.614-6.008.039-4.632-.446-20.759-.548-24.064-.011-.401-.041-.792-.086-1.189l-1.047-9.111c-.154-1.354-.117-2.722.114-4.067L89.775 57.3s4.445 2.564 4.645 2.682c1.202.648 1.607 1.01 3.217 1.014l19.869-1.377c2.196.011 3.988-1.764 4.003-3.971.011-2.204-1.76-4.002-3.956-4.015z"/></svg>