<svg xmlns="http://www.w3.org/2000/svg" viewBox="0 0 144 144"><path d="M141.39 31.198L24.463 22.482 2.487 33.262l24.591 22.21L2.975 82.29l33.817-1.479L73.49 65.145l.112 15.85c-1.969.593-4.697 2.092-5.543 2.577.001-.018.001-.033.003-.048l-17.125 8.26-26.302 4.388c-2.179.32-3.715 2.432-3.431 4.713.211 1.707 1.382 3.026 2.87 3.448.502.143 1.04.183 1.586.101l26.193-2.31c.158-.026.413-.068.571-.096l21.29-5.242.074 10.353c.006.909.625 1.694 1.493 1.892l39.957 9.109c.595.332 1.263.496 1.929.439l16.943 3.863c.139.033.278.048.416.048.635 0 1.238-.324 1.597-.881.435-.679.415-1.563-.052-2.22l-20.909-29.431.65-2.646c.009-.49.26-1.709.101-3.044-.726-6.112-6.013-10.479-11.945-10.067l-.197-.276L91.41 57.494l50.561-21.585c2.341-.912 1.907-4.425-.581-4.711zm-27.441 63.698l16.064 22.61-9.725-2.216c.05-.843-.168-1.707-.728-2.416l-7.605-9.871 1.994-8.107zm-10.135-.532l-.534 5.656c-.194 2.067.416 4.129 1.704 5.736l5.912 7.393-33.301-7.592-.069-9.71 1.24-.305 25.048-1.178zm-4.026-19.329L77.416 80.16l-.119-16.64 10.467-4.469 12.024 15.984z"/><path d="M109.679 64.955c-1.647 5.441 1.332 11.215 6.65 12.898 5.32 1.684 10.968-1.362 12.614-6.805 1.646-5.44-1.336-11.21-6.655-12.894-5.318-1.682-10.966 1.359-12.609 6.801z"/></svg>