<svg xmlns="http://www.w3.org/2000/svg" viewBox="0 0 144 144"><path d="M49.898 70.02c.108.01.218.015.324.019 4.67.161 8.594-3.344 8.761-7.833L60.5 48.747s.63-10.233 4.972-13.72c3.198-2.567 1.847-10.379-13.066-9.107-6.405.545-8.125 6.764-8.577 9.557-.116.494-.194 1.005-.211 1.53l-1.557 24.619c-.163 4.382 3.316 8.078 7.837 8.394z"/><path d="M108.315 47.969c-1.243-.022-2.268.925-2.293 2.117l-.141 13.079-19.558-7.123 1.936-8.483c.98-6.213-3.486-12.011-9.941-12.952-6.471-.941-12.512 3.331-13.492 9.544l-3.86 32.337-10.236 26.164-17.084 22.788c-1.822 2.224-1.422 5.444.895 7.194.976.74 2.141 1.099 3.296 1.099 1.581 0 3.142-.669 4.198-1.954l18.771-22.401c.298-.363.55-.758.752-1.181l11.233-17.979 13.982 18.039 6.6 24.793c.611 2.077 2.579 3.435 4.722 3.435.441 0 .889-.059 1.335-.178 2.61-.707 4.126-3.311 3.391-5.815l-5.292-25.97c-.15-.508-.373-.992-.668-1.437l-14.968-27.6 2.172-9.53 19.779 5.453c.656.197 1.316.235 1.947.144l-.674 62.697c-.025.855.545 1.552 1.274 1.557.731.005 1.347-.685 1.372-1.537l2.752-84.1c.027-1.191-.957-2.176-2.2-2.2zM79.041 32.111c6.421 1.424 12.833-2.416 14.315-8.584 1.483-6.167-2.524-12.313-8.945-13.737-6.419-1.424-12.831 2.413-14.311 8.579-1.486 6.167 2.521 12.318 8.941 13.742z"/></svg>