<svg xmlns="http://www.w3.org/2000/svg" viewBox="0 0 144 144"><path d="M72.703 23.208c4.014-3.554 4.329-9.621.7-13.555-3.628-3.93-9.818-4.232-13.832-.68-4.012 3.553-4.331 9.618-.704 13.55 3.63 3.932 9.824 4.237 13.836.685zM138.945 58.122c-3.688-5.566-7.342-11.154-10.951-16.772-.399-.623-.562-1.473-.597-2.225-.083-1.796-.605-7.176-.897-8.067h-.871c-1.668 1.892-3.316 3.801-5.018 5.664-.324.355-2.092.749-2.092.749L88.626 67.452s-9.539-.003-21.105-.007l-1.406-2.204c.021-.062.064-.11.082-.175l1.535-6.36 8.102 3.4c.664.296 1.365.379 2.033.282 1.163-.172 2.215-.9 2.735-2.02.829-1.771.036-3.865-1.774-4.674l-9.383-4.084 2.709-11.222c1.487-5.73-1.155-10.961-6.946-12.125-5.791-1.16-12.359 3.177-12.965 9.061-1.616 15.704-3.1 23.886-3.1 23.886-.583 2.246-.182 4.463.93 6.23-5.842-.002-11.283-.002-15.405-.002-1.499 0-3.005.015-4.496.155-5.12.484-8.479 3.455-10.778 7.69-4.45 8.2-8.801 16.45-13.204 24.675-.215.4-1.421 2.088-1.689 2.462v.286c5.227-.087 10.57-3.419 14.439-6.734 4.339-3.716 9.691-16.33 9.907-16.836 0 1.659-1.006 10.863-1.609 16.224-2.412 5.581-5.459 12.631-6.454 14.965-.416.976-.697 2.12-.629 3.162.273 4.173 1.784 13.624 2.114 17.398.071.8.102 1.604.141 2.407.122 2.442 2.143 4.245 4.666 4.156 2.494-.089 4.471-2.074 4.268-4.528-.242-2.932-1.61-19.153-1.61-19.153s4.703-8.546 8.229-14.466l2.042.011c-.998 4.658-2.403 11.218-2.482 12.742-.053 1.016.101 2.11.454 3.064 1.819 4.926 5.377 13.093 7.093 17.521.776 2.005 2.559 3.146 4.618 3.021 1.87-.114 3.663-1.464 3.994-3.326.188-1.048.078-2.23-.217-3.265-.541-1.906-6.093-16.879-6.093-16.879s2.842-6.628 5.489-12.812l9.017.046-2.36 8.205c-.821 2.442.534 5.075 3.026 5.879.417.135.84.212 1.259.23 2.081.1 4.061-1.158 4.742-3.191L72.82 99.48l5.762.029c2.516 5.877 5.058 11.804 5.058 11.804s-6.043 15.796-6.585 17.703c-.295 1.035-.405 2.217-.218 3.268.332 1.859 2.124 3.21 3.995 3.325 2.059.124 3.841-1.018 4.617-3.022 1.716-4.427 5.766-13.42 7.584-18.346.353-.955.507-2.05.453-3.066-.073-1.402-1.269-7.073-2.236-11.598l2.487.011c3.419 5.813 7.539 13.301 7.539 13.301s-1.288 17.154-1.53 20.087c-.203 2.452 1.773 4.438 4.269 4.526 2.522.091 4.543-1.712 4.664-4.155.04-.802 1.903-16.564 2.176-20.738.068-1.042-.213-2.186-.629-3.164-.75-1.759-2.67-6.207-4.604-10.681 2.151-4.562 12.638-26.733 17.427-35.415.066-.121.173-.22.357-.45 1.299 1.143 2.577 2.268 3.856 3.389.903.79 1.776 1.617 2.722 2.354 1.997 1.554 4.239 2.212 6.626 1.047 2.493-1.217 3.716-3.329 3.895-6.069.132-2.031-.438-3.804-1.56-5.498z"/></svg>