<svg xmlns="http://www.w3.org/2000/svg" viewBox="0 0 144 144"><path d="M67.472 29.082c5.9-1.063 9.828-6.721 8.755-12.636-1.06-5.919-6.721-9.845-12.63-8.77-5.917 1.059-9.836 6.73-8.774 12.645 1.073 5.911 6.728 9.844 12.649 8.761zM114.514 71.672c0-4.404-9.561-7.047-21.063-8.557-2.233-7.122-6.556-20.982-6.574-21.655 6.1 2.21 14.777 5.536 14.918 5.596.667.283 2.696.662 4.792-.35 2.095-1.013 2.942-3.742 1.878-6.274 0 0-8.301-17.745-8.401-17.981-.896-2.132-3.352-3.133-5.482-2.235-2.129.896-3.129 3.353-2.231 5.484l5.132 10.455s-4.991-2.548-8.14-3.936c-3.771-1.661-7.928-2.24-11.998-1.594-3.273.519-7.305 1.363-11.019 2.696-4.626 1.663-8.215 5.244-10.163 9.664-.622 1.412-3.002 10.396-3.002 10.396l-5.804-10.493c-1.235-1.955-3.821-2.539-5.774-1.305-1.955 1.236-2.538 3.823-1.304 5.777.103.162 5.632 9.731 8.396 14.517C32.363 62.9 14.49 65.644 14.49 71.672c0 8.155 32.714 10.309 50.012 10.309.667 0 1.395-.01 2.105-.016l-2.938 22.619-8.463 27.608c-.781 2.362.414 4.925 2.725 5.845l.319.126c2.407.957 5.135-.218 6.096-2.623l9.857-26.821c.165-.502.437-1.318.604-1.822l7.247-25.319L88.1 104.54c.245.932.489 1.863.734 2.795l7.159 27.409c.746 2.493 3.373 3.905 5.861 3.149.044-.012.09-.026.134-.04 2.387-.722 3.789-3.186 3.198-5.61L99.17 103.93l-2.9-24.093c10.207-1.561 18.244-4.125 18.244-8.165zM62.809 52.189l2.958 9.184c-.417-.002-.864-.01-1.265-.01-1.726 0-3.635.029-5.62.075l3.927-9.249zm4.212 26.585c-.839.008-1.672.022-2.519.022-12.842 0-24.9-.898-33.957-2.529-12.117-2.182-12.872-4.573-12.872-4.596 0-.022.755-2.414 12.872-4.596 5.673-1.021 12.524-1.753 20.006-2.16.265.271.568.506.937.677 1.834.854 3.881.344 5.355-.926 2.513-.072 5.063-.118 7.659-.118.771 0 1.529.014 2.294.021l1.475 4.577-1.25 9.628zm31.439-2.506c-.823.148-1.697.284-2.568.42l-1.134-9.416s-.104-.33-.262-.83c1.372.198 2.703.407 3.964.634 12.117 2.182 12.872 4.574 12.872 4.596 0 .023-.755 2.414-12.872 4.596z"/></svg>