<svg xmlns="http://www.w3.org/2000/svg" viewBox="0 0 144 144"><path d="M126.529 48.09c5.161-5.035 5.233-13.266.165-18.397-5.061-5.127-13.351-5.211-18.511-.176-5.164 5.033-5.238 13.272-.176 18.396 5.066 5.131 13.358 5.21 18.522.177zM84.248 125.935l-3.534.891-10.22-8.929c-.727-.638-1.846-.567-2.487.159-.642.725-.572 1.833.16 2.472l10.917 9.537c.325.284.74.437 1.163.437.145 0 .289-.018.434-.054l4.435-1.116c.943-.238 1.515-1.19 1.275-2.13-.242-.937-1.199-1.5-2.143-1.267zM26.701 121.353l-3.644-.121-7.317-11.4c-.523-.815-1.613-1.055-2.434-.533-.819.52-1.061 1.603-.537 2.418l7.817 12.177c.312.485.845.788 1.427.807l4.572.152c.02.002.04.002.061.002.945 0 1.728-.746 1.759-1.693.031-.968-.73-1.776-1.704-1.809z"/><path d="M129.084 58.154c-3.099-3.188-6.936.582-6.936.582l-8.611 7.651-4.364-10.423c-2.442-5.833-6.198-11.021-10.991-15.171-5.267-4.559-11.917-10.297-14.64-12.561-2.465-2.05-5.414-3.416-8.579-3.978l-17.512-2.632c-2.441-.597-4.909.887-5.51 3.313-.112.46-.15.92-.125 1.368.121 1.92 1.479 3.622 3.458 4.108l17.551 4.495 11.648 9.818-17.184 9.231c-.656.397-2.429 1.545-4.445 2.88-5.011 3.323-8.446 8.539-9.507 14.432l-4.581 25.455-24.054 10.258c-2.369.953-3.94 3.405-3.45 5.896.628 3.191 3.894 4.972 6.86 3.956l28.401-9.095c2.129-.729 3.818-2.367 4.601-4.464l7.337-19.612 21.47 13.134-11.949 15.9c-1.778 1.983-2.094 5.022-.438 7.107 2.114 2.663 6.042 2.729 8.257.298l17.746-19.798c2.72-2.984 2.372-7.622-.763-10.172L82.485 72.641 98.201 66.3l8.653 10.003c2.644 2.946 7.202 3.178 10.135.513l11.964-11.938c0-.001 3.4-3.358.131-6.724z"/></svg>