<svg xmlns="http://www.w3.org/2000/svg" viewBox="0 0 144 144"><path d="M61.596 37.497c5.252-2.968 7.042-9.526 3.979-14.639-3.053-5.12-9.799-6.859-15.058-3.878-5.264 2.973-7.045 9.536-3.988 14.655 3.064 5.107 9.804 6.849 15.067 3.862zM84.038 30.478c5.254-2.966 7.042-9.524 3.979-14.64-3.053-5.119-9.8-6.859-15.06-3.878-5.263 2.973-7.042 9.536-3.986 14.657 3.064 5.106 9.805 6.849 15.067 3.861z"/><path d="M90.052 127.818l.063.058.012-.011c1.055.65 2.375.88 3.663.497 2.342-.698 3.659-3.112 2.941-5.39-.108-.345-.268-.656-.451-.95l-6.362-7.939c3.3 1.452 6.159 2.682 7.616 3.244.938.36 1.978.365 2.917.015 2.005-.747 3.051-2.895 2.375-4.877l-.123-.362c-.312-.912-.958-1.683-1.815-2.16l-20.06-10.486-.015-.034c2.99-4.584 10.614-16.33 10.449-16.703l6.544 15.488c1.05 2.406 2.392 4.176 4.154 5.508 6.278 4.741 21.412 16.159 21.688 16.304l.066.05.009-.009c1.112.553 2.449.665 3.695.17 2.269-.902 3.353-3.423 2.426-5.628-.139-.333-.328-.629-.537-.907L108.67 93.997l-3.612-18.862-.008-.004-4.719-11.11-1.505-17.906 6.689.709c3.291.347 5.81-2.795 4.656-5.814l-7.244-18.998c-.926-2.239-3.597-3.256-5.839-2.225-1.612.744-2.513 2.339-2.435 3.979-3.089 3.08-9.815 9.775-9.815 9.775s-16.885 6.422-18.493 6.556c-3.009.248-16.03 1.944-18.91 2.866-2.501.802-4.782 2.18-6.601 4.032L29.578 58.456c-1.301 1.325-1.782 3.214-1.252 4.972 1.604 5.319 4.998 16.187 4.998 16.187.575 1.953 2.67 3.082 4.678 2.521 2.007-.561 3.167-2.598 2.591-4.549 0 0-2.342-9.779-3.439-14.44 2.214-1.982 6.524-5.171 9.533-7.875l3.852 18.557S35.967 86.667 29.488 92.998c-1.929 1.886-2.523 4.682-1.521 7.16 3.126 7.737 9.489 25.194 9.69 25.514l.031.076.013-.003c.674 1.021 1.77 1.773 3.104 1.955 2.426.33 4.667-1.315 5.008-3.676.051-.355.042-.703.005-1.046 0 0-7.581-24.103-7.574-24.107L58.78 87.404l9.467 12.731c-.153 1.968.453 3.949 1.829 5.49 6.258 7.005 19.653 21.985 19.976 22.193zm7.719-96.243l2.362 5.366s-2.9-.617-6.084-1.293l3.722-4.073zM73.889 82.709l-6.161-14.325 1.986-19.019 3.116-1.412 5.198 22.511-4.139 12.245z"/><path d="M108.602 110.694c-.81-.301-1.715.092-2.026.877l-4.052 10.251-2.905.676c-.841.192-1.363 1.018-1.162 1.834.2.822 1.045 1.326 1.886 1.13l3.711-.858c.505-.114.915-.466 1.1-.936l4.35-11.002c.309-.786-.094-1.668-.902-1.972zM100.02 130.857H86.627l-1.997-2.835c-.589-.833-1.754-1.043-2.609-.475-.854.57-1.072 1.707-.488 2.538l2.559 3.629c.35.498.929.793 1.549.793h14.38c1.037 0 1.877-.815 1.877-1.825-.002-1.008-.841-1.825-1.878-1.825zM48.812 130.384H35.423l-2-2.838c-.586-.831-1.753-1.043-2.61-.474-.854.57-1.072 1.705-.487 2.538l2.558 3.631c.35.495.929.793 1.548.793H48.81c1.037 0 1.876-.816 1.876-1.825s-.837-1.825-1.874-1.825zM141.018 116.213c-.683-.763-1.87-.836-2.647-.173l-10.083 8.572-3.423-.855c-.999-.252-2.027.337-2.286 1.313-.256.977.349 1.972 1.352 2.223l4.381 1.095c.154.037.312.057.468.057.449 0 .889-.157 1.235-.451l10.827-9.204c.779-.664.858-1.817.176-2.577z"/></svg>