<svg xmlns="http://www.w3.org/2000/svg" viewBox="0 0 144 144"><path d="M90.869 38.758c6.265 2.528 13.425-.427 15.988-6.602 2.564-6.176-.438-13.222-6.705-15.75-6.258-2.527-13.416.423-15.981 6.595-2.566 6.177.437 13.232 6.698 15.757zM141.198 97.947c-.558-.914-1.912-1.788-2.959-1.514-10.464 2.745-11.316 3.277-15.471 3.323-.226.002-1.673-.221-2.368-.811-.331-.278-12.593-9.9-25.442-19.975.419-1.068.47-2.274-.049-3.398L88.186 64.12l1.329-12.558s.594-11.332-8.654-16.714c-7.882-4.589-27.667-9.188-27.667-9.188-1.861-.293-3.741.352-5.015 1.705-.058.066-.12.131-.177.199-1.271 1.484-1.661 3.521-1.025 5.363l6.809 18.376c.034.064-8.325 10.854-8.408 10.909l-7.865 26.305-19.621 8.962c-2.849 1.21-3.759 3.42-3.008 5.729.753 2.31 3.179 3.271 5.73 2.637 0 0 22.647-5.431 22.654-5.432 2.134-.568 2.916-1.917 4.417-4.116l9.8-16.476 16.068 12.577-6.9 23.526c-.582 2.007.137 4.877 2.686 5.719 2.293.756 5.378.024 6.566-2.742L86.8 93.391c1.098-3.156.731-5.576-.885-7.43l-16.94-16.637c-.145-.561 1.222-1.644 1.598-2.094.851-1.022 1.687-2.065 2.53-3.098 1.98 1.623 4.208 3.45 6.591 5.402l7.081 9.688c1.464 2.094 3.674 3.189 5.918 2.183.307-.139.56-.334.818-.526 12.548 10.313 24.548 20.216 25.271 20.958 1.011.807 2.527 1.771 6.076 1.766 0 0 11.62.379 16.303-3.084.49-.364.415-1.951.037-2.572zM60.509 43.104l-2.336-5.791 5.037 2.363c-.738.937-1.661 2.11-2.701 3.428zm13.762 19.647c.477-.567.942-1.146 1.437-1.695.285-.32.591-.637.897-.954l.117 3.322c.011.516.072.957.154 1.37-.905-.709-1.78-1.395-2.605-2.043zM81.965 121.212c-.842-.569-1.993-.356-2.57.474l-2.21 3.178H62.64c-1.022 0-1.849.816-1.849 1.821 0 1.009.827 1.822 1.849 1.822h15.519c.61 0 1.181-.294 1.523-.79l2.763-3.972c.577-.829.362-1.964-.48-2.533zM22.221 110.091l-3.803.917-10.835-9.563c-.755-.67-1.928-.609-2.611.142-.679.747-.614 1.9.145 2.573l11.562 10.204c.343.303.784.464 1.235.464.145 0 .292-.018.437-.051l4.747-1.143c.991-.238 1.602-1.226 1.359-2.205-.247-.978-1.25-1.576-2.236-1.338z"/></svg>