<svg xmlns="http://www.w3.org/2000/svg" viewBox="0 0 144 144"><path d="M88.479 29.296c6.319.308 11.708-4.543 12.011-10.838.315-6.295-4.567-11.648-10.903-11.951-6.334-.311-11.715 4.55-12.027 10.845-.3 6.29 4.578 11.647 10.919 11.944zM111.043 40.024c-2.13-1.002-4.674-.099-5.681 2.018l-6.095 8.136-6.466-11.536-.402-.715c-.023-.027-.053-.053-.078-.081-1.425-2.427-3.847-4.324-6.904-5.07-.702-.171-1.408-.269-2.106-.307-.05-.009-.098-.021-.147-.028l-2.413-.11c-2.989.063-17.965-.137-19.707.508-4.325 1.6-13.496 8.658-15.57 10.071-1.982 1.25-2.57 3.866-1.312 5.837.24.372.527.696.849.967 1.383 1.161 3.415 1.351 5.023.337l11.058-5.889 9.529-.486-3.625 17.933-11.273 27.174-17.392 18.709c-.709.445-1.682 1.1-2.859 2.018 0 0-3.652 2.357-3.518 4.417-.102-.016-.165-.047-.29-.059-.87.007-1.404-.15-1.93 0-.875-.24-1.802-.069-2.429.564-1.091 1.092-1.083 2.719.012 3.794.96.943 2.6.943 3.69-.146.078-.079.108-.185.174-.271.471.602.792 1.015 1.009 1.294-.026.021-.062.031-.086.058-1.092 1.086-1.081 2.714-.125 3.66 1.092 1.083 2.598.939 3.685-.159.012-.014.016-.027.025-.038.385.368.772.741 1.126 1.084-.018.012-.043.021-.058.036-1.083 1.09-1.077 2.723-.123 3.671 1.099 1.077 2.738 1.069 3.825-.026.03-.033.04-.076.069-.107.371.354.707.683 1.014.977-.037.032-.088.043-.122.079-1.088 1.092-1.081 2.723-.121 3.664.957.948 2.589.939 3.68-.152.722-.725.889-1.83.509-2.739-.003-.368-.035-.805-.096-1.306.392.311.664.515.664.515s2.044-1.501 1.354-3.534c0 0-2.615-6.366-2.77-8.674 0 0 .119-.721.237-1.693l21.373-17.18c.695-.52 1.268-1.192 1.687-1.975l6.787-14.034 4.96 17.997 1.348 23.313c-.167.747-.345 1.626-.506 2.76 0 0-.991 4.215.541 5.606-.086.059-.151.08-.249.156-.625.606-1.117.859-1.393 1.33-.798.43-1.348 1.191-1.357 2.081-.026 1.539 1.114 2.707 2.651 2.726 1.35.021 2.533-1.108 2.562-2.645 0-.112-.052-.207-.064-.315.759.11 1.278.187 1.629.238-.004.032-.022.065-.022.1-.031 1.536 1.111 2.702 2.46 2.728 1.543.028 2.529-1.112 2.548-2.651 0-.019-.009-.031-.009-.045.534 0 1.072.002 1.567.006-.005.021-.017.043-.017.065-.021 1.532 1.119 2.705 2.47 2.73 1.543.023 2.72-1.113 2.738-2.651 0-.045-.023-.081-.023-.124.513 0 .984.005 1.41.005-.003.05-.032.094-.032.142-.023 1.537 1.118 2.709 2.467 2.727 1.351.023 2.521-1.106 2.549-2.646.013-1.019-.635-1.933-1.543-2.326-.258-.263-.586-.556-.979-.875.5-.046.839-.086.839-.086s.427-2.491-1.489-3.481c0 0-6.32-2.789-8.041-4.348 0 0-.471-.681-1.129-1.541.728-8.416 1.983-22.958 1.974-24.075-.015-1.605-5.734-28.355-5.88-28.989l3.239-13.637 5.099 5.473c1.026 1.363 2.666 2.119 4.364 2.031.082-.007.163-.012.244-.021 1.784-.178 3.344-1.275 4.112-2.885l9.314-14.433c1.008-2.119.097-4.646-2.033-5.646z"/></svg>