<svg xmlns="http://www.w3.org/2000/svg" viewBox="0 0 144 144"><path d="M80.133 58c6.988-1.779 11.229-8.949 9.467-16.015-1.76-7.063-8.85-11.339-15.84-9.559-6.982 1.776-11.224 8.939-9.465 16.004 1.76 7.067 8.854 11.348 15.838 9.57z"/><path d="M104.871 79.293c-.219-1.628-1.211-3.117-2.786-3.882-1.582-.768-3.362-.612-4.759.245l-11.521-6.045c-1.979-6.204-8.033-9.878-13.439-9.981-.218-.004-.437-.002-.654.007-.85.033-1.675.149-2.475.335-.058.007-.116.009-.175.018-.37.054-.7.191-1.051.285l-12.795-6.713-.719-3.082c-.607-2.037-2.445-3.361-4.447-3.384-.466-.004-.942.061-1.413.203-.833.254-1.483.767-2.033 1.369l-2.048-1.219-.39-.359C41.38 38.514 17.351 14.007 8.877 29.533.178 45.46 35.522 52.946 43.011 50.168l.013.111 2.307 1.22c-.042.565-.012 1.147.159 1.724l2.427 12.518c.262 2.008.873 4.555 2.523 7.24l8.806 7.853-1.014 23.703H31.813c-8.573 0-16.189-6.147-17.935-14.939-.026-.136-.053-.272-.078-.409 0 0-1.017 1.42-1.626 3.022-.278.646-.543 1.246-.789 1.907-3.112 8.388-3.628 18.537 3.235 25.234 6.324 6.172 15.242 5.096 23.307 5.096h68.506c5.911 0 12.339.53 18.098-1.47 7.1-2.466 10.738-8.435 11.296-15.765.173-2.172.033-4.347-.323-6.484 1.491-.407 2.68-1.313 3.426-2.868 5.084-10.57-25.242-18.899-34.059-18.568zM60.645 66.834l-3.074-3.183-1.513-6.483 8.694 4.594c-1.758 1.259-3.147 3.051-4.107 5.072zm34.654 11.09l-2.935 3.604s-5.28-6.096-5.798-8.229l8.733 4.625zm17.988 26.612H83.551l-.437-17.541 5.075 7.369c.995 1.632 2.593 2.544 4.252 2.448.08-.005.158-.011.238-.021 1.742-.2 3.272-1.495 4.03-3.41l7.215-10.496c3.629 4.538 13.609 12.634 22.135 16.262-3.354 3.345-7.886 5.389-12.772 5.389z"/></svg>