<svg xmlns="http://www.w3.org/2000/svg" viewBox="0 0 144 144"><path d="M50.327 35.065c6.336-1.276 10.462-7.54 9.198-13.989-1.255-6.45-7.425-10.644-13.775-9.357-6.352 1.279-10.471 7.551-9.214 14.003 1.268 6.442 7.435 10.636 13.791 9.343zM71.788 116.431c-.312.103-.612.208-.922.31.754-2.902 1.509-5.805 2.263-8.706.957-3.679 1.913-7.357 2.869-11.036.722-2.78 1.446-5.562 2.168-8.342.582-2.236.996-4.316-.097-6.483-.956-1.897-2.939-2.608-4.798-3.246-1.087-.373-2.175-.746-3.263-1.118-3.347-1.149-6.695-2.297-10.042-3.445-2.744-.941-5.488-1.884-8.231-2.825-.348-.12-.694-.238-1.041-.356l11.43-22.374c5.467-1.409 11.97-3.095 12.582-3.303.273-.089.536-.206.79-.344L90.35 39.71l2.631 9.19c.151.538.602.935 1.146 1.016.069.01.138.018.207.018.472 0 .917-.244 1.182-.652l11.554-18.099c.081-.129.119-.278.156-.425l29.279-9.142-.508-1.711-29.507 9.212c-.008-.004-.011-.009-.016-.013l-19.306-8.982c-.501-.234-1.091-.154-1.51.217-.416.367-.584.946-.43 1.482l2.746 9.593-15.148 4.116c-.161.015-.319.029-.481.043-.442.04-.883.077-1.323.117-.665.059-1.33.118-1.993.177-.828.072-1.656.147-2.484.218-.933.083-1.866.167-2.799.25-.981.086-1.961.173-2.941.26-.969.086-1.938.172-2.906.258-.899.079-1.797.158-2.696.238-.769.068-1.539.136-2.309.205-.583.052-1.166.102-1.748.154-1.417.125-2.886.107-4.266.495-1.214.315-2.38.821-3.444 1.493-1.07.677-2.035 1.524-2.849 2.503-.84 1.011-1.514 2.163-1.992 3.392-.062.16-.121.319-.177.48 0 0-8.33 29.292-8.334 29.31-.813 2.856-1.442 5.799.036 8.569 1.221 2.291 3.452 3.546 5.76 4.454 3.492 1.376 23.865 3.322 23.865 3.322l2.492.283-2.351 27.24c-.157.561-.194 1.122-.165 1.674-18.891 7.062-32.136 14.266-31.154 17.354 1.179 3.713 22.441.066 47.49-8.144 25.049-8.21 44.398-17.875 43.22-21.588-1.178-3.713-22.44-.068-47.489 8.144zm32.027-85.415l-8.99 14.082-1.821-6.361 1.995-.733c2.021-1.102 2.782-3.659 1.696-5.712-1.086-2.052-3.604-2.82-5.623-1.72l-.376.102-1.904-6.649 15.023 6.991z"/></svg>