<svg xmlns="http://www.w3.org/2000/svg" viewBox="0 0 144 144"><path d="M118.048 28.762s-3.159-.647-7.235-1.48c-.108-1.318-.78-4.888-5.015-4.888-2.806 0-4.121 1.479-4.755 2.892-4.656-.949-8.468-1.723-8.521-1.723H82.497c-2.272-2.759-5.644-4.563-9.479-4.733V5.524c0-.56-.462-1.017-1.027-1.017-.566 0-1.027.457-1.027 1.017v13.394c-3.466.391-6.493 2.104-8.585 4.645h-7.725c-.055 0-4.926.982-10.561 2.123-.556-1.518-1.836-3.292-4.912-3.292-4.92 0-5.043 4.821-5.043 5.309-4.101.831-7.199 1.46-7.199 1.46-.998.21-1.64 1.125-1.42 2.114.188.862.955 1.969 1.803 1.969.042 0 2.856-.571 6.662-1.348l-.568 15.346c-.1 2.704 1.447 5.203 3.924 6.346l20.882 9.147L60.83 86.45 45.023 99.729c-1.761 1.481-2.814 3.615-2.903 5.899-.309 8.023-1.021 26.797-.919 27.188 0 0 .068 4.301 4.602 4.301 4.429 0 4.957-4.301 4.957-4.301l3.029-25.04 18.7-9.556 18.692 9.556 3.157 25.092s.514 4.197 4.834 4.197c4.423 0 4.491-4.197 4.491-4.197.101-.384-.548-19.182-.83-27.226-.08-2.293-1.134-4.437-2.9-5.924l-15.781-13.27 2.605-23.713 20.885-9.147c2.477-1.143 4.021-3.642 3.922-6.346l-.585-15.792 6.273 1.286c1.009.226 1.986-.688 2.21-1.677.218-.985-.417-2.081-1.414-2.297zM88.254 48.645l-11.739-1.894c-2.666-.431-5.384-.431-8.047 0l-11.742 1.894-12.375-4.365.158-14.534c5.563-1.138 10.34-2.118 10.34-2.118h5.277c-.426 1.275-.714 2.614-.714 4.032 0 7.118 5.831 12.888 13.025 12.888 7.193 0 13.027-5.77 13.027-12.888 0-1.417-.287-2.756-.715-4.032h7.573l8.144 1.67.163 14.982-12.375 4.365z"/><path d="M83.837 119.015c2.421 0 4.402-1.961 4.402-4.356 0-2.396-1.981-4.355-4.402-4.355H60.708c-2.421 0-4.401 1.959-4.401 4.355 0 2.396 1.98 4.356 4.401 4.356h9.512v8.416h-3.586c-5.577 0-9.039 2.795-9.039 7.293v2.759c0 1.124.918 2.032 2.054 2.032 1.135 0 2.054-.908 2.054-2.032v-2.759c0-.798 0-3.228 4.931-3.228h11.277c4.931 0 4.931 2.43 4.931 3.228v2.759c0 1.124.919 2.032 2.054 2.032 1.136 0 2.055-.908 2.055-2.032v-2.759c0-4.498-3.463-7.293-9.039-7.293h-3.583v-8.416h9.508z"/></svg>