<svg xmlns="http://www.w3.org/2000/svg" viewBox="0 0 144 144"><path d="M72.482 8.488A11.424 11.263 0 0 0 61.06 19.752a11.424 11.263 0 0 0 11.423 11.264 11.424 11.263 0 0 0 11.424-11.264A11.424 11.263 0 0 0 72.482 8.488zM19.555 20.717a8.967 8.967 0 0 0-5.012 1.416c-4.134 2.643-5.314 8.088-2.633 12.164 2.681 4.076 8.206 5.235 12.338 2.592 4.134-2.643 5.312-8.09 2.63-12.164-1.675-2.547-4.46-3.955-7.323-4.008zm106.175 0a8.973 8.973 0 0 0-5.013 1.416c-4.133 2.643-5.312 8.088-2.63 12.164 2.68 4.076 8.204 5.235 12.339 2.592 4.133-2.642 5.309-8.088 2.63-12.162-1.676-2.548-4.462-3.957-7.326-4.01zm-106.285 6.06c.89.017 1.756.455 2.276 1.246a2.709 2.709 0 0 1-.819 3.782 2.795 2.795 0 0 1-3.834-.809 2.707 2.707 0 0 1 .819-3.78 2.784 2.784 0 0 1 1.558-.439zm106.174 0c.89.017 1.756.455 2.277 1.246a2.712 2.712 0 0 1-.816 3.782c-1.287.82-3.004.46-3.836-.809a2.71 2.71 0 0 1 .817-3.78 2.784 2.784 0 0 1 1.558-.439zm-94.422 1.438c.14 1.237.129 2.495-.14 3.748-.266 1.222-.761 2.346-1.377 3.398 4.56.671 9.337 1.376 9.365 1.383l18.521 9.53 2.688 26.765-.002.006-4.809 27.184a48.555 48.555 0 0 0-.755 5.103l-1.91 26.328c-.29 2.916 1.827 5.518 4.734 5.809 2.905.292 5.496-1.835 5.787-4.752l3.367-29.049 6.008-18.295 5.39 18.295 3.538 29.049c.289 2.917 2.88 5.044 5.785 4.752 2.906-.291 5.023-2.893 4.734-5.809l-2.101-26.695a46.522 46.522 0 0 0-.641-4.377L84.71 73.045v-.006l2.685-26.766 18.522-9.529c.029-.007 4.803-.71 9.361-1.383a11.472 11.472 0 0 1-1.502-7.146c-3.228.234-6.536.51-8.234.756-.753.109-1.487.248-2.227.422-2.896.68-19.236 5.418-20.779 5.418l-7.89-1.063a18.648 18.648 0 0 0-5.186.031l-7.033 1.032c-1.541 0-17.886-4.738-20.78-5.418a25.19 25.19 0 0 0-2.224-.422c-1.697-.245-5.002-.522-8.227-.756z"/></svg>