<svg xmlns="http://www.w3.org/2000/svg" viewBox="0 0 144 144"><path d="M136.359 84.125H110.03c.745-2.187 1.313-3.859 1.316-3.881 1.517-9.775-4.879-18.843-14.282-20.255-1.932-.292-5.697.144-5.697.144l-20.016 3.083s-12.259-.329-16.427-.154c-4.031.173-26.105 2.632-26.105 2.632l-4.829-7.862c-7.51-.183-13.572-6.225-13.572-13.662 0-1.826.38-3.563 1.042-5.157-1.605-.833-3.582-.934-5.278.031-1.921 1.098-2.892 3.15-2.632 5.14.09.671.316 1.333.692 1.948l16.241 30.703c1.085 1.785 3.288 3.871 5.062 3.904 1.771.033 70.837 0 70.837 0s-.233 1.355-.591 3.385H27.27c-.953 0-1.729.748-1.729 1.662v5.98c0 .916.776 1.665 1.729 1.665h14.71v25.045c0 1.115.917 2.018 2.049 2.018 1.133 0 2.049-.902 2.049-2.018V93.433h48.03c-.098.527-.195 1.056-.294 1.58-.431 2.291.626 5.481 2.476 6.936.668.526 1.419.906 2.217 1.048l17.244 5.987v9.494c0 1.115.917 2.018 2.05 2.018 1.132 0 2.049-.902 2.049-2.018v-8.868c2.017-.458 3.66-2.053 4.048-4.183.5-2.757-1.311-5.354-4.048-5.987v-6.007h16.51c.948 0 1.73-.749 1.73-1.665v-5.98c0-.915-.782-1.663-1.731-1.663zm-20.608 13.859l-9.329-3.291s.166-.484.431-1.261h8.898v4.552z"/><path d="M133.708 55.112c-6.408-3.538-14.519-1.3-18.114 5.01-3.597 6.309-1.315 14.295 5.092 17.833 6.41 3.542 14.523 1.298 18.121-5.014 3.596-6.309 1.308-14.287-5.099-17.829zM24.332 53.832c5.419 0 9.813-4.324 9.813-9.661 0-5.334-4.395-9.66-9.813-9.66-5.421 0-9.816 4.326-9.816 9.66 0 5.336 4.395 9.661 9.816 9.661zm-1.377-14.497c2.037-.573 4.11.132 5.433 1.595.42.518.756 1.119.955 1.795.809 2.775-.816 5.665-3.634 6.487-2.041.571-4.118-.154-5.431-1.628-.42-.518-.756-1.114-.962-1.788-.79-2.769.843-5.655 3.639-6.461z"/></svg>