<svg xmlns="http://www.w3.org/2000/svg" viewBox="0 0 144 144"><path d="M127.916 127.271H65.445l6.601-26.677 3.959-.338c1.884-.161 3.28-1.831 3.122-3.729-.161-1.9-1.845-3.303-3.697-3.148l-35.258 3.009-12.563-54.755c-.425-1.859-2.288-3.014-4.105-2.585-1.842.431-2.989 2.284-2.564 4.14l13.23 57.666c.362 1.576 1.752 2.674 3.333 2.674.097 0 .193-.004.29-.012l3.882-.331v24.086H17.094c-1.972 0-3.585 1.625-3.585 3.613s1.613 3.613 3.585 3.613h110.822c1.972 0 3.585-1.625 3.585-3.613s-1.613-3.613-3.585-3.613zm-82.438 0v-24.41l21.765-1.856-6.5 26.267H45.478zM40.583 34.695c6.489-1.9 10.219-8.752 8.322-15.296-1.888-6.547-8.685-10.299-15.178-8.397-6.479 1.916-10.211 8.762-8.309 15.311 1.885 6.532 8.677 10.293 15.165 8.382zM103.327 76.844c.002.003.005.005.007.007.41.479.862.915 1.362 1.3.012.009.021.019.033.027.465.354.962.662 1.49.923.063.031.12.07.184.101.481.224.987.394 1.51.531.114.03.22.078.336.104.629.139 1.277.222 1.947.222.813 0 1.588-.143 2.339-.345.137-.037.269-.081.403-.126.716-.229 1.396-.528 2.021-.919.004-.002.009-.003.009-.003s.003-.003.002-.003c2.591-1.618 4.33-4.488 4.33-7.788 0-5.07-4.076-9.182-9.104-9.182-5.029 0-9.104 4.111-9.104 9.182 0 2.291.861 4.361 2.237 5.968h-.002zm5.592-10.563c1.89-.546 3.813.124 5.043 1.517.39.491.699 1.063.884 1.704.75 2.638-.758 5.384-3.372 6.167-1.894.543-3.82-.146-5.039-1.548-.39-.493-.701-1.06-.891-1.7-.733-2.633.781-5.376 3.375-6.14z"/><path d="M47.145 39.164c-5.325-2.123-11.348.511-13.451 5.882-.073.188-.099.378-.16.569-.654 1.704-.851 3.574-.385 5.409 2.208 8.702 6.554 26.011 7.123 29.495.256 1.582 1.026 3.315 2.005 4.994 3.037 5.213 9.084 7.645 14.978 6.533 7.313-1.382 29.456-6.044 29.456-6.044s24.292.543 24.305.505c1.265.261 2.616.036 3.714-.825 1.117-.874 1.661-2.164 1.71-3.484-1.858 1.045-3.966 1.694-6.242 1.694-5.12 0-9.514-3.044-11.601-7.412l-12.654-.97c-.804-.06-1.611-.078-2.417-.052L58.73 73.8l-4.575-22.549c-.464-2.282-1.166-4.52-2.209-6.598-1.123-2.235-2.757-4.676-4.801-5.489z"/></svg>