<svg xmlns="http://www.w3.org/2000/svg" viewBox="0 0 144 144"><path d="M33.713 95.652c-7.415 1.366-12.335 8.63-11.002 16.215 1.351 7.571 8.442 12.614 15.865 11.229 7.401-1.36 12.332-8.615 10.985-16.198-1.33-7.583-8.43-12.621-15.848-11.246zM116.558 116.063l-25.685-2.243-4.355-1.229c5.859-.101 11.684-.057 17.538-.193 3.954-.093 7.019-1.354 9.521-4.497 4.553-5.719 2.078-13.478 1.155-19.987-1.167-8.239-1.613-16.644-2.39-24.929-.209-2.243-.418-4.491-.376-6.744.121-6.471 1.984-13.036 3.106-19.392.662-3.737 1.041-7.685 2.009-11.354.666-2.531-.797-5.137-3.275-5.823-2.476-.682-5.023.812-5.692 3.349L97.891 55.828c-.558 2.112-.338 37.781-.338 37.781-1.799.82-22.461 2.596-32.319 3.404-8.827.724-14.483 10.323-10.546 18.437.119.239.241.478.373.712 1.917 3.431 5.068 5.682 8.553 6.53.348.109.704.206 1.072.269l24.412 2.32 26.053.148c2.53.399 4.895-1.376 5.285-3.963.387-2.584-1.348-5.005-3.878-5.403z"/></svg>