<svg xmlns="http://www.w3.org/2000/svg" viewBox="0 0 144 144"><path d="M26.755 58.031c4.432-3.377 5.239-9.657 1.798-14.015-3.436-4.361-9.814-5.149-14.247-1.769-4.419 3.385-5.229 9.662-1.781 14.021 3.427 4.353 9.804 5.15 14.23 1.763zM116.025 61.389c8.689-5.479 11.22-16.855 5.653-25.408-5.566-8.555-17.123-11.046-25.812-5.566-8.689 5.479-11.22 16.855-5.653 25.408 5.567 8.553 17.124 11.046 25.812 5.566zm-13.267-20.385c2.748-1.733 6.404-.945 8.165 1.761 1.761 2.705.958 6.302-1.79 8.035-2.747 1.733-6.402.945-8.161-1.761-1.763-2.705-.962-6.302 1.786-8.035z"/><path d="M142.039 49.979c-.876-1.266-2.624-1.594-3.91-.741L99.902 74.735 75.636 39.929c-.997-1.423-2.979-1.792-4.438-.812-1.451.981-1.821 2.937-.825 4.369l15.01 21.53-21.216.349c-3.104.05-5.482 1.43-6.798 4.199-1.477 3.109-5.313 10.995-5.313 10.995L40.501 64.792s-4.35-5.387-7.993-5.387c-4.75 0-8.601 3.791-8.601 8.464 0 .164.04.315.049.478.011 1.479.425 2.947 1.339 4.188 4.333 5.891 12.918 17.618 14.408 20.072.676 1.115 1.795 2.19 3.056 3.16 3.919 3.015 9.39 3.141 13.528.425 4.132-2.713 6.4-6.256 7.569-11.007l2.972-11.698s21.009-1.043 23.625-1.199l4.163 5.971-43.312 28.89c-1.73 1.148-3.818 1.56-5.849 1.182-2.045-.396-3.812-1.55-4.973-3.251L9.638 59.935c-.868-1.27-2.62-1.612-3.906-.757-1.29.855-1.634 2.576-.77 3.846l30.847 45.145c.92 1.349 2.08 2.469 3.385 3.381H20.137c-1.946 0-3.537 1.566-3.537 3.481s1.59 3.481 3.537 3.481H129.51c1.944 0 3.536-1.566 3.536-3.481s-1.592-3.481-3.536-3.481h-8.19V67.147l19.969-13.319c1.285-.858 1.622-2.585.75-3.849zm-24.473 61.57H54.751l62.815-41.898v41.898z"/></svg>