<svg xmlns="http://www.w3.org/2000/svg" viewBox="0 0 144 144"><path d="M113.459 86.579L87.721 79.15l1.128-6.187s3.136-12.923 2.308-18.27c-1.044-6.752-6.236-11.396-13.092-11.82l-1.133-.07c-3.292-.204-6.555.708-12.235 5.387L51.069 60.461c-2.554 2.3-3.34 6.734-.795 9.043 6.087 5.526 17.606 14.622 17.668 14.65l-12.776 24.725L28.59 116c-2.86.666-4.636 3.512-3.967 6.354.574 2.439 2.761 4.088 5.176 4.088.401 0 .81-.047 1.217-.14l28.612-5.741c2.028-.422 3.843-1.542 5.12-3.164l16.847-21.271 23.511 2.301-3.602 27.061c-.338 2.945 1.737 5.612 4.636 5.958.213.025.42.037.623.037 2.646 0 4.932-2.012 5.248-4.744l6.371-32.422c.678-3.467-1.481-6.861-4.923-7.738zM60.701 65.555l6.332-4.608 1.53 11.357-7.862-6.749zM84.749 40.413c9.428.219 15.916-8.962 12.554-17.699-1.855-4.819-6.697-8.171-11.888-8.225-9.319-.093-15.676 8.97-12.433 17.624 1.806 4.817 6.599 8.182 11.767 8.3z"/></svg>