<svg xmlns="http://www.w3.org/2000/svg" viewBox="0 0 144 144"><path d="M17.16 46.787c5.875 4.002 13.849 2.436 17.801-3.537 3.952-5.938 2.402-14.014-3.477-18.02-5.87-4.015-13.843-2.438-17.795 3.517-3.965 5.948-2.399 14.026 3.471 18.04z"/><path d="M138.917 24.546c-1.315-2.647-4.408-3.715-7.067-2.592l-24.413 10.442c-1.745.772-3.433 1.672-5.052 2.691L77.638 50.546l-3.324-.028-9.893-5.909 9.993-2.533c1.413-.358 2.756-.951 3.979-1.751l13.41-8.783c2.086-1.323 2.715-4.11 1.407-6.223-1.307-2.112-4.058-2.75-6.145-1.425-.188.122-10.14 5.625-14.574 8.168-4.141.757-8.282 1.504-12.426 2.255-7.501 1.357-15.304 1.685-20.94 7.49-4.101 4.229-5.807 9.81-7.933 15.17-1.063 2.686-2.127 5.374-3.186 8.063-.247.625-2.482 4.947-2.142 5.477-2.785-4.3-5.806-8.97-5.879-9.097-1.207-2.125-3.887-2.858-5.984-1.634-2.099 1.223-2.824 3.938-1.615 6.063l9.091 17.073c1.432 2.523 4.613 3.396 7.104 1.943.998-.583 2.778-3.563 3.145-4.258 1.546-2.943 6.467-10.69 9.566-15.551l16.53 5.243 2.243.919c-1.546 3.475-4.014 10.802-2.459 19.735h5.213s-1.129-3.424-.85-8.236c.762.481 1.59.991 1.603.979.775-.718 1.676-1.722 2.617-2.854-.162 8.095-.396 20.354-.339 21.088l2.214 29.396c.237 2.908 2.596 5.199 5.521 5.164 2.926-.033 5.231-2.375 5.406-5.289 0 0 1.221-30.177 1.273-30.483.323-1.933 4.101-32.668 4.101-32.668l26.449-22.606 25.951-13.604c2.473-1.494 3.467-4.649 2.152-7.294zM62.262 80.141c.355-2.227 1.05-4.637 2.272-7.089l1.519.621c-.761 1.875-1.819 4.096-3.791 6.468z"/></svg>