<svg xmlns="http://www.w3.org/2000/svg" viewBox="0 0 144 144"><path d="M129.441 45.534c-6.553-.474-12.251 4.496-12.718 11.104-.473 6.611 4.46 12.354 11.013 12.828 6.557.476 12.253-4.498 12.723-11.109.474-6.612-4.464-12.347-11.018-12.823zM112.627 85.312l.886-18.926c-.146-2.711-.233-4.563-.767-6.034-2.514-6.961-9.697-10.006-17.054-8.014l-30.176 6.387c-.886.038-6.274.601-10.323 2.401-4.05 1.801-21.156 16.924-21.156 16.924L5.843 88.175c-1.238.444-2.257 1.361-2.835 2.552-1.128 2.321-.347 5.128 1.814 6.521l.396.255c1.238.794 2.757 1.007 4.164.581l26.73-8.109c.464-.172.927-.343 1.39-.514l19.938-8.757 10.09 10.201s-16.404 5.839-18.081 6.606c-1.865.853-3.135 2.363-2.918 4.539.248 2.462 2.386 4.881 4.901 4.338L78.9 98.706c3.343-1.529 4.075-6.077 2.915-8.696l-8.843-13.734 28.127-1.458 1.069 11.743 3.387 14.679c.347 1.87 1.901 3.198 3.694 3.329.343.025.693.006 1.044-.062 2.205-.416 3.654-2.557 3.238-4.778l-.904-14.417z"/></svg>