<svg xmlns="http://www.w3.org/2000/svg" viewBox="0 0 144 144"><path d="M142.417 85.82c-1.635-1.88-4.52-2.108-6.442-.511l-27.81 23.104-36.15 6.676-42.546 19.919c-2.276 1.065-3.238 3.733-2.148 5.957.786 1.604 2.421 2.538 4.126 2.538.662 0 1.333-.142 1.971-.438l41.469-19.416 37.354-6.896 29.655-24.637c1.923-1.599 2.156-4.416.521-6.296zM80.957 82.609c5.039 10.8 18.129 15.581 29.18 10.655 11.054-4.925 15.948-17.72 10.909-28.52-5.042-10.805-18.135-15.577-29.189-10.652-11.051 4.927-15.943 17.714-10.9 28.517zm13.481-22.985c7.934-3.536 17.325-.107 20.943 7.646 3.619 7.755.108 16.93-7.825 20.465-7.932 3.532-17.324.108-20.941-7.646-3.619-7.753-.109-16.931 7.823-20.465zM49.638 120.226c11.054-4.927 15.949-17.721 10.909-28.521-5.042-10.805-18.135-15.579-29.19-10.651-11.05 4.924-15.942 17.713-10.899 28.518 5.04 10.798 18.129 15.576 29.18 10.654zm-23.523-13.177c-3.617-7.753-.108-16.931 7.823-20.467 7.934-3.534 17.325-.106 20.944 7.647 3.618 7.755.107 16.928-7.826 20.464-7.931 3.536-17.323.11-20.941-7.644z"/><path d="M40.241 66.233c.675.683 1.494 1.247 2.454 1.62l19.093 7.439 4.806 20.25c.456 2.391 2.809 3.968 5.254 3.522.409-.072.795-.199 1.153-.37 1.775-.846 2.834-2.772 2.451-4.762l-3.401-23.528c-.345-1.816-1.622-3.331-3.379-4.014l-11.754-6.416 9.243-14.043 4.067 5.073c.676.895 1.693 1.484 2.818 1.643l13.75 1.555c.742.103 1.456-.012 2.083-.298 1.095-.499 1.914-1.51 2.096-2.757.293-1.972-1.106-3.802-3.126-4.085l-11.548-3.008-6.379-11.433c-.028-.038-.065-.065-.095-.103-.625-1.094-1.578-2.081-2.97-2.9-5.195-3.052-12.188-1.455-15.623 3.581l-12.656 22.21c-2.478 3.633-1.675 8.258 1.663 10.824zM71.733 25.372c5.119-2.089 7.541-7.837 5.401-12.843-2.138-5.003-8.021-7.359-13.14-5.271s-7.541 7.833-5.403 12.836c2.139 5.006 8.023 7.365 13.142 5.278z"/></svg>