<svg xmlns="http://www.w3.org/2000/svg" viewBox="0 0 144 144"><path d="M74.562 31.363c6.289-1.126 10.478-7.12 9.335-13.383-1.131-6.267-7.163-10.43-13.468-9.293-6.302 1.13-10.485 7.129-9.35 13.396 1.145 6.257 7.173 10.425 13.483 9.28z"/><path d="M107.162 13.922c-1.481-2.481-4.703-3.295-7.197-1.822-2.492 1.472-3.313 4.67-1.836 7.15.884 1.495 2.086 4.045 2.914 6.726.619 2.73 1.508 9.242-4.437 8.101l.002.006c-.89-.603-1.913-1.037-3.04-1.239-2.231-.401-4.407.172-6.1 1.411-3.463 1.167-7.994.411-7.994.411-4.376-.318-6.247-.164-6.986-.04-.74-.124-2.612-.278-6.987.04 0 0-4.532.756-7.994-.411-1.692-1.239-3.869-1.813-6.098-1.411-1.129.202-2.152.636-3.042 1.239l.002-.006c-5.942 1.141-5.056-5.371-4.438-8.101.83-2.681 2.033-5.231 2.918-6.726 1.477-2.479.654-5.678-1.838-7.15-2.492-1.473-5.716-.659-7.196 1.822-.861 1.438-8.273 14.339-4.007 24.215 1.295 3 4.168 6.841 10.521 8.659 1.219.735 3.682 2.467 4.172 4.704 0 0 1.794 7.462 5.251 10.639 0 0 3.43 3.677 3.188 9.135l4.42 63.303c.022 2.178 1.803 3.931 3.987 3.931h.039c2.204-.022 3.971-1.813 3.951-4.002l3.678-57.359 4.03 57.431c.021 2.178 1.804 3.931 3.987 3.931h.025c2.215-.022 3.983-1.813 3.964-4.002l3.181-61.749h.036v-.768l.145-2.951c0-.006-.002-.008-.002-.011.627-5.256 2.844-6.888 2.844-6.888 2.953-1.83 5.25-10.64 5.25-10.64.492-2.237 2.953-3.969 4.172-4.704 6.354-1.818 9.226-5.66 10.521-8.659 4.269-9.876-3.147-22.777-4.006-24.215z"/></svg>