<svg xmlns="http://www.w3.org/2000/svg" viewBox="0 0 144 144"><path d="M118.515 53.313c-12.785-1.952-24.698 6.818-26.662 19.531-1.229 8.148 1.922 15.959 7.713 21.018 3.263 2.838 7.346 4.819 11.945 5.511 12.761 1.934 24.696-6.805 26.634-19.543 1.943-12.71-6.837-24.592-19.63-26.517z"/><path d="M89.321 100.563l-22.001-.432-3.777-.776 14.744-10.906c.58-.381 1.099-.822 1.561-1.304 2.486-2.133 3.553-4.338 3.993-5.966.019-.052.03-.106.043-.159.017-.053.03-.106.044-.159.043-.168.093-.334.126-.508l7.894-24.58 21.624-13.632c1.943-1.007 2.698-3.389 1.687-5.324-1.01-1.933-3.4-2.688-5.345-1.681L83.841 47.193c-1.62.838-2.771 2.369-3.117 4.155l-8.6 19.993c-.38.169-.769.37-1.17.634L40.178 88.251c-5.282 3.473-6.729 10.556-3.238 15.814 1.822 2.739 4.63 4.431 7.644 4.941.303.071.61.131.928.163l20.922.567 22.2-1.327c2.177.19 4.094-1.413 4.284-3.58.189-2.165-1.42-4.076-3.597-4.266zM17.767 88.477c-6.332 1.137-10.532 7.172-9.394 13.478 1.152 6.295 7.207 10.484 13.544 9.335 6.317-1.134 10.525-7.162 9.377-13.465-1.137-6.304-7.197-10.492-13.527-9.348z"/></svg>