<svg xmlns="http://www.w3.org/2000/svg" viewBox="0 0 144 144"><path d="M129.958 42.651c-6.789-1.06-13.151 3.627-14.204 10.48-1.054 6.854 3.601 13.273 10.389 14.334 6.796 1.063 13.157-3.628 14.211-10.485 1.054-6.851-3.602-13.262-10.396-14.329zM133.871 91.457l-16.554-2.38-1.497-19.91c-.007-.042-.019-.084-.026-.127.018-1.271-.157-2.631-.549-4.074-2.026-7.478-9.684-11.888-17.096-9.838L66.308 67.46c-.907.249-1.779.56-2.598.924-2.423.894-6.274 3.83-7.13 4.499L37.018 86.15 5.846 96.169c-2.441.729-3.851 3.372-3.152 5.898.523 1.891 2.078 3.182 3.852 3.404.597.076 1.217.03 1.83-.153l31.931-7.265c.177-.052.352-.111.523-.181l31.033-12.589 32.057-5.147 3.433 14.53c.366 2.316 2.175 4.132 4.472 4.489l20.735.894c.25.041.497.057.742.052 2.056-.041 3.849-1.565 4.171-3.686.363-2.372-1.25-4.594-3.602-4.958z"/></svg>