<svg xmlns="http://www.w3.org/2000/svg" viewBox="0 0 144 144"><path d="M74.439 32.967c6.268-1.108 10.441-7 9.302-13.163-1.128-6.162-7.141-10.253-13.419-9.135-6.284 1.106-10.45 7.012-9.32 13.172 1.139 6.157 7.145 10.253 13.437 9.126z"/><path d="M103.298 104.078L84.396 76.492l1.835-28.424c.006-.166 13.584-8.477 13.584-8.477l16.287-13.229c2.104-1.578 3.018-3.642 1.931-5.754-1.086-2.112-3.876-3.157-5.864-1.895L95.343 30.789l-20.04 5.938c-1.897.563-3.917.583-5.826.063l-21.986-6-15.734-12.077c-1.893-1.243-4.78-.217-5.865 1.895-1.087 2.112.089 4.195 1.93 5.754l15.194 13.229 15.551 8.477.889 28.424-19.506 28.55-12.64 22.354c-1.48 2.001-1.021 4.805 1.021 6.256.193.138.397.26.606.364 1.969.988 4.432.445 5.772-1.364l16.576-23.28L71.94 91.164l20.717 17.415 16.516 24.073c1.338 1.81 3.802 2.353 5.771 1.364.209-.104.411-.227.606-.364 2.042-1.451 2.501-4.255 1.021-6.256l-13.273-23.318z"/></svg>