<svg viewBox="0 0 144 144" xmlns="http://www.w3.org/2000/svg"><path d="M73.562 7.502a12.055 11.776 0 0 0-12.055 11.775 12.055 11.776 0 0 0 12.055 11.777 12.055 11.776 0 0 0 12.055-11.777A12.055 11.776 0 0 0 73.562 7.502zM23.74 26.387c-1.795 0-3.252 1.4227-3.252 3.1777v110.75c0 1.754 1.457 3.1777 3.252 3.1777 1.796 0 3.2539-1.4237 3.2539-3.1777v-103.29h13.021l2.7637 15.559c.735 4.135 5.5723 6.1744 9.1543 3.8574l8.8477-5.7227 1.252 18.482c0 .417-2.7227 31.348-2.7227 31.348l-.375 26.838c-.124 2.64 2.0567 4.8359 4.7617 4.7969l.23242-.00391c2.42-.036 4.4154-1.8636 4.6074-4.2226l2.041-23.625 3-20.654 3.002 20.654 2.041 23.625c.193 2.358 2.1884 4.1866 4.6094 4.2226l.23242.00391c2.703.039 4.8818-2.1569 4.7578-4.7969l-.375-26.838s-2.7227-30.931-2.7227-31.348l1.252-18.482 8.7246 5.6738c3.588 2.334 8.4459.28672 9.1719-3.8633l2.709-15.504h13.012v103.29c0 1.754 1.456 3.1777 3.252 3.1777s3.2539-1.4237 3.2539-3.1777v-110.75c0-1.754-1.4579-3.1777-3.2539-3.1777s-3.252 1.4227-3.252 3.1777v3.7188h-12.387c.146-2.68-1.766-4.9629-4.207-4.9629-2.245 0-4.0977 1.9408-4.2227 4.4238l-.10352.53906h-50.82l-.097656-.53906c-.129-2.483-2.0585-4.4238-4.3945-4.4238-2.543 0-4.5319 2.2829-4.3809 4.9629h-12.385v-3.7188c0-1.754-1.4589-3.1777-3.2539-3.1777zm25.189 10.637h11.24c-1.314.821-2.5292 1.8001-3.5742 2.9551l-6.0098 6.1777-1.6562-9.1328zm38.059 0h11.371l-1.7461 9.1328-6.0508-6.1777c-1.044-1.155-2.2612-2.1341-3.5742-2.9551z"/></svg>