<svg xmlns="http://www.w3.org/2000/svg" viewBox="0 0 144 144"><path d="M130.86 39.672c-6.837-1.053-13.245 3.592-14.308 10.382-1.061 6.792 3.627 13.15 10.466 14.203 6.845 1.053 13.252-3.597 14.313-10.388 1.061-6.79-3.628-13.142-10.471-14.197zM114.39 86.253l2.23-20.311c-.007-.043-.021-.084-.027-.125.02-1.262-.157-2.607-.551-4.036-2.042-7.412-9.754-11.779-17.221-9.749L66.75 64.25c-.914.249-1.791.555-2.617.916-2.441.886-6.321 3.796-7.184 4.456L37.247 82.767l-31.4 9.927c-2.457.724-3.876 3.343-3.173 5.845.527 1.874 2.094 3.152 3.88 3.374.601.073 1.225.029 1.843-.154l32.162-7.196c.178-.051.354-.109.527-.178L72.344 81.91l32.291-5.1-.228 12.022c.369 2.298 7.281 19.011 7.281 19.011.036.252.097.491.175.723.657 1.951 2.649 3.208 4.768 2.888 2.37-.356 3.999-2.553 3.639-4.903l-5.88-20.298z"/></svg>