<svg xmlns="http://www.w3.org/2000/svg" viewBox="0 0 144 144"><path d="M94.955 48.842c6.462-.782 11.062-6.62 10.276-13.047-.787-6.423-6.66-10.99-13.121-10.207-6.458.779-11.06 6.615-10.272 13.039.783 6.425 6.66 10.997 13.117 10.215z"/><path d="M140.47 42.538c-4.037-2.862-10.576-.618-14.612 5.01-2.575 3.594-3.489 7.689-2.772 10.93l.263 6.527-5.327 7.034-15.754-5.488c-.745-.61-11.833-8.975-14.034-10.954-.927-.833-2.522-3.562-3.693-5.691-.994-1.811-2.449-3.322-4.243-4.36-3.466-2.013-9.098-5.254-10.462-5.875-.85-.388-1.727-.725-2.633-.951-1.172-.292-14.722-.582-17.169-.399-.252.02-.504.042-.756.066-.238.025-.403.061-.636.122-2.465.659-18.592 4.975-18.592 4.975-2.019.693-3.09 2.885-2.394 4.893.133.379.319.725.547 1.033.977 1.316 2.554 1.669 4.373 1.347L52.6 48.309l11.036 1.916-14.134 15.667c-.175.113-4.423 5.342-4.592 5.469L30.863 97.372 6.329 112.135c-2.367.953-3.463 3.682-2.464 6.096 1 2.41 3.724 3.596 6.083 2.64 0 0 26.576-13.271 26.729-13.348 1.919-.968 4.743-3.363 6.98-6.01 2.276-2.693 11.708-14.105 11.708-14.105L75.9 89.011l2.438 28.528c.224 2.011 1.911 3.592 3.98 3.919.378.06.771.079 1.17.049 2.577-.188 4.013-2.389 4.182-4.652 0 0 1.344-23.252 1.905-30.252.32-3.967-1.133-6.272-4.009-7.421-4.935-1.976-14.562-5.168-14.562-5.168l11.014-7.03s9.884 6.291 13.313 8.422c.476.295.969.505 1.509.651l15.461 3.539-2.397 3.164 1.56 1.147 2.878-3.847 2.985.685c2.133.288 4.196-1.366 4.602-3.694.075-.442.088-.876.045-1.291-.155-1.413-.945-2.378-2.163-3.011l5.019-6.709 5.81-1.912-.048-.04c3.42-.247 7.197-2.448 9.878-6.189 4.032-5.625 4.032-12.507 0-15.361zm-15.876 22.471l-.064-3.357c.381.477.824.903 1.332 1.263.634.449 1.344.729 2.082.933l-3.35 1.161zm14.471-8.103c-3.262 4.544-8.543 6.358-11.803 4.05-3.252-2.31-3.256-7.866.004-12.413 3.256-4.549 8.535-6.361 11.795-4.053 3.264 2.313 3.264 7.868.004 12.416z"/></svg>