<svg xmlns="http://www.w3.org/2000/svg" viewBox="0 0 144 144"><path d="M54.547 47.271c5.177.057 9.431-4.1 9.483-9.287.061-5.187-4.099-9.441-9.289-9.491-5.19-.059-9.438 4.105-9.497 9.293-.048 5.183 4.109 9.437 9.303 9.485zM2.715 91.808c-.076-.354-.154-.649-.23-1.033 0-.001.056.408.23 1.033zM113.395 100.733c-1.809.085-7.057.11-7.414.09-1.729-.1-3.74-.364-5.877-.73.826-1.388 1.703-2.856 2.617-4.389 4.216.505 8.557.649 13.249.238 3.516-.309 6.902-1.23 10.29-2.251 13.365-4.04 14.634-8.593 14.634-8.593s2.183-10.981-13.104-10.858c-2.423.019-6.722.027-12.298.029 4.068-6.846 7.165-12.067 7.614-12.869.114-.204.18-.367.273-.551l1.392-1.021c1.401-1.253 1.52-3.4.267-4.8-1.252-1.398-3.401-1.519-4.8-.266l-9.737 5.397-5.493-8.269-.012.01c-.993-1.577-2.67-3.058-5.525-3.908-.11-.017-.221-.022-.332-.033-4.089-1.088-8.568.582-10.863 4.39l-11.29 21.257-.401.624c-3.689-.005-7.421-.011-11.158-.014 4.053-6.818 7.137-12.019 7.584-12.817.114-.204.18-.367.273-.551l1.392-1.021c1.401-1.253 1.52-3.4.267-4.8-1.252-1.398-3.401-1.519-4.8-.266l-9.736 5.397-5.494-8.269-.012.01c-.993-1.577-2.67-3.058-5.524-3.908-.111-.017-.223-.022-.333-.033-4.089-1.088-8.569.582-10.864 4.39L26.89 73.605l-.39.606c-3.663.005-7.061.014-10.085.026-3.488.012-11.369 2.231-11.369 8.78 0 6.554.447 11.011 6.409 12.367 3.502.799 11.035-1.514 13.53-2.287 15.097-4.679 22.772-5.826 28.906-5.907-.823 1.399-1.635 2.781-2.433 4.14-6.826.625-17.405 3.843-28.334 7.685-3.228 1.138-6.416 1.035-8.775.983-8.52-.185-10.974-5.831-11.632-8.193 1.634 7.62 3.426 8.938 6.593 10.439 3.532 1.673 10.166 1.676 13.815.642 6.77-1.922 15.761-6.775 26.191-7.914-5.075 8.622-9.063 15.35-9.333 15.664-.895-.767-4.159.321-4.159.321s-7.668 8.957-9.143 11.585c-1.468 2.621-.506 4.114.386 4.988 2.029 1.982 7.938 5.24 10.496 5.878 2.564.64 4.029-1.985 4.029-1.985s5.048-10.427 5.688-12.989c.639-2.557-1.219-4.923-1.219-4.923l-2.688-2.301s4.35-7.29 9.807-16.441c.317-.004.622-.047.941-.044 12.249.152 30.183 5.071 40.637 8.137-2.685 4.533-4.501 7.565-4.68 7.774-.895-.767-4.159.321-4.159.321s-7.668 8.957-9.143 11.585c-1.468 2.621-.506 4.114.386 4.988 2.029 1.982 7.939 5.24 10.497 5.878 2.563.64 4.029-1.985 4.029-1.985s5.049-10.427 5.688-12.989c.639-2.557-1.219-4.923-1.219-4.923l-2.688-2.301s1.757-2.946 4.427-7.421c2.912.867 4.851 1.453 5.223 1.478 2.46.16 18.082-1.856 21.713-3.022 9.94-3.196 14.425-7.365 17.677-12.816 0 .002-11.204 10.493-29.114 11.304zm-11.667-36.476l4.34 4.063c.947 1.162 1.9 1.604 2.716 1.742.063.01 2.062.157 3.127-.796l4.487-3.292c-1.383 2.362-3.04 5.192-4.857 8.293-3.961 0-8.393-.005-13.164-.009l-4.587-.299 7.938-9.702zm-54.282 9.946l-3.754-.243 7.939-9.703 4.34 4.063c.949 1.162 1.9 1.604 2.715 1.742.064.01 2.063.157 3.127-.796l4.487-3.292c-1.375 2.348-3.021 5.159-4.824 8.24-4.745-.005-9.45-.009-14.03-.011zM96.769 99.46c-8.787-1.791-18.371-4.695-19.479-4.993-7.189-1.941-14.559-3.141-22.007-3.221.783-1.313 1.576-2.643 2.377-3.987.549.026 1.097.054 1.646.086 7.596.46 17.917 2.578 22.341 3.741 6.162 1.617 11.841 3.153 17.636 4.11-.878 1.49-1.72 2.915-2.514 4.264zM104.645 47.271c5.177.057 9.429-4.1 9.483-9.287.06-5.187-4.1-9.441-9.289-9.491-5.189-.059-9.438 4.105-9.498 9.293-.048 5.183 4.108 9.437 9.304 9.485z"/></svg>