<svg xmlns="http://www.w3.org/2000/svg" viewBox="0 0 144 144"><path d="M54.418 71.234s-4.219-8.319-2.489-12.943c1.275-3.406-3.351-8.961-14.215-1.492-4.664 3.208-3.128 8.843-2.192 11.234.14.439 10.661 21.326 10.661 21.326 1.891 3.518 6.26 4.912 9.875 3.2.087-.041.172-.082.255-.127 3.66-1.899 5.06-6.357 3.126-9.959l-5.021-11.239zM59.579 49.422c5.521-1.857 8.472-7.763 6.581-13.195-1.889-5.429-7.895-8.319-13.417-6.462-5.521 1.857-8.47 7.759-6.581 13.188 1.888 5.432 7.898 8.325 13.417 6.469z"/><path d="M111.405 91.135c-1.401-3.596-5.787-13.765-8.415-19.827-1.128-2.601-4.194-3.801-6.834-2.677L80.284 75.39l-3.646-11.657 12.216-6.354c1.067-.616 1.97-1.266 2.706-2.244l8.645-11.635c1.2-1.724.755-4.082-.998-5.262-.332-.224-.687-.39-1.051-.501-1.568-.473-3.326.082-4.302 1.479l-8.597 10.041-7.947 3.126 7.366-6.689c1.37-1.146 6.061-8.811 8.73-13.268 1.077-1.798.549-4.106-1.2-5.288-1.81-1.221-4.277-.798-5.563.95l-8.1 11.032-18.51 13.24c-4.725 2.512-6.838 8.16-4.672 13.106l8.14 19.958c2.573 6.31 5.46 9.026 10.87 12.991 5.409 3.965 15.457 9.656 15.457 9.656l8.613 21.851c.871 2.323 3.445 3.561 5.843 2.806 2.411-.759 3.779-3.26 3.093-5.657l-7.004-22.54c-.555-1.854-1.791-3.223-3.14-4.628L84.677 87.492l11.433-6.649 7.156 13.42c.9 2.198 3.439 3.267 5.678 2.386 2.216-.873 3.314-3.322 2.461-5.514z"/><path d="M136.781 138.173h-14.395l-4.747-7.623 6.144-8.056c.431-.563.615-1.271.515-1.967l-4.379-30.51 5.917-18.984c.266-.855.077-1.785-.502-2.473l-9.223-10.98v-7.33c0-.369-.079-.733-.23-1.071l-8.53-19.117c-.455-1.024-1.5-1.696-2.658-1.586l-1.702.111-5.395-21.76h21.827c1.494 0 2.705-1.191 2.705-2.661 0-1.469-1.211-2.661-2.705-2.661H94.152c-.83 0-1.615.375-2.126 1.017-.514.643-.698 1.481-.502 2.275l6.749 27.223c.313 1.254 1.474 2.163 2.81 2.022l2.073-.135 7.544 16.9v7.729c0 .618.221 1.217.62 1.694l8.916 10.613-5.667 18.181c-.114.372-.146.764-.092 1.15l4.308 30.006-6.576 8.62c-.664.872-.721 2.054-.144 2.985l6.498 10.437c.493.788 1.367 1.271 2.309 1.271h15.909c1.494 0 2.706-1.191 2.706-2.66s-1.212-2.66-2.706-2.66z"/></svg>