<svg xmlns="http://www.w3.org/2000/svg" viewBox="0 0 144 144"><path d="M17.908 54.555c5.578-1.606 8.833-7.535 7.245-13.236-1.581-5.703-7.394-9.015-12.983-7.396-5.593 1.609-8.836 7.547-7.259 13.247 1.588 5.699 7.401 9.016 12.997 7.385zM142.486 92.317c0-10.502-8.272-19.007-18.531-19.17L54.471 62.493c-.053-.285-.127-.565-.255-.836-.805-1.72-2.825-2.45-4.511-1.633l-11.356 4.785-15.738-6.982c-.215-.103-.43-.199-.649-.288l-.359-.158c-.428-.203-.863-.305-1.292-.356-1.941-.418-4.02-.277-5.999.529-5.327 2.173-7.917 8.338-5.786 13.771.879 2.242 9.107 22.119 26.834 29.194 1.244.496 2.524.731 3.783.731 1.384 0 2.733-.308 3.988-.841.438-.115.873-.263 1.297-.461l23.764-14.06 24.22 9.964c1.993 1.027 4.426.213 5.437-1.818 1.007-2.036.209-4.516-1.785-5.546L70.509 73.807c-1.663-.858-3.62-.896-5.316-.101l-21.731 9.771c-4.731-2.224-9.018-7.909-11.956-12.824l5.698 2.311c.566.268 1.179.399 1.787.399.63 0 1.257-.141 1.839-.424l11.238-6.373 61.729 9.466c-5.357 3.385-8.956 9.385-8.956 16.285 0 4.396 1.505 8.397 3.941 11.634H10.751c-2.04 0-3.693 1.687-3.693 3.767 0 2.079 1.654 3.766 3.693 3.766h112.586c.111.002.215.033.325.033.111 0 .215-.031.325-.033h.354l-.054-.031c10.103-.345 18.199-8.751 18.199-19.136zm-18.823 12.581c-6.813 0-12.336-5.634-12.336-12.581 0-6.948 5.523-12.582 12.336-12.582s12.335 5.634 12.335 12.582-5.522 12.581-12.335 12.581z"/></svg>