<svg xmlns="http://www.w3.org/2000/svg" viewBox="0 0 144 144"><path d="M96.648 77.85l-4.792 4.946-4.383.021.004-.153 5.062-5.209 5.649-3.278 1.664.911c1.803.668 3.805-.262 4.47-2.075.293-.802.233-1.63-.034-2.376l5.596-3.246s1.165-1.088.453-2.3c-.682-1.162-2.182-.788-2.182-.788l-6.495 3.801-.021-.016 4.893-5.036s.733-1.367-.217-2.319c-.993-.993-2.328-.125-2.328-.125l-5.269 5.46-9.477-6.555c-2.621-2.173-5.246-4.345-7.871-6.514-1.647-1.362-3.295-2.724-4.945-4.082-.658-.542-1.317-1.083-1.977-1.623-1.579-1.297-2.881-2.53-4.859-3.211-2.597-.894-5.517-.754-7.9.655-2.304 1.36-4.017 3.566-5.487 5.76-3.236 4.826-4.257 10.731-4.817 16.415-.513 5.191-1.428 11.066.525 16.072l-1.01.004-4.976-5.137c-.261-.081-.474-.148-.738-.231L2.485 85.765v15.841h41.052l-.91.511.002.003-11.016 6.178c-.024.014-1.49-1.627-2.625-2.908-.757-.853-2.017-1.02-2.969-.396L8.486 116.095c-1.063.696-1.035 2.269.053 2.922l6.648 7.436c.553.333 1.247.325 1.792-.021l17.618-9.599c1.311-.503 1.159-1.254 1.035-1.586-.209-.559-1.711-4.183-1.711-4.183l16.846-9.459h13.746L51.36 115.526s-3.124-2.36-3.609-2.703c-.288-.203-.973-.537-1.785.615l-13.614 14.78c-.469.447-.648 1.12-.466 1.742l5.519 8.319c.36 1.219 1.871 1.636 2.802.773l15.042-14.326c.838-.774.991-2.041.354-2.991-.95-1.424-2.169-3.257-2.15-3.278l8.682-9.195.003.001 7.231-7.658h73.123V87.317L96.648 77.85zm-8.869-9.376l5.638 3.087-3.023 3.134-2.781 1.628.166-7.849zm-20.358 2.748l4.03-11.4c.972.509 3.071 1.629 4.143 2.19l-8.173 9.21zm11.747 10.044l-2.738 1.601-6.974.033c4.619-4.357 10.03-10.196 10.03-10.268l-.318 8.634zM80.481 44.829c5.196-1.54 8.171-7.033 6.631-12.265-1.532-5.236-6.998-8.228-12.203-6.677-5.208 1.544-8.177 7.044-6.643 12.279 1.543 5.226 7.006 8.22 12.215 6.663z"/></svg>