<svg xmlns="http://www.w3.org/2000/svg" viewBox="0 0 144 144"><g fill-rule="evenodd" clip-rule="evenodd"><path d="M94.161 33.809c6.604.218 12.132-5.05 12.346-11.766.212-6.716-4.969-12.328-11.572-12.546-6.599-.217-12.127 5.043-12.34 11.759-.216 6.717 4.967 12.335 11.566 12.553zM92.93 35.789l-1.127-.356c-1.234-.391-3.989-.542-5.228-.592-.069-.015-28.167-.096-28.167-.096-1.486-.086-3.041.385-3.965 1.57-.607.776-9.046 13.826-9.16 13.997-1.345 2.007-1.709 3.68-.876 5.23-5.465 2.377-10.611 9.583-9.651 12.757 1.016 3.379 10.317 6.678 16.158 4.859.621-.195 1.243-.488 1.858-.812.354-.189.689-.396 1.017-.605.784 1.122 2.08 1.831 3.52 1.677l8.899-.816c-.161.755-.311 1.462-.455 2.14l-16.463 27.83-23.84 12.898s-3.064 2.355-1.529 5.745c1.456 3.215 5.152 2.166 5.152 2.166.008-.007.014-.016.022-.021l25.641-8.75c2.604-1.336 4.901-3.218 6.741-5.521l16.747-20.956 8.845 13.765-8.841 29.383s-.892 3.526 3.077 4.949c3.661 1.311 5.731-2.645 5.731-2.645l13.233-25.292c1.996-3.804 1.843-8.404-.404-12.062L90.484 78.02c3.002-6.057 10.427-21.138 11.461-24.191 4.413-13.037-2.83-16.084-9.015-18.04zm-24.833 27.91c-2.771.455-5.646.925-7.855 1.285 1.146-1.946 1.755-3.81 1.382-5.047-.642-2.137-3.252-3.239-5.116-3.957-1.329-.514-2.719-.834-4.125-1.052 2.609-3.16 7.687-9.307 7.723-9.343l11.94-.349c-.047.132-2.03 9.433-3.949 18.463z"/></g></svg>