<svg xmlns="http://www.w3.org/2000/svg" viewBox="0 0 144 144"><path d="M90.298 37.104c6.826.614 12.861-4.393 13.479-11.177.617-6.786-4.419-12.779-11.241-13.393-6.821-.616-12.856 4.384-13.474 11.169-.617 6.79 4.418 12.785 11.236 13.401zM110.988 45.651c-2.33-1.264-5.252-.412-6.524 1.905l-5.725 9.449-7.032-14.229c-.138-.183-.288-.354-.441-.517-1.433-1.99-3.539-3.569-6.137-4.362-.725-.222-1.455-.367-2.183-.451-.064-.014-.127-.034-.192-.043l-23.305-2.746c-.007-.003-.012-.003-.019-.003-2.345-.406-4.681.748-5.773 2.853l-7.19 15.703c-1.146 2.21-.274 4.927 1.947 6.066.42.215.859.359 1.302.436 1.898.329 3.867-.58 4.797-2.373l6.983-11.318 8.132 2.183-5.897 23.083c-.012.013-.023.023-.034.039l-17.18 21.136-20.68-4.742c-2.883-.565-5.669 1.376-6.238 4.328-.565 2.947 1.308 5.793 4.184 6.356l24.142 6.451c.172.032.344.058.517.077 2.151.238 4.289-.526 5.677-2.054L70.07 89.844l14.281 14.646-3.994 25.058c.16 2.379 2.059 4.326 4.477 4.819.444.089.905.133 1.373.119 3.045-.087 5.358-2.441 5.168-5.254l6.075-27.119c-.086-1.3-.619-2.55-1.518-3.576L82.346 77.37l6.255-15.208 5.981 7.186c1.006 1.512 2.7 2.416 4.513 2.424.086 0 .174 0 .261-.005 1.905-.081 3.632-1.148 4.546-2.817l8.998-16.814c1.275-2.317.416-5.219-1.912-6.485z"/></svg>