<svg xmlns="http://www.w3.org/2000/svg" viewBox="0 0 144 144"><path d="M128.504 85.255s-.928-3.935-3.348-9.999l-41.907 33.707c.878 3.954 1.839 8.305 2.932 13.132v3.785c-.042.015-.082.024-.124.038-1.285.411-2.522.845-3.726 1.282.524-.868.709-1.9.467-2.872-.118-.478-.335-.936-.651-1.351l-13.678-20.21c-.074-.119-.154-.233-.24-.346L50.091 84.086 45.139 69.86l7.521 2.905 13.517 3.273c1.411.456 2.901-.143 3.656-1.364.146-.233.261-.486.346-.761.529-1.715-.402-3.545-2.082-4.085l-12.034-4.135 4.043-15.256c.044-.262-.009-.51-.022-.765 3.969 6.342 7.086 11.713 9.588 16.605l35.852-23.11c-8.189-9.32-19.088-18.366-33.405-24.997L46.852 29.48c4.44 6.577 8.188 12.257 11.425 17.336-.298-.157-.598-.313-.946-.372-1.843-.317-3.591.951-3.904 2.834l-4.23 10.476-7.875-2.586c-.657-.394-1.32-.778-1.97-1.181-1.292-.807-2.603-1.647-4.096-2.003-1.609-.382-3.167-.051-4.655.622-5.28 2.381-7.67 8.687-5.339 14.079l12.496 24.086c.365.604.765 1.172 1.191 1.693 1.089 1.531 3.842 3.657 4.609 4.275l16.804 8.915 15.762 19.976c.506.66 1.21 1.038 1.959 1.244-6.911 2.946-11.432 6.048-10.892 7.802.727 2.368 16.603 2.433 22.717.365 6.772-2.288 18.372-10.942 17.646-13.311-.663-2.149-8.694-1.514-18.515 1.301v-2.849c6.214-5.46 23.666-21 39.465-36.927z"/><path d="M82.537 105.766l41.446-33.334c-3.224-7.453-8.464-17.261-16.547-26.998l-36.445 23.49c5.634 11.648 8.064 21.246 11.546 36.842zM45.172 26.999l23.313-10.435C59.169 12.68 48.501 9.8 36.262 8.492c-1.936-.206-2.871 1.282-1.795 2.845 3.94 5.727 7.481 10.906 10.705 15.662zM39.185 42.523c.026-5.272-4.136-9.571-9.297-9.598-5.163-.026-9.361 4.229-9.389 9.501-.028 5.271 4.131 9.569 9.292 9.594 5.163.029 9.368-4.226 9.394-9.497z"/></svg>