<svg xmlns="http://www.w3.org/2000/svg" viewBox="0 0 144 144"><path d="M118.263 55.573l-5.938-2.143s.257 5.732-1.251 8.209l-6.841 11.222h.003l-4.362 7.149-.756.435c-1.151.663-2.628.925-4.274.804-2.178-.159-4.645-.983-7.038-2.418-1.188-.71-2.231-1.514-3.143-2.361l-16.882-1.377-15.879-22.365c-.154-.152-1.769-1.181-2.516-1.282-1.388-.31-3.287-.321-5.906.226-9.894 2.063-22.466-3.868-27.968-6.878-1.974-1.078.805 1.812 1.6 2.428 6.515 5.046 22.624 11.246 28.573 11.249l13.075 23.51c1.236 2.221 3.425 3.761 5.947 4.181l14.14 2.356s-11.282 8.065-11.327 8.075l-25.957 3.152c-.892.126-1.739.368-2.557.737-5.51 2.481-27.824 12.661-28.823 15.101-1.139 2.785 5.568 3.354 8.148 11.229 2.582 7.874 16.2-17.362 24.725-18.554 0 0 26.545.246 27.437-.068.844-.079 1.661-.263 2.388-.636l.124-.053c.022-.014.044-.024.063-.036l23.807-11.607c4.643-2.186 8.813-5.245 12.276-9.011l6.951-7.552s-.708 6.685-.786 6.931l-4.713 15.826c-.658 2.21.614 4.533 2.844 5.188 2.176.64 4.473-.547 5.192-2.679l5.911-15.844c.198-.152 1.324-12.159 1.995-19.397.558-5.991-2.581-11.689-8.282-13.747z"/><ellipse transform="matrix(-.0435 .9991 -.9991 -.0435 148.0996 -98.923)" cx="121.403" cy="21.432" rx="1.548" ry="1.56"/><path d="M123.116 12.167c1.892.081 3.49-1.373 3.573-3.247.082-1.875-1.384-3.459-3.274-3.54-1.89-.083-3.489 1.371-3.571 3.245-.082 1.875 1.383 3.46 3.272 3.542z"/><ellipse transform="matrix(-.0438 .999 -.999 -.0438 137.7244 -101.3808)" cx="117.378" cy="15.218" rx="2.073" ry="2.091"/><path d="M134.92 42.998l-1.084-5.324c-.151-.742-.887-1.227-1.637-1.076-.097.018-.174.071-.262.109-2.111-3.375-6.016-5.464-10.267-5.014-5.929.608-10.218 5.881-9.598 11.754.629 5.87 5.936 10.132 11.871 9.499 4.721-.492 8.365-3.964 9.339-8.327.178.035.362.038.55 0 .749-.148 1.238-.878 1.088-1.621zM89.573 75.931c3.475 2.081 6.6 2.29 7.826 1.584l.936-1.533c-2.222-.103-4.784-.887-7.326-2.41-2.54-1.522-4.432-3.404-5.557-5.305l-.933 1.533c-.06 1.403 1.579 4.048 5.054 6.131zM92.779 70.67c3.476 2.084 6.601 2.292 7.826 1.585l3.384-5.552 4.157-6.819c2.141-3.512.993-8.122-2.549-10.243-3.542-2.123-8.191-.987-10.331 2.525l-4.157 6.818-3.384 5.552c-.059 1.407 1.579 4.051 5.054 6.134z"/></svg>