<svg viewBox="0 0 144 144" xmlns="http://www.w3.org/2000/svg"><path d="M83.509 114.126c2.331 0 4.237-1.947 4.237-4.33 0-2.379-1.906-4.328-4.237-4.328H61.241c-2.331 0-4.24 1.949-4.24 4.328 0 2.383 1.909 4.33 4.24 4.33h9.158v8.366h-3.454c-5.369 0-8.702 2.777-8.702 7.248v2.742c0 1.116.884 2.02 1.978 2.02s1.978-.903 1.978-2.02v-2.742c0-.793 0-3.208 4.747-3.208h10.858c4.747 0 4.747 2.415 4.747 3.208v2.742c0 1.116.885 2.02 1.978 2.02s1.978-.903 1.978-2.02v-2.742c0-4.471-3.334-7.248-8.702-7.248h-3.449v-8.366h9.153z"/><path d="M72.533 14.5a12.54 12.809 0 0 0-12.541 12.809 12.54 12.809 0 0 0 12.541 12.809 12.54 12.809 0 0 0 12.539-12.809A12.54 12.809 0 0 0 72.533 14.5zM28.51 17.0391c-.921-.038-1.6984.69767-1.7344 1.6387l-.28125 7.4727c-.037.943.68247 1.7365 1.6055 1.7715l3.2617.12695c.923.037 1.7004-.69662 1.7344-1.6406l.2832-7.4688c.035-.943-.68342-1.7355-1.6074-1.7715l-3.2617-.12891zm12.008 1.0625c-4.987 0-4.8594 5.3691-4.8594 5.3691l-.69141 19.328c-.097 2.685 1.3904 5.1676 3.7754 6.3066l20.105 9.0879 2.5098 23.568-15.217 13.199c-1.698 1.472-2.7109 3.5913-2.7949 5.8613-.299 7.976-.98176 26.631-.88476 27.02 0 0 .065687 4.2773 4.4297 4.2773 4.264 0 4.7715-4.2773 4.7715-4.2773l2.918-24.883 18.004-9.4961 17.992 9.4961 3.041 24.936s.4963 4.1738 4.6543 4.1738c4.26 0 4.3262-4.1738 4.3262-4.1738.094-.379-.52974-19.062-.80274-27.057-.077-2.28-1.089-4.4107-2.793-5.8887l-15.191-13.188 2.5078-23.568 20.109-9.0879c2.384-1.139 3.8685-3.6216 3.7715-6.3086l-.68945-19.326s.12957-5.3691-4.8574-5.3691c-5.153 0-5.1484 5.3691-5.1484 5.3691l.17188 16.381-11.916 4.3398-11.303-1.8828c-2.564-.428-5.181-.428-7.748 0l-11.301 1.8828-11.914-4.3398.16797-16.381s.005469-5.3691-5.1445-5.3691z"/><path d="M49.136 28.055l3.264.128c.921.037 1.697-.697 1.734-1.64l.282-7.471c.037-.943-.682-1.736-1.605-1.771l-3.264-.13c-.921-.036-1.698.698-1.734 1.639l-.282 7.472c-.035.943.684 1.738 1.605 1.773zm69.072-9.378c-.037-.941-.813-1.675-1.734-1.637l-3.264.128c-.922.036-1.643.829-1.605 1.772l.284 7.47c.034.943.811 1.677 1.732 1.64l3.264-.128c.921-.036 1.64-.829 1.604-1.771l-.281-7.474zm-25.625 9.507l3.265-.128c.921-.036 1.64-.831 1.603-1.772l-.282-7.472c-.034-.941-.811-1.675-1.734-1.639l-3.264.13c-.921.036-1.64.829-1.603 1.771l.282 7.471c.034.942.81 1.676 1.733 1.639z"/></svg>