<svg xmlns="http://www.w3.org/2000/svg" viewBox="0 0 144 144"><path d="M131.798 104.988l-24.001-32.166c-4.198-5.249-11.926-5.949-17.001-1.543L64.639 97.952 47.033 73.679l24.108-10.365c2.18-1.474 3.807-4.014 3.911-6.642.103-2.629-1.051-5.151-3.106-6.789L47.624 37.106c-.439-.231-.895-.396-1.355-.51-2.002-6.983-8.424-12.1-16.056-12.1-9.23 0-16.714 7.479-16.714 16.704 0 9.227 7.483 16.705 16.714 16.705 6.204 0 11.605-3.384 14.489-8.399l10.219 6.298-.821.155.159-.063-21.918 5.937c-6.433 1.719-11.762 8.571-11.44 15.22.128 2.604.731 5.258 1.705 7.777 2.586 6.69 14.8 20.714 26.485 31.478 9.59 8.837 19.846 8.198 28.31-1.722l21.091-25.025 22.844 25.175s4.658 4.586 9.832-.331c4.844-4.607.63-9.417.63-9.417z"/></svg>