<svg xmlns="http://www.w3.org/2000/svg" viewBox="0 0 144 144"><path d="M108.317 37.814c5.908 3.077 13.272.901 16.431-4.875 3.168-5.771.932-12.953-4.996-16.03-5.923-3.086-13.286-.899-16.453 4.875-3.151 5.773-.918 12.953 5.018 16.03zM14.329 52.704l5.143.355-.165 2.285c-.048.662.468 1.241 1.146 1.288.68.047 1.274-.457 1.321-1.118l.167-2.287 35.418 2.436c-1.39 3.361-1.569 7.548-.058 10.013.146.31.483.876 1.221 1.664.565.706 1.252 1.332 2.062 1.833 2.525 1.949 6.901 4.538 14.498 7.511l11.016 4.834 2.33 1.123-20.444 16.188c-2.362 1.603-2.946 4.77-1.3 7.072.377.527.837.964 1.352 1.303 1.732 1.146 4.082 1.199 5.903-.035L104.008 85.9c1.573-1.067 2.477-4.07 2.164-5.915-.312-1.843-1.564-4.195-3.271-5.051L79.919 61.37l8.521-3.568 7.537.518 1.402 3.885c.397 1.85 1.227 2.9 2.079 3.529.067.048 2.273 1.375 4.066.928l20.4-3.077c1.619-.403 2.738-1.654 3.12-3.128l1.087.075c.757.052 1.422-.509 1.476-1.249.052-.739-.523-1.386-1.281-1.438l-1.54-.105c-.854-1.882-2.929-2.991-5.042-2.464l-14.4.374c-.214-1.953-.43-3.907-.646-5.859-.151-1.368-.303-2.738-.456-4.106-.153-1.363-.274-2.735-.587-4.075-.305-1.311-.867-2.507-1.64-3.622-1.145-1.648-2.677-3.029-4.434-4.059-1.626-.952-3.47-1.54-5.358-1.71-1.915-.174-3.865.085-5.661.758-.72.269-1.414.603-2.072.996L60.837 51.195c-.747.445-1.385 1.118-1.967 1.872l-36.734-2.526.157-2.167c.047-.663-.468-1.243-1.148-1.29-.679-.045-1.273.458-1.321 1.12l-.157 2.167-5.143-.353c-.758-.052-2.313 1.191-2.313 1.191s1.36 1.443 2.118 1.495zm80.496 2.424l.153.424-1.001-.069.848-.355zM141.607 127.548c-.596-.468-1.379-.713-2.143-.675-1.239.062-2.207 1.133-3.29 1.624-1.163.53-2.592.944-3.866.572L6.379 92.436c-1.59-.462-3.259.418-3.733 1.969-.475 1.549.428 3.176 2.017 3.639.287.083.574.167.86.25.816.237 122.453 35.613 123.374 35.876 1.937.553 3.855 1.309 5.902 1.337 1.725.022 3.431-.686 4.754-1.735.878-.699 1.794-1.531 2.393-2.479.742-1.176.856-2.805-.339-3.745z"/></svg>