<svg xmlns="http://www.w3.org/2000/svg" viewBox="0 0 144 144"><path d="M127.444 64.57c.4 1.005 1.546 1.501 2.556 1.103 1.013-.397 1.509-1.537 1.109-2.541-.399-1.005-1.546-1.5-2.559-1.103-1.011.399-1.505 1.538-1.106 2.541zM126.44 52.272c2.223-.874 3.311-3.37 2.433-5.577-.88-2.207-3.393-3.29-5.615-2.416-2.221.872-3.311 3.368-2.433 5.576.88 2.207 3.395 3.29 5.615 2.417zM122.378 61.171c1.356-.533 2.021-2.057 1.483-3.404-.534-1.346-2.068-2.006-3.425-1.474-1.354.534-2.02 2.057-1.484 3.403.537 1.347 2.071 2.007 3.426 1.475zM138.47 94.201l-1.388-4.925c-.193-.688-.917-1.092-1.609-.9-.09.025-.158.08-.237.121-.851-1.161-1.939-2.12-3.178-2.828l-.718-10.519.154-.01c.188-.013.331-.171.318-.357l-.06-.981c-.013-.187-.174-.327-.359-.316l-3.091.189c-.188.013-.33.171-.318.357l.061.981c.012.185.174.326.361.314l.155-.008.631 9.26c-1.257-.273-2.582-.329-3.931-.086-5.514.979-9.167 6.226-8.177 11.696 1 5.47 6.27 9.108 11.789 8.106 4.392-.785 7.564-4.297 8.174-8.461.167.021.342.012.515-.036.692-.192 1.1-.91.908-1.597zM122.475 116.65l-7.57-18.01c-1.808-4.396-11.253-19.378-13.46-22.647-.3-.442-.646-.829-1.048-1.182L88.995 65.57c-1.414-1.229-3.557-1.12-4.834.248-1.277 1.368-1.229 3.498.11 4.804l10.39 10.146 3.643 6.455s-9.142-1.616-9.992-2.21L73.083 63.461l-1.086-21.304s1.921-4.581-5.596-8.492c-8.204-4.27-14.227-17.062-17.322-19.786-1.544-1.361-1.002 1.188-.693 2.055.81 2.286 11.674 22.95 15.964 25.435h.003c-.067.342-.083.688-.04 1.025.002.007.004.014.005.021l-2.339 21.228c-.139 1.802.151 3.613.854 5.282l5.229 11.795-15.265-5.05c-.202-.201-16.198-12.29-16.198-12.29S14.763 48.642 12.003 48.952c-2.759.308-.327 5.839-5.594 11.351-5.267 5.511 13.226 1.691 21.095 6.651.412.258.784.42 1.176.631 0 0 16.932 15.576 17.462 15.926.379.4 1.37 1.083 1.37 1.083.017.01.038.021.055.03l28.06 18.133c.801.497 1.661.894 2.561 1.18l14.734 2.985 15.219 3.699s5.185 9.619 7.59 11.62l11.023 8.385c1.577 1.326 3.943 1.109 5.252-.479 1.237-1.502 1.086-3.7-.345-5.021l-9.186-8.476z"/></svg>