<svg xmlns="http://www.w3.org/2000/svg" viewBox="0 0 144 144"><path d="M84.809 28.732c6.225-.724 10.682-6.269 9.933-12.38-.736-6.114-6.395-10.481-12.633-9.748-6.238.725-10.687 6.276-9.948 12.391.75 6.106 6.404 10.475 12.648 9.737zM113.068 110.266l-2.318.382-9.609-56.183 1.162-.443c1.716-.917 2.347-3.023 1.411-4.704-.753-1.349-2.281-1.968-3.744-1.703l-.45-2.63c-.126-.733-.842-1.234-1.591-1.112-.75.125-1.261.827-1.136 1.56l.513 2.994-6.468 1.971-.338-1.935c.255-1.568.457-3.143.554-4.725.101-1.676.204-3.433-.088-5.099-.277-1.578-1.052-3.031-2.154-4.206-3.432-3.66-9.574-4.38-14.1-2.419-.579.25-1.064.603-1.536.964l-.018-.046-16.876 9.061c-1.445.69-2.434 2.041-2.649 3.591-.009.074-.018.149-.025.226-.148 1.641.594 3.24 1.953 4.212l11.747 10.913c.175.125.378.161.564.256-.021.198-.04.376-.059.567l-.099.013-3.08 9.536-6.295 17.012-20.733 20.042c-1.563 1.79-2.057 3.574-.991 5.484.087.174.188.337.301.487 1.432 1.975 4.06 2.511 5.868 1.189L65.19 97.762 60.22 119.8l-2.177-.471c-.664-.145-1.328.271-1.475.922-.147.652.277 1.305.941 1.447l2.178.473-1.113 4.937c-.165.727.869 2.417.869 2.417s1.665-1.106 1.829-1.833l1.113-4.937 2.296.498c.665.145 1.33-.272 1.476-.923.147-.652-.277-1.304-.941-1.448l-2.296-.496 5.77-25.585c.234-.287.456-.588.635-.918l6.724-13.708L81.306 97.5l1.281 28.001c-.118 2.171 1.429 4.037 3.551 4.426.185.034.371.055.564.065 2.396.128 4.448-1.674 4.578-4.026l1.934-29.385c.048-.999-.145-1.994-.544-2.947L87.763 67.01l.309-3.999c.02-.003.082-.013.082-.013l.579-3.8c.08-.036.167-.051.246-.093l9.531-3.637 9.515 55.627-2.198.361c-.671.109-1.129.738-1.016 1.397.11.657.753 1.106 1.425.995l2.199-.361.853 4.986c.125.734 1.729 1.923 1.729 1.923s1.122-1.637.995-2.371l-.852-4.986 2.317-.38c.673-.111 1.13-.74 1.018-1.396-.113-.659-.755-1.107-1.427-.997zM68.91 51.267l-3.357-3.587 3.916-1.74c-.143 1.359-.342 3.247-.559 5.327zM109.417 128.904c-.682-.274-1.473-.289-2.166-.049-1.125.393-1.716 1.645-2.577 2.395-.922.805-2.124 1.575-3.403 1.575H68.363c-1.596 0-2.888 1.266-2.888 2.83 0 1.565 1.292 2.831 2.888 2.831h.864c.819 0 29.412-.007 30.334-.012 1.943-.01 3.928.174 5.823-.354 1.598-.443 2.972-1.562 3.895-2.891.614-.886 1.223-1.906 1.508-2.945.354-1.288-.002-2.829-1.37-3.38zM50.525 127.113c-1.072-.517-2.399-.056-3.548-.136-1.231-.086-2.632-.392-3.526-1.289l-22.977-23.092c-1.115-1.119-2.941-1.141-4.084-.05-1.144 1.094-1.167 2.885-.053 4.004.202.202.404.405.604.607.572.574 20.542 20.633 21.19 21.276 1.364 1.355 2.615 2.877 4.324 3.84 1.438.81 3.215.995 4.83.713 1.077-.188 2.246-.473 3.203-.999 1.19-.651 2.066-1.978 1.513-3.321-.274-.668-.816-1.233-1.476-1.553z"/></svg>