<svg xmlns="http://www.w3.org/2000/svg" viewBox="0 0 144 144"><g fill-rule="evenodd" clip-rule="evenodd"><path d="M105.075 40.393c6.016 2.486 12.889-.42 15.352-6.491 2.462-6.071-.422-13-6.438-15.485-6.011-2.484-12.883.414-15.345 6.485-2.464 6.071.42 13.007 6.431 15.491zM130.41 123.767s-3.908-1.981-8.455-2.198c-1.153-.056-2.424-.49-3.534-.79-2.962-.805-5.809-2.042-8.675-3.138l-12.271-5.049 9.636-23.11c.804-1.53 1.192-5.658-1.714-8.411l-14.05-10.783s3.835-5.074 7.844-9.901l4.53 5.687c1.525 1.916 4.005 2.78 6.377 2.224l15.663-4.141c2.19-.617 2.875-3.385 1.923-5.416-.949-2.031-3.145-2.45-5.364-1.941l-10.814 1.995-4.482-8.899c-3.487-7.076-9.257-12.745-16.359-16.074l-10.492-4.919c-2.772-1.119-5.245-1.274-7.159-1.188l-12.186.019c-2.333-.275-4.451 1.411-4.724 3.769-.051.446-.033.883.043 1.303.337 1.795 1.796 3.241 3.688 3.464l12.848.961 9.894 6.797-12.305 16.585c-.43.578-1.957 2.793-3.278 4.622l-11.921 2.668c-2.108.473-3.862 1.938-4.716 3.939l-7.479 17.533-16.824-8.215s-12.049-5.518-16.786 2.406c0 0-4.943 4.041 1.73 12.892 0 0 3.787 5.302 11.829 7.167 0 0 56.721 19.458 72.616 25.351 1.955.724 3.823 1.582 5.655 2.58 5.666 3.089 21.492 10.498 29.663 2.036 0 0 6.418-5.244-.351-9.825zm-41.804-14.826l-35.944-14.79-1.182-.578 7.674-12.866 19.39-1.852 16.138 10.604-6.076 19.482z"/></g></svg>