<svg viewBox="0 0 144 144" xmlns="http://www.w3.org/2000/svg"><path d="M83.871 9.498c-6.476-.216-11.902 4.9728-12.111 11.594-.211 6.624 4.8756 12.162 11.352 12.377 6.48.214 11.905-4.9786 12.115-11.602.208-6.621-4.8755-12.155-11.355-12.369zM37.135 33.172c-2.0785.17088-3.8254 1.8155-4.0879 4.0117-.056.476-.038984.94167.041016 1.3887.345 1.919 1.8713 3.4648 3.8633 3.7148l14.469 1.8262 11.592 2.918-4.4941 23.752c-.132.162-.26767.32114-.38867.49414l-14.543 25.887-23.691-8.3594c-2.348-.998-5.0471.20669-6.0371 2.6797-.989 2.473.10812 5.2814 2.4531 6.2734l26.197 12.045c.162.067.32333.12669.48633.17969 2.042.668 6.2805-.84587 7.4785-2.5469l18.039-22.082 15.67 20.703 7.8809 26.209c.572 1.988 2.5028 3.2792 4.5898 3.2422.383-.008.7722-.0572 1.1582-.1582 2.497-.646 3.9681-3.0776 3.2891-5.4316l-4.4453-27.105c-.132-1.744-1.5012-4.0347-2.5742-5.2227l-16.137-23.885c-.191-.283.36005-1.7568.87305-3.0098l14.203-1.1836c2.432-.528 3.9809-2.9692 3.4629-5.4512s-2.9069-4.0661-5.3359-3.5371l-8.7617.10547c.097-.236.18711-.47294.28711-.71094 2.076-4.857 5.2786-10.022 3.9766-15.539-1.04-4.404-4.615-8.068-8.832-9.125-.741-.186-1.4847-.29298-2.2207-.33398-.053-.007-.10325-.021344-.15625-.027344l-2.541-.12109-6.6934-.31445-10.654-.88867c-2.978-.073-3.5723-.07375-5.4863-.09375l-12.021-.2832c-.30712-.038375-.61128-.043943-.9082-.019531zm82.309 79.961a9.044 9.241 0 0 0-9.043 9.2402 9.044 9.241 0 0 0 9.043 9.2402 9.044 9.241 0 0 0 9.0449-9.2402 9.044 9.241 0 0 0-9.0449-9.2402z"/></svg>