<svg xmlns="http://www.w3.org/2000/svg" viewBox="0 0 144 144"><g fill-rule="evenodd" clip-rule="evenodd"><path d="M74.397 35.633c6.943-.014 12.561-5.566 12.542-12.399-.016-6.833-5.658-12.353-12.601-12.335-6.938.015-12.553 5.56-12.537 12.393.015 6.834 5.659 12.359 12.596 12.341zM135.82 7.493c-2.494.086-4.444 2.143-4.356 4.598.087 2.455 2.179 4.375 4.671 4.289 2.492-.086 4.442-2.145 4.355-4.598-.087-2.455-2.177-4.374-4.67-4.289z"/><path d="M123.28 22.389s1.462-.411.665-3.147c-.476-1.067-.69-2.223-3.252-2.082.102-.559.134-2.327-1.916-2.999-.879-.15-6.01-.891-11.334 6.023-1.885 2.976-4.315 7.183-4.551 9.579-.035.629-.011 1.099.024 1.49-.784.259-1.542.649-2.156 1.245l-10.38 9.738c-1.015.198-13.083 1.204-13.083 1.204s-4.85-4.364-9.157-5.625c-1.892-.555-9.847-.89-12.401-.803-.656.023-1.287.102-1.929.243-3.521.779-16.03 4.826-16.61 5.056-3.378 1.335-5.309 5.615-3.578 9.039l9.78 15.723s2.737 3.931 6.623 1.892l-.203 1.734c-.083.799-.272 1.573-.562 2.323-.432 1.117-1.098 2.896-1.603 4.225-.46 1.217-.757 2.48-.884 3.771l-2.371 24.106-19.25 20.147c-2.052 1.762-2.204 4.862-.354 6.928 1.853 2.065 5.014 2.315 7.06.557 0 0 24.031-19.475 24.158-19.605 1.599-1.621 2.331-2.296 3.08-5.939.749-3.641 4.025-15.769 4.025-15.769l15.088 7.822-15.407 28.861c-1.088 1.851-.647 4.245.92 5.811.289.288.613.548.975.771 2.332 1.448 5.264.844 6.551-1.348l21.117-31.517c.154-.265 2.976-4.925-1.611-9.354L72.512 76.011l3.611-14.958 3.02-5.091 12.655-3.574c2.055-.457 3.9-1.564 5.255-3.152l10.452-12.189c.347-.498.561-1.031.684-1.57 1.742.446 5.005.642 10.203-1.406 2.922-1.329 5.39-2.063 5.681-3.691 0 0 .166-.59-.198-1.406-.368-.822-.495-1.051-.495-1.051s2.415-1.121 1.691-3.821c-.301-.722-.702-1.703-1.791-1.713zM51.07 59.43l-.149 1.417-6.204-9.709 6.813-1.272-.46 9.564zm60.988-25.47s-1.953-4.624-7.427-6.012c.652-.284 4.271-1.691 6.659.955.409.647 1.262 1.685.768 5.057z"/></g></svg>