<svg xmlns="http://www.w3.org/2000/svg" viewBox="0 0 144 144"><path d="M95.623 105.773c-.521-2.097-.334-3.28-2.874-5.173-3.188-2.376-26.66-13.212-26.66-13.212s1.818-2.456 4.32-5.968c5.664 1.14 11.738 2.335 13.762 2.882 1.611.435 3.81-.089 4.654-2.13.815-1.971.092-4.067-2.018-4.875 0 0-6.063-1.788-11.213-3.31 3.709-5.445 7.45-11.275 9.043-14.81 1.667-3.694-.041-7.376-2.919-9.564-1.091-.831-2.115-1.536-2.755-1.879-2.479-1.326-5.188-1.79-7.795-1.499-.984.22-1.893.538-2.742.913-5.849 2.085-14.579 4.948-14.575 4.966.005.017-12.514-1.655-17.773-2.359l-1.696-11.827 4.251-7.072c2.787-3.175 4.275-8.315 3.601-13.888-1.055-8.709-6.959-15.16-13.191-14.411-6.231.747-10.429 8.413-9.375 17.113.699 5.763 3.529 10.524 7.163 12.873l-.024.007 5.297 5.631 1.455 11.387c-2.216.862-3.426 3.273-2.682 5.555.525 1.602 2.175 2.185 3.712 2.509l.884 6.929c.864.955 2.166 1.197 2.675-.394l-.86-5.996c4.392.998 8.108 2.346 15.142 3.817l3.338.153c-4.394 7.062-10.483 16.469-10.836 17.003-11.037 16.7 11.384 31.949 11.226 31.979-12.29 2.265-26.844 5.354-26.844 5.354s-4.511.207-3.935 5.604c.273 2.571 2.251 4.214 5.543 4.226 8.111-.477 28.378-1.753 36.268-2.25 2.559-.162 7.433-.263 8.478-3.095 1.723-4.667-.71-8.127-.71-8.127l-5.714-7.949 14.285 6.674s10.342 23.11 11.1 24.682c.653 1.355 1.293 2.764 2.527 3.59 1.458.976 3.487.784 4.967-.111 1.951-1.183 2.323-3.49 1.62-5.708-.058-.185-6.512-21.792-8.12-28.24zM21.835 19.412c-.849-7.034 2.54-13.219 7.574-13.829 5.035-.601 9.808 4.607 10.657 11.643.854 7.034-2.54 13.223-7.575 13.832-5.03.597-9.805-4.613-10.656-11.646zm11.15 17.774l-2.964-3.275c.93.21 1.88.283 2.837.173.786-.095 1.541-.302 2.255-.604l-2.128 3.706z"/><path d="M86.375 48.194c6.879.258 12.684-5.095 12.935-11.964.262-6.865-5.119-12.641-12.019-12.89-6.897-.265-12.689 5.105-12.957 11.97-.249 6.861 5.132 12.642 12.041 12.884zM117.631 90.795c-2.693 0-4.881 2.177-4.881 4.86 0 2.683 2.188 4.858 4.881 4.858 2.7 0 4.882-2.176 4.882-4.858 0-2.683-2.182-4.86-4.882-4.86z"/></svg>