<svg xmlns="http://www.w3.org/2000/svg" viewBox="0 0 144 144"><path d="M104.453 42.592L60.13 41.43c-.15.008-.296.028-.441.045-5.616-.411-11.048 3-13.092 8.731l-9.418 31.6c-1.726 4.837-.028 10.104 3.814 12.998.264.249.817.679 1.842 1.159.824.474 1.732.814 2.705.981 3.192.902 8.4 1.679 16.811 1.503l12.411.27 2.668.156-7.136 28.093c-1.06 2.852.315 6.053 3.078 7.149.632.251 1.282.371 1.922.371 2.151 0 4.181-1.352 5.002-3.548l13.003-37.076c.708-1.899.502-4.034-.555-5.754-1.055-1.718-2.837-2.818-4.802-2.966l-27.335-4.049L71.11 55.236c.188-.535.332-1.043.452-1.537l33.327-1.147c2.663-.125 4.727-2.455 4.604-5.205-.122-2.749-2.416-4.877-5.04-4.755zM67.902 37.083c6.774-1.261 11.288-7.969 10.058-14.981-1.22-7.014-7.719-11.675-14.509-10.401-6.792 1.262-11.299 7.98-10.075 14.995 1.233 7.005 7.727 11.668 14.526 10.387z"/></svg>