<svg xmlns="http://www.w3.org/2000/svg" viewBox="0 0 144 144"><path d="M76.884 25.632c5.355-1.54 8.48-7.208 6.956-12.664-1.516-5.456-7.1-8.624-12.469-7.077-5.369 1.542-8.483 7.221-6.97 12.675 1.527 5.45 7.107 8.625 12.483 7.066zM37.851 121.914h33.588c1.452 0 2.626-1.194 2.626-2.668 0-1.471-1.174-2.666-2.626-2.666H37.851c-1.45 0-2.626 1.195-2.626 2.666 0 1.474 1.176 2.668 2.626 2.668zM95.283 112.223c1.442.13 2.717-.952 2.845-2.422.13-1.466-.937-2.762-2.379-2.892l-33.457-3.034c-1.444-.132-2.717.952-2.847 2.418-.128 1.467.937 2.762 2.381 2.892l33.457 3.038z"/><path d="M124.999 127.927l-.07-.438c-.005-.013-.007-.021-.01-.038l-14.577-68.156 8.031-26.017c.017-.037.021-.076.035-.114l.103-.33-.034-.011c.02-.114.066-.218.066-.338 0-1.086-.866-1.966-1.935-1.966-.775 0-1.435.471-1.744 1.14l-.027-.009-7.635 24.663c-.877-.057-2.161-.226-5.281-.733-1.322-.217-2.233-1.029-2.705-2.42-.528-1.55-1.877-5.567-3.227-9.596l.978-.441c1.574-.787 2.225-2.723 1.449-4.324-.774-1.6-2.682-2.263-4.254-1.473l-.236.074c-.808-2.415-1.383-4.137-1.404-4.198-.297-.898-1.254-1.376-2.133-1.074s-1.352 1.271-1.052 2.167c.02.062.582 1.745 1.376 4.121l-8.138 2.574-7.996-9.504c-.149-.258-.315-.464-.494-.642-1.134-1.628-2.768-2.915-4.78-3.569-4.933-1.608-10.222 1.151-11.805 6.167l-7.627 23.014c-.355 1.123-.483 2.26-.431 3.372-.069.637-.057 1.292.057 1.953l6.427 24.19L45 110.431c-.8 2.13.128 4.555 2.073 5.431.474.212.966.313 1.448.313 1.5 0 2.92-.973 3.526-2.58l14.227-24.978c.377-.937.488-1.966.317-2.964l-1.489-12.279 9.548 5.06-7.035 20.195c-.692 2.198.496 4.551 2.659 5.255.417.138.84.202 1.257.202 1.737 0 3.354-1.13 3.914-2.901l9.979-23.357c.672-2.13-.024-4.46-1.75-5.849L67.436 60.664 73.68 43.84l4.093 4.169c1.256 1.141 1.979 1.927 3.298 1.927.566 0 1.14-.128 1.679-.398l10.152-4.581c1.318 3.934 2.617 7.804 3.133 9.32 1.195 3.505 3.868 4.437 5.357 4.676 1.992.324 3.573.513 4.799.626l-1.314 4.248.033.012-.052.045 12.167 59.49H25.671c-.472 0-.931.061-1.38.148-3.753.062-6.779 3.161-6.779 6.988 0 3.866 3.084 7 6.89 7h94.208c3.805 0 6.888-3.134 6.888-7-.001-.913-.185-1.781-.499-2.583z"/></svg>