<svg xmlns="http://www.w3.org/2000/svg" viewBox="0 0 144 144"><path d="M79.639 37.94c7.213-1.482 11.866-8.548 10.374-15.78-1.478-7.231-8.541-11.891-15.77-10.396-7.227 1.485-11.874 8.56-10.388 15.796 1.494 7.221 8.554 11.883 15.784 10.38zM118.066 93.69l.083.007c-3.187-4.682-15.638-21.901-15.638-21.901L93.81 51.291c-2.062-4.857-6.522-8.31-11.75-8.986-2.393-.309-4.771-.437-6.395-.091-2.215.47-4.635 1.394-6.37 2.896-1.882 1.629-3.007 4.544-3.54 6.931-.211.945-.343 1.904-.413 2.871-.366 5.009.396 29.135.396 29.135l-17.534 25.169-27.144 11.381c-2.869 1.204-4.271 4.466-3.167 7.379 1.082 2.855 4.197 4.377 7.111 3.472l28.45-8.845c1.777-.445 3.426-1.374 4.44-2.231 0 0 24.05-21.743 24.169-21.883l24.266 4.173s-2.107 16.181-3.223 24.882c-.429 3.334 2.301 6.186 5.65 5.97.052-.004.102-.008.153-.01 2.354-.157 4.314-1.86 4.825-4.169 1.332-6.065 4.143-21.566 5.646-29.979.369-2.048-.191-4.038-1.314-5.666zm-16.679-6.961l-12.694-4.14.185-14.053 6.247 9.692 7.143 8.779-.881-.278z"/></svg>