<svg viewBox="0 0 144 144" xmlns="http://www.w3.org/2000/svg"><path d="M63.58 41.539c-.98358.032098-1.9661.29347-2.8672.79297l-17.848 9.9961c-1.124.596-1.9548 1.619-2.2988 2.834-.703 2.467.83505 5.1249 2.623 5.7949 1.789.672 3.0841.20611 3.9941-.08789l14.23-6.5293 8.3867 10.146-35.279 26.086c3.148 2.06 5.0645 4.224 5.4395 4.666 1.226 1.389 1.9637 1.6093 1.9707 1.6133.187-.127 1.0361-1.0119 1.1641-1.2109l.49805-.76562.66992-.62305c.282-.261.54736-.48131.81836-.69531 5.394-4.727 11.151-7.1152 17.139-7.1152 3.451 0 6.8431.80844 10.078 2.3984 4.45 2.183 7.1564 5.1245 7.6504 5.6895l.26953.32031c1.182 1.519 1.8865 1.7685 1.8945 1.7715.128-.083.92975-.68455 1.3438-1.1855l.26758-.32617.40625-.41797c5.675-5.466 11.904-8.2344 18.514-8.2344 4.728 0 8.6657 1.4612 11.555 3.0312l-46.074-46.238c-.005-.006-.011578-.009625-.017578-.015625-1.25-1.1675-2.888-1.7488-4.5273-1.6953zm41.986 1.0293a13.583 13.453 0 0 0-13.584 13.453 13.583 13.453 0 0 0 13.584 13.453 13.583 13.453 0 0 0 13.582-13.453 13.583 13.453 0 0 0-13.582-13.453zm34.941 51.01c-2.943.507-6.1667 1.9602-9.5137 4.9902 0 0-7.8516 11.494-16.809-.11914 0 0-11.491-11.363-24.877 1.5254 0 0-7.1557 9.3908-14.973-.61523 0 0-2.0007-2.2778-5.3477-3.9238-4.418-2.171-11.206-3.1748-18.951 3.6172-.23.203-.4535.35531-.6875.57031 0 0-6.539 10.065-15.082.35156 0 0-11.23-13.234-24.912-.67773 0 0-2.2745 3.4731-5.8535 4.5781v6.5234c3.039-.446 7.9702-1.9284 11.492-6.7774 0 0 6.2154-7.3426 13.318.23438 0 0 4.7842 7.1424 13.449 6.6484 0 0 8.6166.07921 13.557-7.0508 0 0 5.6507-7.5936 13.262-.05859 0 0 6.1785 8.0917 14.564 6.9297 0 0 6.4617.41308 12.68-7.0449 0 0 5.3907-7.6866 13.264-.06055 0 0 5.1594 7.637 14.314 6.834 0 0 7.9312-.25517 12.99-6.9512 0 0 1.6362-1.7837 4.1152-2.6797v-6.8438z"/></svg>