<svg viewBox="0 0 144 144" xmlns="http://www.w3.org/2000/svg"><path d="M65.484 11.482a12.776 12.564 0 0 0-12.775 12.564 12.776 12.564 0 0 0 12.775 12.562 12.776 12.564 0 0 0 12.777-12.562 12.776 12.564 0 0 0-12.777-12.564zm31.211 2.4746c-.60507.013401-1.2207.079016-1.8418.19727-4.97.948-8.3774 4.8618-7.1484 11.09.436 2.214 1.3581 4.1711 2.5801 5.7461l15.203-2.8984c.536-1.909.64594-4.0653.21094-6.2773-1.0754-5.4504-4.7684-7.9512-9.0039-7.8574zm7.9707 16.268l-12.809 2.4434c1.534 1.326 3.339 2.1369 5.207 2.2539l.80664 4.082c-.056.034-.11783.034313-.17383.070313l-17.566 10.434s-24.632-13.522-25.512-13.818c-6.752-2.269-11.614 3.9522-13.117 5.9102-.891 1.163-14.117 25.911-16.531 30.424-3.47 6.49-2.4862 9.1831 4.5938 17.996l11.844 13.18c-6.446 6.396-21.875 21.711-21.875 21.711-.252.35-.47558.72267-.64258 1.1387-1.094 2.76.2897 5.8673 3.0957 6.9473 1.543.59 3.1811.42585 4.5371-.28515l.013671.01367.080079-.0625c.543-.3 26.51-20.625 26.51-20.625 2.877-2.238 4.533-4.7654 3.793-8.0644-.146-.65-.39922-1.2436-.69922-1.8086-.147-.441-6.9824-10.518-6.9824-10.518s13.472 7.1655 13.834 7.4785c-1.708 8.925-5.7246 29.908-5.7246 29.908-.007.427.018141.85793.11914 1.2949.662 2.89 3.5815 4.7028 6.5195 4.0508 1.614-.36 2.8806-1.4013 3.5996-2.7363l.013671.0039.03125-.0957c.245-.476 8.4288-25.16 10.426-31.42.892-2.983.8788-6.1044-1.5332-8.6074-.613-.64-23.91-17.373-23.91-17.373 0 .013.26752-.45009.72852-1.2461 5.819.657 16.123 1.8206 16.309 1.8516 2.343.392 4.5668-1.1608 4.9668-3.4668.397-2.306-1.1784-4.4918-3.5234-4.8848l-12.572-2.4277c1.953-3.337 4.0169-6.8081 5.5469-9.2461 6.914 3.028 12.205 5.2695 12.205 5.2695 3.807 1.377 6.34.96294 8.502-.41406 2.938-2.166 17.522-12.921 17.744-13.066 2.221-1.459 2.2243-4.4355.94727-6.3145-.472-.694-1.148-1.1306-1.877-1.4316l-.89648-4.543c1.689-.796 3.0537-2.2129 3.9727-4.0059zm21.1 12.369c-2.063 0-3.7422 1.6487-3.7422 3.6797 0 2.03 1.6792 3.6777 3.7422 3.6777 2.07 0 3.7422-1.6477 3.7422-3.6777 0-2.031-1.6722-3.6797-3.7422-3.6797z"/></svg>