<svg viewBox="0 0 144 144" xmlns="http://www.w3.org/2000/svg"><path d="M72.354 5.4941c-6.899-.264-12.692 5.1447-12.957 12.055-.252 6.909 5.1301 12.731 12.039 12.975 6.879.259 12.686-5.1319 12.939-12.047.262-6.914-5.1235-12.729-12.021-12.982zm37.17 22.406c-2.8696-.037-6.6523 1.207-10.301 6.332 0 0-4.2216 5.1422-2.3906 13.742l.72656 6.9551-2.959 4.7852c-.604-.581-1.2708-1.0454-1.7988-1.3574-2.45-1.448-11.479-7.3066-11.479-7.3066l-6.8711-12.553c-.015-.032-.028969-.083234-.042969-.11524-.869-1.423-5.6309-5.2909-7.4199-6.2559-2.478-1.335-5.1881-1.8028-7.7871-1.5098-.005 0-.010578.000953-.017578.001953-7.003 1.116-11.062 8.6797-11.062 8.6797l-.003906-.003906c-2.604 4.159-6.9944 10.999-12.732 19.824-9.478 14.582-2.5275 22.439-.47852 26.848 2.351 4.26 9.3516 16.68 9.3516 16.68.007.02.004094.04055-.003906.06055l-1.8848 3.5644-3.3926 6.4316-6.9238 13.113c-1.191 2.25-.33484 5.0424 1.9102 6.2344.221.119.45064.21983.68164.29883 2.098.712 4.4661-.18399 5.5371-2.209l8.1895-12.264 2.1641-3.2363-.060547 5.373-.16797 14.838c-.032 2.546 2.0049 4.634 4.5469 4.666.251.004.50214-.01383.74414-.04883 2.19-.329 3.8821-2.2139 3.9121-4.5059l3.293-29.256c.212-2.219.24027-3.1828-.42773-5.5918l-6.0488-19.205c-1.168-4.838-2.2266-8.7988-2.2266-8.7988-.004-.019.000672-.039641.013672-.05664 4.034-5.59 6.8286-10.226 10.309-15.336l3.0215 10.361c.316 1.428 1.4361 2.5258 2.8691 2.7988 4.001.754 12.058 2.3152 15.938 3.3262l-.9375 1.5176 1.5547.98828 1.2129-1.9707c1.587.505 4.3273.94255 5.6953-.81445 1.43-1.835 1.3445-5.1943-.68945-5.9453 1.418-.464 2.7414-1.9329 3.0684-3.5039.165-.799-.022953-1.5457-.37695-2.2227l3.3184-5.3906s7.3856-2.9098 7.4316-2.9238 5.9336-1.2846 10.061-8.5176c-.001-.002 5.3847-9.808-2.2383-15.166 0 0-1.9566-1.3185-4.8262-1.3555zm.03906 2.2969c1.238.027451 2.3351.38031 3.4707 1.0859 1.312.815 2.3536 2.377 2.8496 3.959.493 1.586.59294 3.1458.21094 5.0098-.053.26-.2083.91878-.2793 1.1758 0 0-.77328 3.1468-3.2383 5.4258 0 0-2.2334 2.4862-5.0684 3.5332-.354.128-.65123.27295-.99023.37695-1.754.532-3.6132.66883-5.3672-.45117 0 0-1.7958-.99506-2.5098-4.0391 0 0-.64723-2.1856-.11523-5.1426.445-2.479.94319-4.1835 2.8672-6.6875 2.58-3.358 5.75-3.9492 5.75-3.9492.88275-.21375 1.6771-.31335 2.4199-.29688zm-32.82 28.791l11.99 6.5762-11.73-3.7812c-.018-.007-.021062-.008578-.039062-.017578-.057-.11-.1277-1.1833-.2207-2.7773zm50.094 22.693a4.672 4.68 0 0 0-4.6738 4.6797 4.672 4.68 0 0 0 4.6738 4.6797 4.672 4.68 0 0 0 4.6719-4.6797 4.672 4.68 0 0 0-4.6719-4.6797z"/></svg>