<svg xmlns="http://www.w3.org/2000/svg" viewBox="0 0 144 144"><path d="M134.487 126.091c.012-.229.005-.462-.034-.688l-.082-.527c-.007-.013-.013-.028-.015-.042L122.38 54.5l7.289-20.954c.293-1.064-.591-2.353-1.98-2.873-.345-.129-.694-.204-1.018-.219-1.003-.342-1.955-.113-2.356.664l-12.359 20.917c-.049.098-.081.204-.112.311 0 0-2.807 4.471 5.103 4.997l.009.142h.314l9.655 61.609H15.044c-3.609 0-6.537 3.227-6.537 7.201 0 3.98 2.928 7.202 6.537 7.202h112.918c3.61 0 6.532-3.222 6.532-7.202.001-.066-.007-.137-.007-.204zM81.557 32.055c5.744.184 10.552-4.265 10.738-9.941.185-5.672-4.321-10.414-10.065-10.598-5.738-.184-10.547 4.261-10.732 9.934-.189 5.674 4.32 10.421 10.059 10.605z"/><path d="M23.633 92.187l25.297 2.827c.155.011.306.018.458.018 1.899 0 3.688-.866 4.751-2.324L68.618 76.51 86.88 90.472l6.877 24.678c.479 1.712 2.169 2.85 4.018 2.85.341 0 .686-.037 1.027-.117 2.224-.516 3.563-2.576 3-4.602l-4.08-27.116c-.308-1.094-.984-2.07-1.94-2.789L76.978 66.528l4.112-11.845 4.762 5.081c.959 1.265 2.491 1.968 4.078 1.885.075-.005.152-.01.227-.019 1.666-.165 3.124-1.183 3.841-2.679l8.701-13.396c.944-1.966.092-4.313-1.897-5.242-1.989-.93-4.364-.09-5.307 1.873l-5.692 7.552-6.04-10.708-.374-.665c-.024-.024-.049-.048-.073-.075-1.33-2.254-3.594-4.013-6.449-4.705-.657-.158-1.315-.252-1.97-.287-.046-.007-.09-.017-.139-.024l-2.251-.104-18.737-.85h-.016c-2.075-.236-4.063.884-4.913 2.77l-5.498 14.025c-.893 1.98.01 4.301 2.013 5.181.381.166.773.269 1.164.315 1.68.191 3.359-.699 4.083-2.305l5.542-10.201 7.6 1.569-3.985 20.353c-.116.139-.235.274-.344.423l-12.92 19.962-22.208-.49c-2.246-.185-4.205 1.519-4.386 3.799-.182 2.282 1.489 4.283 3.731 4.466z"/></svg>