<svg xmlns="http://www.w3.org/2000/svg" viewBox="0 0 144 144"><path d="M77.646 37.728c7.346.271 13.546-5.377 13.816-12.627.277-7.244-5.467-13.337-12.839-13.603-7.366-.277-13.554 5.389-13.839 12.633-.266 7.241 5.482 13.34 12.862 13.597zM93.751 58.663L81.794 45.454s-5.308-4.858-8.836-6.25c-2.791-1.101-4.577-1.973-8.389-1.38-8.309 1.834-12.362 10.006-16.92 16.24-4.515 6.168-6.714 9.955-10.961 16.307-.643.961-1.319 1.93-1.829 2.967-1.471 2.986-1.496 5.782-.84 8.295 0 .067-.01.133-.008.202l7.465 31.633-27.17 6.202c-2.644.601-4.292 3.197-3.68 5.799.061.256.141.506.239.746.896 2.151 2.903 3.203 5.654 2.875l33.555-4.603c2.977-1.177 4.912-4.034 4.867-7.187l-.599-24.196 18.55 10.21-12.88 24.062c-1.271 2.359-.357 5.284 2.042 6.535.236.123.479.228.73.312 2.239.745 4.346-.192 5.912-2.316l19.028-27.175c2.3-3.273 2.08-6.492-.293-8.325L62.271 77.41c0-.056 8.318-11.788 12.044-17.156l9.71 6.016c.008.015 12.991 12.394 16.614 15.529 1.301 1.124 4.015 2.874 6.186 1.647 2.169-1.227 2.918-3.949 1.675-6.083l-14.749-18.7zM123.504 30.628c-6.071 0-10.995 4.841-10.995 10.813 0 5.971 4.924 10.812 10.995 10.812 6.068 0 10.989-4.841 10.989-10.812 0-5.972-4.921-10.813-10.989-10.813z"/></svg>