<svg xmlns="http://www.w3.org/2000/svg" viewBox="0 0 144 144"><path d="M80.912 32.724c6.363-1.146 10.605-7.236 9.446-13.603-1.146-6.369-7.253-10.598-13.633-9.441-6.381 1.144-10.612 7.247-9.466 13.611 1.158 6.364 7.262 10.6 13.653 9.433zM98.41 105.736c-.161-.525-.399-1.027-.707-1.483L83.262 79.42c.102-.443.183-.896.22-1.36l1.661-12.663c.226.248.47.478.748.671l13.042 8.963c.753.528 1.62.78 2.477.78 1.364 0 2.71-.646 3.553-1.847 1.365-1.955.89-4.649-1.07-6.017l-11.786-8.489-4.742-15.152c-.889-4.802-4.896-8.609-10.003-9.022-1.979-.158-3.872.216-5.549.991-.536.188-1.058.443-1.549.783L52.537 51.413c-1.09.753-1.8 1.937-1.958 3.25l-1.207 17.043c-.258 2.191 1.311 4.18 3.505 4.438.16.018.319.027.477.027 2 0 3.729-1.493 3.971-3.524l2.192-14.833 5.564-3.116-.753 21.817c-.052.642-.036 1.271.035 1.889l-9.342 28.023-15.111 20.369c-1.58 1.979-1.254 4.861.729 6.438.847.672 1.856 1.003 2.859 1.003 1.35 0 2.687-.594 3.594-1.728l17.172-19.725c.324-.407.59-.852.788-1.329l9.655-18.42 13.236 16.769 7.904 23.404c.616 2.01 2.468 3.303 4.469 3.303.456 0 .916-.065 1.373-.205 2.47-.753 3.859-3.362 3.104-5.831l-6.383-24.739z"/></svg>