<svg xmlns="http://www.w3.org/2000/svg" viewBox="0 0 144 144"><path d="M49.165 35.217c6.554-1.285 10.822-7.587 9.514-14.076C57.381 14.647 51 10.43 44.431 11.724c-6.569 1.29-10.83 7.598-9.528 14.091 1.31 6.482 7.688 10.703 14.262 9.402zM105.547 110.988c-.792-.154-1.646-.008-2.342.398-1.232.719-1.884 2.522-2.548 3.714-.86 1.547-2.488 4.646-4.598 4.547l-80.991 15.649c-1.718.331-2.834 1.975-2.5 3.673.338 1.697 1.998 2.801 3.718 2.469.309-.059.618-.119.927-.18.882-.169 77.224-14.931 78.22-15.128 2.023-.402 4.508-.518 6.298-1.636 2.397-1.502 3.934-4.094 5.024-6.617.473-1.089.908-2.32.992-3.507.104-1.473-.61-3.07-2.2-3.382z"/><path d="M22.948 86.105c.382.316.79.605 1.214.866.973.598 12.458 6.429 13.511 6.996.257.138.514.277.773.417l-7.707 24.591c-1.161 2.814.202 6.026 3.054 7.176.653.263 1.325.393 1.989.407 2.237.044 4.375-1.256 5.272-3.426 0 0 11.654-29.02 11.658-29.029.298-.741.385-1.507.335-2.266.756.073 1.214.119 1.214.119l-2.086 25.551c-.785 2.729.811 5.572 3.574 6.35.63.177 1.268.234 1.886.177 2.081-.183 3.928-1.604 4.539-3.708l6.481-31.631c.239-1.407.035-3.106-.557-4.25-.548-1.055-2.346-2.311-4.146-3.177L42.32 71.26l9.093-17.313c4.342.017 13.551.05 14.438.081.296.015 2.033.121 2.31.009l17.516-4.229.378 9.5c.022.594.396 1.125.954 1.349.068.03.141.055.214.072.5.125 1.038-.013 1.428-.366l16.972-15.685c.122-.113.198-.257.278-.398l37.584-2.058-.095-1.901-37.845 2.071c-.008-.006-.008-.013-.015-.017l-18.167-14.32c-.473-.374-1.118-.443-1.66-.172-.538.272-.866.826-.842 1.419l.474 11.896-17.67 2.401c-.485-.121-.972-.241-1.457-.362-1.218-.304-19.292-4.994-20.432-5.272-1.823-.449-3.708-.706-5.583-.508-.988.104-1.964.323-2.899.651-1.869.658-3.575 1.752-4.938 3.176-1.218 1.271-2.149 2.796-2.729 4.446 0 0-8.618 29.475-8.623 29.495-.84 2.873-1.489 5.835.038 8.623.478.867 1.142 1.624 1.906 2.257zm79.263-42.453L89.002 55.861l-.272-6.791.265-.064c2.199-.885 3.259-3.36 2.365-5.533-.534-1.301-1.668-2.126-2.949-2.447l-.337-8.517 14.137 11.143z"/></svg>