<svg xmlns="http://www.w3.org/2000/svg" viewBox="0 0 144 144"><path d="M66.534 40.263c1.083-6.095-2.913-11.937-8.943-13.029-6.023-1.107-11.792 2.939-12.874 9.036-1.093 6.094 2.915 11.923 8.924 13.02 6.037 1.114 11.798-2.939 12.893-9.027z"/><path d="M127.392 119.393l-17.913 10.162V2.494h-4.335v128.985l-20.653-5.808 4.054-17.492c.57-2.659-.351-5.434-2.35-7.083L62.947 84.81l1.212-19.194L81.44 50.904c.683-.661 1.174-1.511 1.416-2.451l3.955-17.467 6.791 4.06.032-2.658-6.403-3.957c.042-1.855-1.086-3.578-2.937-4.085-1.072-.295-2.154-.121-3.053.385l-.09-.056-20.465-2.56L69.257 2.59l-2.904-.072-8.543 19.237-15.648-1.958-3.48.54c-.543-1.397-1.627-2.482-3.044-2.69-2.125-.313-4.072 1.404-4.386 3.842l-3.671.57v2.486l3.156-.477-3.196 16.258c-.187 1.483.213 2.983 1.115 4.168l12.485 16.56L41 85.778c-.026 1.013.081 1.997.311 2.938.446 2.624 2.417 6.926 10.163 9.414l.061.04-2.422 17.554-11.687-3.286.007 4.651 11.064 3.09-.305 2.213c-.64 2.535.873 5.114 3.381 5.761.595.156 1.189.186 1.767.108 1.841-.245 3.44-1.595 3.928-3.524l.43-1.988 15.857 4.43-1.39 9.397c-.596 2.595.999 5.189 3.566 5.792.361.086.727.128 1.086.128 2.168 0 4.128-1.505 4.64-3.731l2.042-8.81L105.144 136v.074l.074-.053.843.235 1.681-.939 19.765-11.034-.115-4.89zM47.804 50.495l-.04-.073c-1.642-1.021-3.307-2.376-4.96-4.198l-.044.009-5.086-6.298 1.374-17.122 3.152-.476 37.213 4.653c-.033.095-.104.165-.131.263l-5.526 17.056-7.668 5.863c-1.271.766-3.174 1.715-5.485 2.299l-.007.014c-.002-.001-6.296 1.907-12.792-1.99zm26.401 72.285l-15.568-4.379 3.47-16.065 13.98 7.722-1.882 12.722z"/></svg>