<svg xmlns="http://www.w3.org/2000/svg" viewBox="0 0 144 144"><path d="M66.848 46.398c6.226 4.004 14.5 2.168 18.472-4.137 3.966-6.267 2.147-14.614-4.082-18.622-6.227-4.016-14.494-2.174-18.467 4.116-3.981 6.282-2.146 14.627 4.077 18.643zM118.862 109.86l-4.479-1.278c1.428-.096 2.799-.828 3.652-2.122 1.462-2.212.869-5.195-1.321-6.67L97.005 85.298 89.588 61.69c-.227-.7-.544-1.341-.931-1.924-1.781-5.022-7.946-8.734-15.304-8.737h-.005c-7.523 0-13.807 3.875-15.432 9.067-.279.482-.511.996-.688 1.546l-7.477 23.656-19.88 14.093c-2.343 1.576-2.974 4.767-1.411 7.13.623.942 1.502 1.607 2.48 1.971l-4.799 1.369c-3.146.896-5.111 4.047-4.554 7.298.535 3.104 3.205 5.34 6.286 5.34.145 0 .29-.005.437-.016l35.699-2.456c.126-.008.249-.029.369-.045 1.017-.091 6.446-.507 16.563.04.02 0 .034.003.052.005l35.699 2.456c.146.011.297.016.439.016 3.078 0 5.749-2.237 6.282-5.34.559-3.252-1.406-6.402-4.551-7.299zm-81.121-3.308L57.87 93.91c1.09-.733 1.902-1.816 2.304-3.072l.041-.082.882 9.136-23.356 6.66zm47.822-6.188l.936-9.698.082.172c.402 1.256 1.216 2.339 2.305 3.072l22.382 13.783-25.705-7.329z"/></svg>